<svg xmlns="http://www.w3.org/2000/svg" xmlns:rdkit="http://www.rdkit.org/xml" xmlns:xlink="http://www.w3.org/1999/xlink" version="1.1" baseProfile="full" xml:space="preserve" width="1000px" height="250px" viewBox="0 0 1000 250">
<!-- END OF HEADER -->
<rect style="opacity:1.0;fill:#FFFFFF;stroke:none" width="250.0" height="250.0" x="0.0" y="0.0"> </rect>
<path class="bond-0 atom-0 atom-1" d="M 212.5,104.1 L 154.1,137.7" style="fill:none;fill-rule:evenodd;stroke:#000000;stroke-width:2.0px;stroke-linecap:butt;stroke-linejoin:miter;stroke-opacity:1"/>
<path class="bond-1 atom-1 atom-2" d="M 154.1,137.7 L 95.9,104.0" style="fill:none;fill-rule:evenodd;stroke:#000000;stroke-width:2.0px;stroke-linecap:butt;stroke-linejoin:miter;stroke-opacity:1"/>
<path class="bond-1 atom-1 atom-2" d="M 154.2,126.1 L 100.9,95.3" style="fill:none;fill-rule:evenodd;stroke:#000000;stroke-width:2.0px;stroke-linecap:butt;stroke-linejoin:miter;stroke-opacity:1"/>
<path class="bond-2 atom-2 atom-3" d="M 95.9,104.0 L 37.5,137.6" style="fill:none;fill-rule:evenodd;stroke:#000000;stroke-width:2.0px;stroke-linecap:butt;stroke-linejoin:miter;stroke-opacity:1"/>
<path d="M 157.1,136.1 L 154.1,137.7 L 151.2,136.1" style="fill:none;stroke:#000000;stroke-width:2.0px;stroke-linecap:butt;stroke-linejoin:miter;stroke-miterlimit:10;stroke-opacity:1;"/>
<path d="M 98.8,105.7 L 95.9,104.0 L 92.9,105.7" style="fill:none;stroke:#000000;stroke-width:2.0px;stroke-linecap:butt;stroke-linejoin:miter;stroke-miterlimit:10;stroke-opacity:1;"/>
<path class="legend" d="M 95.4 195.0 L 96.5 195.0 L 96.5 203.2 L 95.4 203.2 L 95.4 195.0 " fill="#000000"/>
<path class="legend" d="M 98.2 202.0 Q 98.7 202.2, 99.1 202.3 Q 99.5 202.4, 99.9 202.4 Q 100.4 202.4, 100.7 202.2 Q 101.0 201.9, 101.0 201.5 Q 101.0 201.3, 100.8 201.1 Q 100.7 200.9, 100.5 200.8 Q 100.3 200.8, 99.8 200.6 Q 99.7 200.6, 99.2 200.4 Q 98.7 200.2, 98.4 199.8 Q 98.1 199.4, 98.1 198.8 Q 98.1 198.1, 98.6 197.7 Q 99.2 197.2, 100.3 197.2 Q 100.7 197.2, 101.1 197.3 Q 101.5 197.4, 101.9 197.5 L 101.7 198.4 Q 101.3 198.2, 100.9 198.2 Q 100.6 198.1, 100.3 198.1 Q 99.7 198.1, 99.4 198.3 Q 99.2 198.5, 99.2 198.8 Q 99.2 199.2, 99.4 199.3 Q 99.6 199.5, 100.1 199.6 Q 100.2 199.7, 100.3 199.7 L 100.6 199.8 Q 101.1 200.0, 101.4 200.1 Q 101.7 200.3, 101.9 200.6 Q 102.1 201.0, 102.1 201.5 Q 102.1 202.3, 101.5 202.8 Q 100.9 203.3, 99.9 203.3 Q 99.3 203.3, 98.9 203.2 Q 98.4 203.0, 97.9 202.8 L 98.2 202.0 " fill="#000000"/>
<path class="legend" d="M 103.1 200.2 Q 103.1 198.8, 103.8 198.0 Q 104.5 197.2, 105.9 197.2 Q 107.2 197.2, 107.9 198.0 Q 108.7 198.8, 108.7 200.2 Q 108.7 201.6, 107.9 202.5 Q 107.2 203.3, 105.9 203.3 Q 104.5 203.3, 103.8 202.5 Q 103.1 201.6, 103.1 200.2 M 104.2 200.2 Q 104.2 201.3, 104.6 201.9 Q 105.1 202.4, 105.9 202.4 Q 106.7 202.4, 107.1 201.9 Q 107.6 201.3, 107.6 200.2 Q 107.6 199.1, 107.1 198.6 Q 106.7 198.0, 105.9 198.0 Q 105.1 198.0, 104.6 198.6 Q 104.2 199.1, 104.2 200.2 " fill="#000000"/>
<path class="legend" d="M 116.4 197.2 Q 117.4 197.2, 117.9 197.7 Q 118.4 198.2, 118.4 199.3 L 118.4 203.2 L 117.3 203.2 L 117.3 199.4 Q 117.3 198.7, 117.1 198.3 Q 116.8 198.0, 116.2 198.0 Q 115.7 198.0, 115.2 198.3 Q 114.8 198.5, 114.5 199.0 Q 114.5 199.1, 114.5 199.3 L 114.5 203.2 L 113.5 203.2 L 113.5 199.4 Q 113.5 198.7, 113.2 198.3 Q 112.9 198.0, 112.3 198.0 Q 111.8 198.0, 111.4 198.3 Q 110.9 198.5, 110.7 198.9 L 110.7 203.2 L 109.6 203.2 L 109.6 197.3 L 110.5 197.3 L 110.6 198.1 Q 111.3 197.2, 112.5 197.2 Q 113.9 197.2, 114.4 198.2 Q 115.1 197.2, 116.4 197.2 " fill="#000000"/>
<path class="legend" d="M 119.7 200.2 Q 119.7 198.8, 120.4 198.0 Q 121.1 197.2, 122.4 197.2 Q 123.7 197.2, 124.3 198.0 Q 124.9 198.7, 124.9 200.2 L 124.9 200.4 L 120.8 200.4 Q 120.8 201.4, 121.2 201.9 Q 121.7 202.4, 122.5 202.4 Q 123.0 202.4, 123.4 202.3 Q 123.8 202.2, 124.4 202.0 L 124.7 202.7 Q 124.1 203.0, 123.6 203.1 Q 123.0 203.3, 122.5 203.3 Q 121.1 203.3, 120.4 202.5 Q 119.7 201.7, 119.7 200.2 M 122.4 198.0 Q 121.8 198.0, 121.4 198.4 Q 121.0 198.8, 120.8 199.6 L 123.8 199.6 Q 123.7 198.8, 123.4 198.4 Q 123.0 198.0, 122.4 198.0 " fill="#000000"/>
<path class="legend" d="M 126.6 197.3 L 126.7 198.1 Q 127.3 197.2, 128.3 197.2 Q 128.7 197.2, 129.1 197.3 L 128.9 198.2 Q 128.4 198.1, 128.2 198.1 Q 127.7 198.1, 127.4 198.3 Q 127.1 198.5, 126.8 199.0 L 126.8 203.2 L 125.7 203.2 L 125.7 197.3 L 126.6 197.3 " fill="#000000"/>
<path class="legend" d="" fill="#000000"/>
<path class="legend" d="M 141.3 198.1 L 139.7 198.1 L 139.4 200.2 L 140.9 200.2 L 140.8 201.0 L 139.2 201.0 L 138.9 203.2 L 137.9 203.2 L 138.3 201.0 L 136.4 201.0 L 136.0 203.2 L 135.1 203.2 L 135.5 201.0 L 133.9 201.0 L 134.0 200.2 L 135.6 200.2 L 136.0 198.1 L 134.4 198.1 L 134.5 197.3 L 136.1 197.3 L 136.5 195.0 L 137.4 195.0 L 137.0 197.3 L 139.0 197.3 L 139.3 195.0 L 140.2 195.0 L 139.9 197.3 L 141.4 197.3 L 141.3 198.1 M 138.5 200.2 L 138.8 198.1 L 136.9 198.1 L 136.5 200.2 L 138.5 200.2 " fill="#000000"/>
<path class="legend" d="M 142.1 201.8 L 143.2 201.8 L 143.2 203.0 L 142.1 203.0 L 142.1 201.8 M 142.1 197.9 L 143.2 197.9 L 143.2 199.0 L 142.1 199.0 L 142.1 197.9 " fill="#000000"/>
<path class="legend" d="" fill="#000000"/>
<path class="legend" d="M 149.1 202.3 L 150.9 202.3 L 150.9 196.2 L 148.9 196.8 L 148.7 196.1 L 151.2 195.0 L 152.0 195.1 L 152.0 202.3 L 153.6 202.3 L 153.6 203.2 L 149.1 203.2 L 149.1 202.3 " fill="#000000"/>
<path class="legend" d="M 80.8 210.5 Q 80.9 210.6, 81.3 210.7 Q 81.7 210.9, 82.1 211.0 Q 82.5 211.1, 82.9 211.1 Q 83.7 211.1, 84.1 210.7 Q 84.6 210.3, 84.6 209.7 Q 84.6 209.2, 84.4 209.0 Q 84.1 208.7, 83.8 208.5 Q 83.5 208.4, 82.9 208.2 Q 82.2 208.0, 81.7 207.8 Q 81.3 207.6, 81.0 207.1 Q 80.7 206.7, 80.7 206.0 Q 80.7 205.0, 81.4 204.3 Q 82.1 203.7, 83.5 203.7 Q 84.4 203.7, 85.5 204.1 L 85.2 205.0 Q 84.2 204.6, 83.5 204.6 Q 82.7 204.6, 82.3 205.0 Q 81.8 205.3, 81.8 205.8 Q 81.8 206.3, 82.1 206.5 Q 82.3 206.8, 82.6 207.0 Q 82.9 207.1, 83.5 207.3 Q 84.2 207.5, 84.7 207.7 Q 85.1 208.0, 85.4 208.4 Q 85.7 208.9, 85.7 209.7 Q 85.7 210.8, 85.0 211.4 Q 84.2 212.0, 83.0 212.0 Q 82.3 212.0, 81.7 211.9 Q 81.2 211.7, 80.5 211.4 L 80.8 210.5 " fill="#000000"/>
<path class="legend" d="M 96.0 211.8 L 95.0 211.8 L 94.1 205.2 L 91.9 211.8 L 90.8 211.8 L 88.6 205.2 L 87.8 211.8 L 86.7 211.8 L 87.8 203.7 L 89.1 203.7 L 91.4 210.2 L 93.6 203.7 L 95.0 203.7 L 96.0 211.8 " fill="#000000"/>
<path class="legend" d="M 97.2 203.6 L 98.3 203.6 L 98.3 211.8 L 97.2 211.8 L 97.2 203.6 " fill="#000000"/>
<path class="legend" d="M 99.8 203.7 L 100.9 203.7 L 100.9 210.8 L 104.6 210.8 L 104.6 211.8 L 99.8 211.8 L 99.8 203.7 " fill="#000000"/>
<path class="legend" d="M 105.4 203.7 L 110.2 203.7 L 110.2 204.6 L 106.5 204.6 L 106.5 207.1 L 109.9 207.1 L 109.9 208.0 L 106.5 208.0 L 106.5 210.8 L 110.4 210.8 L 110.4 211.8 L 105.4 211.8 L 105.4 203.7 " fill="#000000"/>
<path class="legend" d="M 111.7 210.5 Q 111.8 210.6, 112.2 210.7 Q 112.6 210.9, 113.0 211.0 Q 113.4 211.1, 113.8 211.1 Q 114.6 211.1, 115.0 210.7 Q 115.5 210.3, 115.5 209.7 Q 115.5 209.2, 115.2 209.0 Q 115.0 208.7, 114.7 208.5 Q 114.3 208.4, 113.8 208.2 Q 113.0 208.0, 112.6 207.8 Q 112.2 207.6, 111.9 207.1 Q 111.6 206.7, 111.6 206.0 Q 111.6 205.0, 112.3 204.3 Q 113.0 203.7, 114.3 203.7 Q 115.3 203.7, 116.3 204.1 L 116.1 205.0 Q 115.1 204.6, 114.4 204.6 Q 113.6 204.6, 113.1 205.0 Q 112.7 205.3, 112.7 205.8 Q 112.7 206.3, 112.9 206.5 Q 113.2 206.8, 113.5 207.0 Q 113.8 207.1, 114.4 207.3 Q 115.1 207.5, 115.5 207.7 Q 116.0 208.0, 116.3 208.4 Q 116.6 208.9, 116.6 209.7 Q 116.6 210.8, 115.9 211.4 Q 115.1 212.0, 113.9 212.0 Q 113.1 212.0, 112.6 211.9 Q 112.0 211.7, 111.4 211.4 L 111.7 210.5 " fill="#000000"/>
<path class="legend" d="M 117.6 210.5 L 118.8 210.5 L 118.8 211.6 L 117.6 211.6 L 117.6 210.5 M 117.6 206.5 L 118.8 206.5 L 118.8 207.7 L 117.6 207.7 L 117.6 206.5 " fill="#000000"/>
<path class="legend" d="" fill="#000000"/>
<path class="legend" d="M 124.4 207.7 Q 124.4 205.7, 125.3 204.6 Q 126.3 203.6, 128.1 203.6 Q 129.8 203.6, 130.7 204.8 L 129.9 205.4 Q 129.2 204.5, 128.1 204.5 Q 126.9 204.5, 126.2 205.3 Q 125.6 206.2, 125.6 207.7 Q 125.6 209.3, 126.2 210.2 Q 126.9 211.0, 128.2 211.0 Q 129.1 211.0, 130.1 210.4 L 130.5 211.3 Q 130.0 211.6, 129.4 211.7 Q 128.8 211.9, 128.0 211.9 Q 126.3 211.9, 125.3 210.8 Q 124.4 209.7, 124.4 207.7 " fill="#000000"/>
<path class="legend" d="M 134.5 203.3 L 135.5 203.3 L 132.5 212.5 L 131.6 212.5 L 134.5 203.3 " fill="#000000"/>
<path class="legend" d="M 136.3 207.7 Q 136.3 205.7, 137.3 204.6 Q 138.2 203.6, 140.0 203.6 Q 141.7 203.6, 142.6 204.8 L 141.8 205.4 Q 141.2 204.5, 140.0 204.5 Q 138.8 204.5, 138.1 205.3 Q 137.5 206.2, 137.5 207.7 Q 137.5 209.3, 138.2 210.2 Q 138.8 211.0, 140.1 211.0 Q 141.0 211.0, 142.1 210.4 L 142.4 211.3 Q 142.0 211.6, 141.3 211.7 Q 140.7 211.9, 140.0 211.9 Q 138.2 211.9, 137.3 210.8 Q 136.3 209.7, 136.3 207.7 " fill="#000000"/>
<path class="legend" d="M 143.5 206.8 L 148.8 206.8 L 148.8 207.6 L 143.5 207.6 L 143.5 206.8 M 143.5 209.3 L 148.8 209.3 L 148.8 210.1 L 143.5 210.1 L 143.5 209.3 " fill="#000000"/>
<path class="legend" d="M 150.3 207.7 Q 150.3 205.7, 151.2 204.6 Q 152.2 203.6, 154.0 203.6 Q 155.7 203.6, 156.5 204.8 L 155.8 205.4 Q 155.1 204.5, 154.0 204.5 Q 152.7 204.5, 152.1 205.3 Q 151.4 206.2, 151.4 207.7 Q 151.4 209.3, 152.1 210.2 Q 152.8 211.0, 154.1 211.0 Q 155.0 211.0, 156.0 210.4 L 156.4 211.3 Q 155.9 211.6, 155.3 211.7 Q 154.7 211.9, 153.9 211.9 Q 152.2 211.9, 151.2 210.8 Q 150.3 209.7, 150.3 207.7 " fill="#000000"/>
<path class="legend" d="M 160.4 203.3 L 161.4 203.3 L 158.4 212.5 L 157.5 212.5 L 160.4 203.3 " fill="#000000"/>
<path class="legend" d="M 162.2 207.7 Q 162.2 205.7, 163.2 204.6 Q 164.1 203.6, 165.9 203.6 Q 167.6 203.6, 168.5 204.8 L 167.7 205.4 Q 167.1 204.5, 165.9 204.5 Q 164.7 204.5, 164.0 205.3 Q 163.4 206.2, 163.4 207.7 Q 163.4 209.3, 164.0 210.2 Q 164.7 211.0, 166.0 211.0 Q 166.9 211.0, 168.0 210.4 L 168.3 211.3 Q 167.9 211.6, 167.2 211.7 Q 166.6 211.9, 165.9 211.9 Q 164.1 211.9, 163.2 210.8 Q 162.2 209.7, 162.2 207.7 " fill="#000000"/>
<path class="bond-0 atom-0 atom-1" d="M 433.3,66.0 L 433.3,133.3" style="fill:none;fill-rule:evenodd;stroke:#000000;stroke-width:2.0px;stroke-linecap:butt;stroke-linejoin:miter;stroke-opacity:1"/>
<path class="bond-1 atom-1 atom-2" d="M 433.3,133.3 L 375.0,167.0" style="fill:none;fill-rule:evenodd;stroke:#000000;stroke-width:2.0px;stroke-linecap:butt;stroke-linejoin:miter;stroke-opacity:1"/>
<path class="bond-1 atom-1 atom-2" d="M 423.2,127.5 L 375.0,155.4" style="fill:none;fill-rule:evenodd;stroke:#000000;stroke-width:2.0px;stroke-linecap:butt;stroke-linejoin:miter;stroke-opacity:1"/>
<path class="bond-2 atom-2 atom-3" d="M 375.0,167.0 L 316.7,133.4" style="fill:none;fill-rule:evenodd;stroke:#000000;stroke-width:2.0px;stroke-linecap:butt;stroke-linejoin:miter;stroke-opacity:1"/>
<path d="M 433.3,129.9 L 433.3,133.3 L 430.4,135.0" style="fill:none;stroke:#000000;stroke-width:2.0px;stroke-linecap:butt;stroke-linejoin:miter;stroke-miterlimit:10;stroke-opacity:1;"/>
<path d="M 377.9,165.3 L 375.0,167.0 L 372.1,165.4" style="fill:none;stroke:#000000;stroke-width:2.0px;stroke-linecap:butt;stroke-linejoin:miter;stroke-miterlimit:10;stroke-opacity:1;"/>
<path class="legend" d="M 348.5 195.1 L 349.4 195.1 L 349.4 202.3 L 348.5 202.3 L 348.5 195.1 " fill="#000000"/>
<path class="legend" d="M 351.0 201.2 Q 351.4 201.4, 351.7 201.5 Q 352.1 201.6, 352.4 201.6 Q 352.9 201.6, 353.2 201.4 Q 353.4 201.2, 353.4 200.8 Q 353.4 200.6, 353.3 200.4 Q 353.1 200.3, 353.0 200.2 Q 352.8 200.1, 352.3 200.0 Q 352.3 200.0, 351.8 199.8 Q 351.3 199.6, 351.1 199.3 Q 350.8 199.0, 350.8 198.4 Q 350.8 197.8, 351.3 197.4 Q 351.8 197.0, 352.8 197.0 Q 353.2 197.0, 353.5 197.1 Q 353.9 197.1, 354.2 197.3 L 354.0 198.1 Q 353.7 197.9, 353.4 197.8 Q 353.1 197.8, 352.8 197.8 Q 352.3 197.8, 352.0 197.9 Q 351.8 198.1, 351.8 198.4 Q 351.8 198.7, 352.0 198.9 Q 352.2 199.0, 352.6 199.1 Q 352.7 199.2, 352.8 199.2 L 353.1 199.3 Q 353.5 199.5, 353.7 199.6 Q 354.0 199.7, 354.2 200.0 Q 354.4 200.3, 354.4 200.8 Q 354.4 201.5, 353.8 202.0 Q 353.3 202.4, 352.4 202.4 Q 352.0 202.4, 351.5 202.3 Q 351.1 202.2, 350.7 202.0 L 351.0 201.2 " fill="#000000"/>
<path class="legend" d="M 355.3 199.7 Q 355.3 198.4, 355.9 197.7 Q 356.5 197.0, 357.7 197.0 Q 358.9 197.0, 359.6 197.7 Q 360.2 198.4, 360.2 199.7 Q 360.2 200.9, 359.6 201.7 Q 358.9 202.4, 357.7 202.4 Q 356.5 202.4, 355.9 201.7 Q 355.3 200.9, 355.3 199.7 M 356.2 199.7 Q 356.2 200.6, 356.6 201.1 Q 357.0 201.6, 357.7 201.6 Q 358.5 201.6, 358.8 201.1 Q 359.2 200.6, 359.2 199.7 Q 359.2 198.7, 358.8 198.2 Q 358.5 197.7, 357.7 197.7 Q 357.0 197.7, 356.6 198.2 Q 356.2 198.7, 356.2 199.7 " fill="#000000"/>
<path class="legend" d="M 367.1 197.0 Q 367.9 197.0, 368.4 197.4 Q 368.8 197.9, 368.8 198.8 L 368.8 202.3 L 367.9 202.3 L 367.9 198.9 Q 367.9 198.3, 367.6 198.0 Q 367.4 197.7, 366.9 197.7 Q 366.4 197.7, 366.0 197.9 Q 365.6 198.2, 365.4 198.5 Q 365.4 198.6, 365.4 198.8 L 365.4 202.3 L 364.5 202.3 L 364.5 198.9 Q 364.5 198.3, 364.2 198.0 Q 364.0 197.7, 363.5 197.7 Q 363.0 197.7, 362.6 197.9 Q 362.2 198.2, 362.0 198.5 L 362.0 202.3 L 361.0 202.3 L 361.0 197.1 L 361.8 197.1 L 361.9 197.8 Q 362.6 197.0, 363.6 197.0 Q 364.9 197.0, 365.3 197.9 Q 365.9 197.0, 367.1 197.0 " fill="#000000"/>
<path class="legend" d="M 370.0 199.7 Q 370.0 198.4, 370.6 197.7 Q 371.3 197.0, 372.4 197.0 Q 373.6 197.0, 374.1 197.7 Q 374.6 198.3, 374.6 199.6 L 374.6 199.8 L 370.9 199.8 Q 371.0 200.7, 371.4 201.1 Q 371.8 201.6, 372.5 201.6 Q 372.9 201.6, 373.3 201.5 Q 373.7 201.4, 374.1 201.2 L 374.4 201.9 Q 373.9 202.1, 373.4 202.3 Q 372.9 202.4, 372.5 202.4 Q 371.3 202.4, 370.6 201.7 Q 370.0 200.9, 370.0 199.7 M 372.4 197.7 Q 371.8 197.7, 371.5 198.1 Q 371.1 198.4, 371.0 199.1 L 373.6 199.1 Q 373.5 198.4, 373.2 198.1 Q 372.9 197.7, 372.4 197.7 " fill="#000000"/>
<path class="legend" d="M 376.1 197.1 L 376.2 197.8 Q 376.8 197.0, 377.7 197.0 Q 377.9 197.0, 378.3 197.1 L 378.2 197.9 Q 377.7 197.8, 377.5 197.8 Q 377.1 197.8, 376.8 198.0 Q 376.5 198.2, 376.3 198.5 L 376.3 202.3 L 375.3 202.3 L 375.3 197.1 L 376.1 197.1 " fill="#000000"/>
<path class="legend" d="" fill="#000000"/>
<path class="legend" d="M 389.1 197.8 L 387.7 197.8 L 387.4 199.6 L 388.8 199.6 L 388.7 200.4 L 387.3 200.4 L 387.0 202.3 L 386.2 202.3 L 386.5 200.4 L 384.8 200.4 L 384.5 202.3 L 383.6 202.3 L 384.0 200.4 L 382.6 200.4 L 382.7 199.6 L 384.1 199.6 L 384.4 197.8 L 383.0 197.8 L 383.1 197.1 L 384.5 197.1 L 384.9 195.1 L 385.7 195.1 L 385.3 197.1 L 387.1 197.1 L 387.4 195.1 L 388.2 195.1 L 387.9 197.1 L 389.3 197.1 L 389.1 197.8 M 386.6 199.6 L 386.9 197.8 L 385.2 197.8 L 384.9 199.6 L 386.6 199.6 " fill="#000000"/>
<path class="legend" d="M 389.8 201.1 L 390.8 201.1 L 390.8 202.1 L 389.8 202.1 L 389.8 201.1 M 389.8 197.6 L 390.8 197.6 L 390.8 198.6 L 389.8 198.6 L 389.8 197.6 " fill="#000000"/>
<path class="legend" d="" fill="#000000"/>
<path class="legend" d="M 395.7 196.4 Q 396.0 195.8, 396.6 195.4 Q 397.2 195.0, 398.1 195.0 Q 399.2 195.0, 399.8 195.6 Q 400.4 196.2, 400.4 197.2 Q 400.4 198.3, 399.6 199.3 Q 398.8 200.3, 397.2 201.5 L 400.5 201.5 L 400.5 202.3 L 395.7 202.3 L 395.7 201.6 Q 397.0 200.6, 397.8 199.9 Q 398.6 199.2, 399.0 198.6 Q 399.4 197.9, 399.4 197.3 Q 399.4 196.6, 399.0 196.2 Q 398.7 195.8, 398.1 195.8 Q 397.5 195.8, 397.1 196.0 Q 396.8 196.3, 396.5 196.8 L 395.7 196.4 " fill="#000000"/>
<path class="legend" d="M 335.4 209.4 Q 335.5 209.4, 335.8 209.6 Q 336.2 209.7, 336.5 209.8 Q 336.9 209.9, 337.3 209.9 Q 337.9 209.9, 338.3 209.6 Q 338.7 209.2, 338.7 208.7 Q 338.7 208.3, 338.5 208.0 Q 338.3 207.8, 338.0 207.6 Q 337.7 207.5, 337.2 207.4 Q 336.6 207.2, 336.2 207.0 Q 335.8 206.8, 335.5 206.4 Q 335.3 206.0, 335.3 205.4 Q 335.3 204.5, 335.9 203.9 Q 336.5 203.4, 337.7 203.4 Q 338.6 203.4, 339.5 203.8 L 339.3 204.5 Q 338.4 204.2, 337.8 204.2 Q 337.1 204.2, 336.7 204.5 Q 336.3 204.8, 336.3 205.3 Q 336.3 205.6, 336.5 205.9 Q 336.7 206.1, 337.0 206.2 Q 337.3 206.4, 337.8 206.5 Q 338.4 206.7, 338.8 206.9 Q 339.2 207.1, 339.5 207.6 Q 339.7 208.0, 339.7 208.7 Q 339.7 209.7, 339.1 210.2 Q 338.4 210.7, 337.3 210.7 Q 336.7 210.7, 336.2 210.6 Q 335.7 210.5, 335.1 210.2 L 335.4 209.4 " fill="#000000"/>
<path class="legend" d="M 348.9 210.5 L 347.9 210.5 L 347.2 204.6 L 345.2 210.5 L 344.3 210.5 L 342.3 204.6 L 341.6 210.5 L 340.6 210.5 L 341.6 203.3 L 342.8 203.3 L 344.8 209.1 L 346.7 203.3 L 347.9 203.3 L 348.9 210.5 " fill="#000000"/>
<path class="legend" d="M 349.9 203.3 L 350.9 203.3 L 350.9 210.5 L 349.9 210.5 L 349.9 203.3 " fill="#000000"/>
<path class="legend" d="M 352.2 203.3 L 353.2 203.3 L 353.2 209.7 L 356.5 209.7 L 356.5 210.5 L 352.2 210.5 L 352.2 203.3 " fill="#000000"/>
<path class="legend" d="M 357.2 203.3 L 361.5 203.3 L 361.5 204.2 L 358.2 204.2 L 358.2 206.3 L 361.1 206.3 L 361.1 207.2 L 358.2 207.2 L 358.2 209.7 L 361.6 209.7 L 361.6 210.5 L 357.2 210.5 L 357.2 203.3 " fill="#000000"/>
<path class="legend" d="M 362.8 209.4 Q 362.9 209.4, 363.2 209.6 Q 363.5 209.7, 363.9 209.8 Q 364.3 209.9, 364.6 209.9 Q 365.3 209.9, 365.7 209.6 Q 366.1 209.2, 366.1 208.7 Q 366.1 208.3, 365.9 208.0 Q 365.7 207.8, 365.4 207.6 Q 365.1 207.5, 364.6 207.4 Q 364.0 207.2, 363.6 207.0 Q 363.2 206.8, 362.9 206.4 Q 362.7 206.0, 362.7 205.4 Q 362.7 204.5, 363.3 203.9 Q 363.9 203.4, 365.1 203.4 Q 365.9 203.4, 366.9 203.8 L 366.7 204.5 Q 365.8 204.2, 365.1 204.2 Q 364.4 204.2, 364.1 204.5 Q 363.7 204.8, 363.7 205.3 Q 363.7 205.6, 363.9 205.9 Q 364.1 206.1, 364.4 206.2 Q 364.7 206.4, 365.1 206.5 Q 365.8 206.7, 366.2 206.9 Q 366.6 207.1, 366.8 207.6 Q 367.1 208.0, 367.1 208.7 Q 367.1 209.7, 366.5 210.2 Q 365.8 210.7, 364.7 210.7 Q 364.0 210.7, 363.6 210.6 Q 363.1 210.5, 362.5 210.2 L 362.8 209.4 " fill="#000000"/>
<path class="legend" d="M 368.0 209.3 L 369.0 209.3 L 369.0 210.4 L 368.0 210.4 L 368.0 209.3 M 368.0 205.8 L 369.0 205.8 L 369.0 206.9 L 368.0 206.9 L 368.0 205.8 " fill="#000000"/>
<path class="legend" d="" fill="#000000"/>
<path class="legend" d="M 374.0 206.9 Q 374.0 205.1, 374.9 204.2 Q 375.7 203.3, 377.3 203.3 Q 378.8 203.3, 379.6 204.3 L 378.9 204.9 Q 378.3 204.1, 377.3 204.1 Q 376.2 204.1, 375.6 204.8 Q 375.1 205.5, 375.1 206.9 Q 375.1 208.4, 375.7 209.1 Q 376.3 209.8, 377.4 209.8 Q 378.2 209.8, 379.1 209.3 L 379.4 210.1 Q 379.0 210.3, 378.5 210.5 Q 377.9 210.6, 377.3 210.6 Q 375.7 210.6, 374.9 209.7 Q 374.0 208.7, 374.0 206.9 " fill="#000000"/>
<path class="legend" d="M 383.0 203.0 L 383.9 203.0 L 381.2 211.2 L 380.4 211.2 L 383.0 203.0 " fill="#000000"/>
<path class="legend" d="M 384.6 206.9 Q 384.6 205.1, 385.4 204.2 Q 386.3 203.3, 387.9 203.3 Q 389.4 203.3, 390.2 204.3 L 389.5 204.9 Q 388.9 204.1, 387.9 204.1 Q 386.8 204.1, 386.2 204.8 Q 385.7 205.5, 385.7 206.9 Q 385.7 208.4, 386.2 209.1 Q 386.8 209.8, 388.0 209.8 Q 388.8 209.8, 389.7 209.3 L 390.0 210.1 Q 389.6 210.3, 389.1 210.5 Q 388.5 210.6, 387.9 210.6 Q 386.3 210.6, 385.4 209.7 Q 384.6 208.7, 384.6 206.9 " fill="#000000"/>
<path class="legend" d="M 391.0 206.1 L 395.7 206.1 L 395.7 206.8 L 391.0 206.8 L 391.0 206.1 M 391.0 208.3 L 395.7 208.3 L 395.7 209.0 L 391.0 209.0 L 391.0 208.3 " fill="#000000"/>
<path class="legend" d="M 397.0 206.9 Q 397.0 205.1, 397.8 204.2 Q 398.7 203.3, 400.3 203.3 Q 401.8 203.3, 402.6 204.3 L 401.9 204.9 Q 401.3 204.1, 400.3 204.1 Q 399.2 204.1, 398.6 204.8 Q 398.0 205.5, 398.0 206.9 Q 398.0 208.4, 398.6 209.1 Q 399.2 209.8, 400.4 209.8 Q 401.2 209.8, 402.1 209.3 L 402.4 210.1 Q 402.0 210.3, 401.4 210.5 Q 400.9 210.6, 400.2 210.6 Q 398.7 210.6, 397.8 209.7 Q 397.0 208.7, 397.0 206.9 " fill="#000000"/>
<path class="legend" d="M 403.4 202.4 L 404.3 202.4 L 408.1 212.5 L 407.2 212.5 L 403.4 202.4 " fill="#000000"/>
<path class="legend" d="M 408.3 206.9 Q 408.3 205.1, 409.2 204.2 Q 410.0 203.3, 411.6 203.3 Q 413.1 203.3, 413.9 204.3 L 413.2 204.9 Q 412.6 204.1, 411.6 204.1 Q 410.5 204.1, 409.9 204.8 Q 409.4 205.5, 409.4 206.9 Q 409.4 208.4, 410.0 209.1 Q 410.6 209.8, 411.7 209.8 Q 412.5 209.8, 413.4 209.3 L 413.7 210.1 Q 413.3 210.3, 412.8 210.5 Q 412.2 210.6, 411.6 210.6 Q 410.0 210.6, 409.2 209.7 Q 408.3 208.7, 408.3 206.9 " fill="#000000"/>
</svg>