<svg xmlns="http://www.w3.org/2000/svg" xmlns:rdkit="http://www.rdkit.org/xml" xmlns:xlink="http://www.w3.org/1999/xlink" version="1.1" baseProfile="full" xml:space="preserve" width="700px" height="800px" viewBox="0 0 700 800">
<!-- END OF HEADER -->
<rect style="opacity:1.0;fill:#FFFFFF;stroke:none" width="350.0" height="400.0" x="0.0" y="0.0"> </rect>
<path class="bond-0 atom-0 atom-1" d="M 77.7,239.9 L 102.9,225.4" style="fill:none;fill-rule:evenodd;stroke:#000000;stroke-width:2.0px;stroke-linecap:butt;stroke-linejoin:miter;stroke-opacity:1"/>
<path class="bond-1 atom-1 atom-2" d="M 102.9,225.4 L 102.9,196.3" style="fill:none;fill-rule:evenodd;stroke:#000000;stroke-width:2.0px;stroke-linecap:butt;stroke-linejoin:miter;stroke-opacity:1"/>
<path class="bond-2 atom-1 atom-3" d="M 102.9,225.4 L 128.0,240.0" style="fill:none;fill-rule:evenodd;stroke:#000000;stroke-width:2.0px;stroke-linecap:butt;stroke-linejoin:miter;stroke-opacity:1"/>
<path class="bond-3 atom-3 atom-4" d="M 128.0,240.0 L 153.2,225.5" style="fill:none;fill-rule:evenodd;stroke:#000000;stroke-width:2.0px;stroke-linecap:butt;stroke-linejoin:miter;stroke-opacity:1"/>
<path class="bond-4 atom-4 atom-5" d="M 153.2,225.5 L 178.4,240.0" style="fill:none;fill-rule:evenodd;stroke:#000000;stroke-width:2.0px;stroke-linecap:butt;stroke-linejoin:miter;stroke-opacity:1"/>
<path class="bond-4 atom-4 atom-5" d="M 157.6,222.9 L 178.4,235.0" style="fill:none;fill-rule:evenodd;stroke:#000000;stroke-width:2.0px;stroke-linecap:butt;stroke-linejoin:miter;stroke-opacity:1"/>
<path class="bond-5 atom-5 atom-6" d="M 178.4,240.0 L 203.6,225.5" style="fill:none;fill-rule:evenodd;stroke:#000000;stroke-width:2.0px;stroke-linecap:butt;stroke-linejoin:miter;stroke-opacity:1"/>
<path class="bond-6 atom-6 atom-7" d="M 203.6,225.5 L 203.6,196.4" style="fill:none;fill-rule:evenodd;stroke:#000000;stroke-width:2.0px;stroke-linecap:butt;stroke-linejoin:miter;stroke-opacity:1"/>
<path class="bond-6 atom-6 atom-7" d="M 199.3,223.0 L 199.3,198.9" style="fill:none;fill-rule:evenodd;stroke:#000000;stroke-width:2.0px;stroke-linecap:butt;stroke-linejoin:miter;stroke-opacity:1"/>
<path class="bond-7 atom-7 atom-8" d="M 203.6,196.4 L 228.8,181.9" style="fill:none;fill-rule:evenodd;stroke:#000000;stroke-width:2.0px;stroke-linecap:butt;stroke-linejoin:miter;stroke-opacity:1"/>
<path class="bond-8 atom-8 atom-9" d="M 228.8,181.9 L 254.0,196.4" style="fill:none;fill-rule:evenodd;stroke:#000000;stroke-width:2.0px;stroke-linecap:butt;stroke-linejoin:miter;stroke-opacity:1"/>
<path class="bond-9 atom-8 atom-10" d="M 228.8,181.9 L 228.9,152.8" style="fill:none;fill-rule:evenodd;stroke:#000000;stroke-width:2.0px;stroke-linecap:butt;stroke-linejoin:miter;stroke-opacity:1"/>
<path class="bond-10 atom-10 atom-11" d="M 231.1,151.5 L 221.2,145.9" style="fill:none;fill-rule:evenodd;stroke:#000000;stroke-width:2.0px;stroke-linecap:butt;stroke-linejoin:miter;stroke-opacity:1"/>
<path class="bond-10 atom-10 atom-11" d="M 221.2,145.9 L 211.4,140.2" style="fill:none;fill-rule:evenodd;stroke:#FF0000;stroke-width:2.0px;stroke-linecap:butt;stroke-linejoin:miter;stroke-opacity:1"/>
<path class="bond-10 atom-10 atom-11" d="M 228.9,155.3 L 219.1,149.6" style="fill:none;fill-rule:evenodd;stroke:#000000;stroke-width:2.0px;stroke-linecap:butt;stroke-linejoin:miter;stroke-opacity:1"/>
<path class="bond-10 atom-10 atom-11" d="M 219.1,149.6 L 209.2,144.0" style="fill:none;fill-rule:evenodd;stroke:#FF0000;stroke-width:2.0px;stroke-linecap:butt;stroke-linejoin:miter;stroke-opacity:1"/>
<path class="bond-11 atom-10 atom-12" d="M 228.9,152.8 L 238.2,147.4" style="fill:none;fill-rule:evenodd;stroke:#000000;stroke-width:2.0px;stroke-linecap:butt;stroke-linejoin:miter;stroke-opacity:1"/>
<path class="bond-11 atom-10 atom-12" d="M 238.2,147.4 L 247.4,142.1" style="fill:none;fill-rule:evenodd;stroke:#FF0000;stroke-width:2.0px;stroke-linecap:butt;stroke-linejoin:miter;stroke-opacity:1"/>
<path class="bond-12 atom-7 atom-13" d="M 203.6,196.4 L 178.5,181.8" style="fill:none;fill-rule:evenodd;stroke:#000000;stroke-width:2.0px;stroke-linecap:butt;stroke-linejoin:miter;stroke-opacity:1"/>
<path class="bond-13 atom-13 atom-14" d="M 178.5,181.8 L 153.3,196.4" style="fill:none;fill-rule:evenodd;stroke:#000000;stroke-width:2.0px;stroke-linecap:butt;stroke-linejoin:miter;stroke-opacity:1"/>
<path class="bond-13 atom-13 atom-14" d="M 178.5,186.9 L 157.6,198.9" style="fill:none;fill-rule:evenodd;stroke:#000000;stroke-width:2.0px;stroke-linecap:butt;stroke-linejoin:miter;stroke-opacity:1"/>
<path class="bond-14 atom-14 atom-4" d="M 153.3,196.4 L 153.2,225.5" style="fill:none;fill-rule:evenodd;stroke:#000000;stroke-width:2.0px;stroke-linecap:butt;stroke-linejoin:miter;stroke-opacity:1"/>
<path d="M 126.8,239.2 L 128.0,240.0 L 129.3,239.2" style="fill:none;stroke:#000000;stroke-width:2.0px;stroke-linecap:butt;stroke-linejoin:miter;stroke-miterlimit:10;stroke-opacity:1;"/>
<path d="M 177.2,239.3 L 178.4,240.0 L 179.7,239.3" style="fill:none;stroke:#000000;stroke-width:2.0px;stroke-linecap:butt;stroke-linejoin:miter;stroke-miterlimit:10;stroke-opacity:1;"/>
<path d="M 202.4,226.2 L 203.6,225.5 L 203.6,224.0" style="fill:none;stroke:#000000;stroke-width:2.0px;stroke-linecap:butt;stroke-linejoin:miter;stroke-miterlimit:10;stroke-opacity:1;"/>
<path d="M 228.9,154.2 L 228.9,152.8 L 229.3,152.5" style="fill:none;stroke:#000000;stroke-width:2.0px;stroke-linecap:butt;stroke-linejoin:miter;stroke-miterlimit:10;stroke-opacity:1;"/>
<path d="M 179.7,182.6 L 178.5,181.8 L 177.2,182.6" style="fill:none;stroke:#000000;stroke-width:2.0px;stroke-linecap:butt;stroke-linejoin:miter;stroke-miterlimit:10;stroke-opacity:1;"/>
<path d="M 154.5,195.6 L 153.3,196.4 L 153.3,197.8" style="fill:none;stroke:#000000;stroke-width:2.0px;stroke-linecap:butt;stroke-linejoin:miter;stroke-miterlimit:10;stroke-opacity:1;"/>
<path class="atom-11" d="M 198.0 138.3 Q 198.0 135.3, 199.5 133.6 Q 201.0 132.0, 203.7 132.0 Q 206.4 132.0, 207.9 133.6 Q 209.4 135.3, 209.4 138.3 Q 209.4 141.3, 207.9 143.0 Q 206.4 144.7, 203.7 144.7 Q 201.0 144.7, 199.5 143.0 Q 198.0 141.3, 198.0 138.3 M 203.7 143.3 Q 205.6 143.3, 206.6 142.0 Q 207.6 140.7, 207.6 138.3 Q 207.6 135.8, 206.6 134.6 Q 205.6 133.4, 203.7 133.4 Q 201.8 133.4, 200.8 134.6 Q 199.8 135.8, 199.8 138.3 Q 199.8 140.8, 200.8 142.0 Q 201.8 143.3, 203.7 143.3 " fill="#FF0000"/>
<path class="atom-12" d="M 248.4 138.3 Q 248.4 135.3, 249.9 133.7 Q 251.3 132.0, 254.1 132.0 Q 256.8 132.0, 258.3 133.7 Q 259.7 135.3, 259.7 138.3 Q 259.7 141.3, 258.3 143.0 Q 256.8 144.7, 254.1 144.7 Q 251.3 144.7, 249.9 143.0 Q 248.4 141.3, 248.4 138.3 M 254.1 143.3 Q 256.0 143.3, 257.0 142.1 Q 258.0 140.8, 258.0 138.3 Q 258.0 135.9, 257.0 134.7 Q 256.0 133.4, 254.1 133.4 Q 252.2 133.4, 251.2 134.6 Q 250.1 135.9, 250.1 138.3 Q 250.1 140.8, 251.2 142.1 Q 252.2 143.3, 254.1 143.3 " fill="#FF0000"/>
<path class="atom-12" d="M 261.7 132.2 L 263.3 132.2 L 263.3 137.4 L 269.7 137.4 L 269.7 132.2 L 271.3 132.2 L 271.3 144.5 L 269.7 144.5 L 269.7 138.8 L 263.3 138.8 L 263.3 144.5 L 261.7 144.5 L 261.7 132.2 " fill="#FF0000"/>
<path class="legend" d="M 150.1 316.2 Q 150.1 314.1, 151.0 313.1 Q 152.0 312.0, 153.8 312.0 Q 155.5 312.0, 156.4 313.2 L 155.6 313.8 Q 155.0 312.9, 153.8 312.9 Q 152.6 312.9, 151.9 313.8 Q 151.3 314.6, 151.3 316.2 Q 151.3 317.8, 151.9 318.6 Q 152.6 319.5, 153.9 319.5 Q 154.8 319.5, 155.9 318.9 L 156.2 319.8 Q 155.8 320.1, 155.1 320.2 Q 154.5 320.4, 153.8 320.4 Q 152.0 320.4, 151.0 319.3 Q 150.1 318.2, 150.1 316.2 " fill="#000000"/>
<path class="legend" d="M 157.3 312.1 L 158.4 312.1 L 158.4 320.3 L 157.3 320.3 L 157.3 312.1 " fill="#000000"/>
<path class="legend" d="M 162.5 312.1 Q 164.3 312.1, 165.3 313.2 Q 166.2 314.2, 166.2 316.2 Q 166.2 318.1, 165.2 319.2 Q 164.3 320.3, 162.5 320.3 L 159.8 320.3 L 159.8 312.1 L 162.5 312.1 M 162.5 319.4 Q 163.7 319.4, 164.4 318.6 Q 165.1 317.8, 165.1 316.2 Q 165.1 314.6, 164.4 313.8 Q 163.7 313.0, 162.5 313.0 L 160.9 313.0 L 160.9 319.4 L 162.5 319.4 " fill="#000000"/>
<path class="legend" d="M 167.2 318.9 L 168.3 318.9 L 168.3 320.1 L 167.2 320.1 L 167.2 318.9 M 167.2 315.0 L 168.3 315.0 L 168.3 316.1 L 167.2 316.1 L 167.2 315.0 " fill="#000000"/>
<path class="legend" d="" fill="#000000"/>
<path class="legend" d="M 177.8 316.0 Q 178.6 316.2, 179.0 316.7 Q 179.4 317.2, 179.4 318.0 Q 179.4 318.7, 179.0 319.3 Q 178.7 319.8, 178.0 320.1 Q 177.4 320.4, 176.6 320.4 Q 175.7 320.4, 175.0 320.1 Q 174.4 319.8, 173.9 319.2 L 174.5 318.5 Q 175.0 319.0, 175.5 319.3 Q 175.9 319.5, 176.6 319.5 Q 177.3 319.5, 177.8 319.1 Q 178.2 318.7, 178.2 318.0 Q 178.2 317.2, 177.7 316.8 Q 177.3 316.4, 176.3 316.4 L 175.7 316.4 L 175.7 315.6 L 176.2 315.6 Q 177.1 315.6, 177.6 315.2 Q 178.0 314.8, 178.0 314.1 Q 178.0 313.6, 177.7 313.3 Q 177.3 312.9, 176.6 312.9 Q 175.9 312.9, 175.5 313.2 Q 175.1 313.4, 174.7 314.0 L 173.9 313.6 Q 174.2 312.9, 174.9 312.5 Q 175.6 312.0, 176.6 312.0 Q 177.8 312.0, 178.5 312.6 Q 179.2 313.1, 179.2 314.1 Q 179.2 314.8, 178.8 315.2 Q 178.5 315.7, 177.8 316.0 " fill="#000000"/>
<path class="legend" d="M 183.7 315.2 Q 184.4 315.2, 185.0 315.5 Q 185.5 315.8, 185.8 316.4 Q 186.2 316.9, 186.2 317.6 Q 186.2 318.4, 185.8 319.1 Q 185.4 319.7, 184.8 320.0 Q 184.2 320.4, 183.4 320.4 Q 181.9 320.4, 181.2 319.4 Q 180.5 318.4, 180.5 316.4 Q 180.5 314.3, 181.4 313.1 Q 182.3 312.0, 184.0 312.0 Q 184.5 312.0, 185.0 312.1 Q 185.4 312.2, 185.8 312.5 L 185.4 313.3 Q 184.8 312.9, 184.0 312.9 Q 182.9 312.9, 182.3 313.7 Q 181.7 314.4, 181.6 316.0 Q 182.1 315.6, 182.6 315.4 Q 183.1 315.2, 183.7 315.2 M 183.4 319.4 Q 183.9 319.4, 184.2 319.2 Q 184.6 319.0, 184.8 318.6 Q 185.0 318.2, 185.0 317.7 Q 185.0 316.9, 184.6 316.5 Q 184.2 316.1, 183.5 316.1 Q 183.0 316.1, 182.5 316.3 Q 182.0 316.5, 181.6 316.8 Q 181.7 318.2, 182.1 318.8 Q 182.5 319.4, 183.4 319.4 " fill="#000000"/>
<path class="legend" d="M 191.5 313.0 L 187.2 313.0 L 187.2 312.1 L 192.6 312.1 L 192.6 312.9 L 189.3 320.3 L 188.2 320.3 L 191.5 313.0 " fill="#000000"/>
<path class="legend" d="M 193.4 313.6 Q 193.7 312.9, 194.4 312.4 Q 195.2 312.0, 196.1 312.0 Q 197.4 312.0, 198.1 312.7 Q 198.8 313.3, 198.8 314.5 Q 198.8 315.8, 197.9 316.9 Q 197.0 318.0, 195.1 319.4 L 198.9 319.4 L 198.9 320.3 L 193.4 320.3 L 193.4 319.5 Q 194.9 318.4, 195.8 317.6 Q 196.7 316.8, 197.2 316.1 Q 197.6 315.3, 197.6 314.6 Q 197.6 313.8, 197.2 313.4 Q 196.8 312.9, 196.1 312.9 Q 195.5 312.9, 195.0 313.2 Q 194.6 313.5, 194.3 314.0 L 193.4 313.6 " fill="#000000"/>
<path class="legend" d="M 151.1 328.7 L 150.1 328.7 L 149.2 322.0 L 147.0 328.7 L 145.9 328.7 L 143.7 322.0 L 142.8 328.7 L 141.8 328.7 L 142.8 320.5 L 144.2 320.5 L 146.5 327.1 L 148.7 320.5 L 150.1 320.5 L 151.1 328.7 " fill="#000000"/>
<path class="legend" d="M 162.6 320.5 L 163.7 320.5 L 161.5 328.7 L 159.8 328.7 L 158.1 321.9 L 156.3 328.7 L 154.6 328.7 L 152.4 320.5 L 153.5 320.5 L 155.4 327.7 L 157.3 320.5 L 158.8 320.5 L 160.7 327.7 L 162.6 320.5 " fill="#000000"/>
<path class="legend" d="M 164.5 327.3 L 165.7 327.3 L 165.7 328.5 L 164.5 328.5 L 164.5 327.3 M 164.5 323.4 L 165.7 323.4 L 165.7 324.5 L 164.5 324.5 L 164.5 323.4 " fill="#000000"/>
<path class="legend" d="" fill="#000000"/>
<path class="legend" d="M 171.5 322.0 Q 171.8 321.3, 172.5 320.8 Q 173.2 320.4, 174.2 320.4 Q 175.5 320.4, 176.1 321.1 Q 176.8 321.7, 176.8 322.9 Q 176.8 324.2, 175.9 325.3 Q 175.0 326.4, 173.2 327.8 L 177.0 327.8 L 177.0 328.7 L 171.5 328.7 L 171.5 327.9 Q 173.0 326.8, 173.9 326.0 Q 174.8 325.2, 175.2 324.5 Q 175.7 323.7, 175.7 323.0 Q 175.7 322.2, 175.3 321.8 Q 174.9 321.3, 174.2 321.3 Q 173.6 321.3, 173.1 321.6 Q 172.7 321.9, 172.4 322.5 L 171.5 322.0 " fill="#000000"/>
<path class="legend" d="M 181.2 328.8 Q 179.7 328.8, 178.9 327.7 Q 178.2 326.6, 178.2 324.6 Q 178.2 322.6, 178.9 321.5 Q 179.7 320.4, 181.2 320.4 Q 182.7 320.4, 183.4 321.5 Q 184.2 322.6, 184.2 324.6 Q 184.2 326.6, 183.4 327.7 Q 182.7 328.8, 181.2 328.8 M 181.2 327.9 Q 182.1 327.9, 182.6 327.0 Q 183.0 326.2, 183.0 324.6 Q 183.0 323.0, 182.6 322.2 Q 182.1 321.3, 181.2 321.3 Q 180.3 321.3, 179.8 322.2 Q 179.3 323.0, 179.3 324.6 Q 179.3 326.2, 179.8 327.0 Q 180.3 327.9, 181.2 327.9 " fill="#000000"/>
<path class="legend" d="M 188.7 323.6 Q 189.4 323.6, 189.9 323.9 Q 190.5 324.2, 190.8 324.8 Q 191.1 325.3, 191.1 326.1 Q 191.1 326.9, 190.8 327.5 Q 190.4 328.1, 189.8 328.4 Q 189.2 328.8, 188.4 328.8 Q 186.9 328.8, 186.2 327.8 Q 185.5 326.8, 185.5 324.8 Q 185.5 322.7, 186.4 321.5 Q 187.3 320.4, 189.0 320.4 Q 189.5 320.4, 190.0 320.5 Q 190.4 320.6, 190.8 320.9 L 190.4 321.7 Q 189.8 321.3, 189.0 321.3 Q 187.9 321.3, 187.3 322.1 Q 186.7 322.8, 186.6 324.4 Q 187.0 324.0, 187.6 323.8 Q 188.1 323.6, 188.7 323.6 M 188.4 327.8 Q 188.8 327.8, 189.2 327.6 Q 189.6 327.4, 189.8 327.0 Q 190.0 326.6, 190.0 326.1 Q 190.0 325.3, 189.6 324.9 Q 189.2 324.5, 188.5 324.5 Q 188.0 324.5, 187.5 324.7 Q 187.0 324.9, 186.6 325.3 Q 186.7 326.6, 187.1 327.2 Q 187.5 327.8, 188.4 327.8 " fill="#000000"/>
<path class="legend" d="M 192.3 327.5 L 193.4 327.5 L 193.4 328.7 L 192.3 328.7 L 192.3 327.5 " fill="#000000"/>
<path class="legend" d="M 194.7 322.0 Q 195.0 321.3, 195.8 320.8 Q 196.5 320.4, 197.5 320.4 Q 198.7 320.4, 199.4 321.1 Q 200.1 321.7, 200.1 322.9 Q 200.1 324.2, 199.2 325.3 Q 198.3 326.4, 196.5 327.8 L 200.2 327.8 L 200.2 328.7 L 194.7 328.7 L 194.7 327.9 Q 196.2 326.8, 197.1 326.0 Q 198.1 325.2, 198.5 324.5 Q 198.9 323.7, 198.9 323.0 Q 198.9 322.2, 198.5 321.8 Q 198.2 321.3, 197.5 321.3 Q 196.8 321.3, 196.4 321.6 Q 195.9 321.9, 195.6 322.5 L 194.7 322.0 " fill="#000000"/>
<path class="legend" d="M 205.6 324.4 Q 206.4 324.7, 206.8 325.2 Q 207.2 325.6, 207.2 326.4 Q 207.2 327.1, 206.9 327.7 Q 206.5 328.2, 205.9 328.5 Q 205.2 328.8, 204.4 328.8 Q 203.0 328.8, 202.2 328.2 Q 201.4 327.5, 201.4 326.4 Q 201.4 325.8, 201.8 325.3 Q 202.1 324.8, 202.9 324.4 Q 202.3 324.1, 202.0 323.6 Q 201.7 323.2, 201.7 322.5 Q 201.7 321.5, 202.4 321.0 Q 203.1 320.4, 204.3 320.4 Q 205.5 320.4, 206.2 321.0 Q 206.9 321.5, 206.9 322.5 Q 206.9 323.1, 206.6 323.6 Q 206.3 324.0, 205.6 324.4 M 204.3 321.3 Q 203.7 321.3, 203.3 321.6 Q 202.9 321.9, 202.9 322.5 Q 202.9 322.9, 203.2 323.2 Q 203.4 323.5, 203.8 323.7 Q 204.1 323.8, 204.8 324.1 Q 205.3 323.7, 205.6 323.3 Q 205.8 323.0, 205.8 322.5 Q 205.8 321.9, 205.4 321.6 Q 205.0 321.3, 204.3 321.3 M 204.4 327.9 Q 205.1 327.9, 205.6 327.5 Q 206.1 327.1, 206.1 326.4 Q 206.1 326.0, 205.8 325.7 Q 205.6 325.4, 205.2 325.3 Q 204.9 325.1, 204.2 324.9 L 203.7 324.7 Q 203.1 325.1, 202.9 325.5 Q 202.6 325.9, 202.6 326.4 Q 202.6 327.1, 203.1 327.5 Q 203.6 327.9, 204.4 327.9 " fill="#000000"/>
<path class="legend" d="M 147.8 328.9 L 148.9 328.9 L 148.9 336.1 L 152.7 336.1 L 152.7 337.1 L 147.8 337.1 L 147.8 328.9 " fill="#000000"/>
<path class="legend" d="M 153.4 334.1 Q 153.4 332.7, 154.2 331.9 Q 154.9 331.0, 156.2 331.0 Q 157.6 331.0, 158.3 331.9 Q 159.1 332.7, 159.1 334.1 Q 159.1 335.6, 158.3 336.4 Q 157.6 337.2, 156.2 337.2 Q 154.9 337.2, 154.2 336.4 Q 153.4 335.6, 153.4 334.1 M 154.5 334.1 Q 154.5 335.2, 155.0 335.8 Q 155.4 336.3, 156.2 336.3 Q 157.1 336.3, 157.5 335.8 Q 158.0 335.2, 158.0 334.1 Q 158.0 333.0, 157.5 332.5 Q 157.1 331.9, 156.2 331.9 Q 155.4 331.9, 155.0 332.5 Q 154.5 333.0, 154.5 334.1 " fill="#000000"/>
<path class="legend" d="M 165.4 331.1 L 165.4 337.4 Q 165.4 340.0, 162.7 340.0 Q 161.4 340.0, 160.2 339.4 L 160.6 338.6 Q 161.2 338.9, 161.7 339.0 Q 162.1 339.1, 162.7 339.1 Q 163.6 339.1, 163.9 338.7 Q 164.3 338.4, 164.3 337.5 L 164.3 336.4 Q 163.7 337.2, 162.6 337.2 Q 161.4 337.2, 160.7 336.4 Q 160.0 335.6, 160.0 334.2 Q 160.0 332.7, 160.8 331.9 Q 161.6 331.0, 163.1 331.0 Q 163.8 331.0, 164.5 331.3 L 164.5 331.1 L 165.4 331.1 M 162.7 336.3 Q 163.3 336.3, 163.7 336.0 Q 164.2 335.7, 164.3 335.1 L 164.3 332.1 Q 163.7 331.9, 163.1 331.9 Q 162.2 331.9, 161.6 332.5 Q 161.1 333.1, 161.1 334.2 Q 161.1 335.2, 161.5 335.8 Q 161.9 336.3, 162.7 336.3 " fill="#000000"/>
<path class="legend" d="M 169.2 328.9 Q 170.6 328.9, 171.3 329.5 Q 172.0 330.2, 172.0 331.3 Q 172.0 332.4, 171.3 333.1 Q 170.6 333.7, 169.2 333.7 L 167.9 333.7 L 167.9 337.1 L 166.8 337.1 L 166.8 328.9 L 169.2 328.9 M 169.2 332.8 Q 170.0 332.8, 170.4 332.4 Q 170.9 332.0, 170.9 331.3 Q 170.9 330.6, 170.4 330.2 Q 170.0 329.8, 169.2 329.8 L 167.9 329.8 L 167.9 332.8 L 169.2 332.8 " fill="#000000"/>
<path class="legend" d="M 173.0 335.7 L 174.1 335.7 L 174.1 336.9 L 173.0 336.9 L 173.0 335.7 M 173.0 331.8 L 174.1 331.8 L 174.1 332.9 L 173.0 332.9 L 173.0 331.8 " fill="#000000"/>
<path class="legend" d="" fill="#000000"/>
<path class="legend" d="M 183.6 332.8 Q 184.4 333.0, 184.8 333.5 Q 185.2 334.0, 185.2 334.8 Q 185.2 335.5, 184.8 336.1 Q 184.5 336.6, 183.8 336.9 Q 183.2 337.2, 182.4 337.2 Q 181.5 337.2, 180.8 336.9 Q 180.2 336.6, 179.7 336.0 L 180.3 335.3 Q 180.8 335.9, 181.2 336.1 Q 181.7 336.3, 182.4 336.3 Q 183.1 336.3, 183.6 335.9 Q 184.0 335.5, 184.0 334.8 Q 184.0 334.0, 183.5 333.6 Q 183.1 333.3, 182.1 333.3 L 181.5 333.3 L 181.5 332.4 L 182.0 332.4 Q 182.9 332.4, 183.4 332.0 Q 183.8 331.6, 183.8 330.9 Q 183.8 330.4, 183.4 330.1 Q 183.0 329.7, 182.4 329.7 Q 181.7 329.7, 181.3 330.0 Q 180.8 330.2, 180.5 330.8 L 179.7 330.4 Q 180.0 329.7, 180.7 329.3 Q 181.4 328.8, 182.4 328.8 Q 183.6 328.8, 184.3 329.4 Q 185.0 329.9, 185.0 330.9 Q 185.0 331.6, 184.6 332.0 Q 184.3 332.5, 183.6 332.8 " fill="#000000"/>
<path class="legend" d="M 186.2 335.9 L 187.4 335.9 L 187.4 337.1 L 186.2 337.1 L 186.2 335.9 " fill="#000000"/>
<path class="legend" d="M 191.6 337.2 Q 190.1 337.2, 189.3 336.1 Q 188.6 335.0, 188.6 333.0 Q 188.6 331.0, 189.3 329.9 Q 190.0 328.8, 191.6 328.8 Q 193.1 328.8, 193.8 329.9 Q 194.6 331.0, 194.6 333.0 Q 194.6 335.0, 193.8 336.1 Q 193.1 337.2, 191.6 337.2 M 191.6 336.3 Q 192.5 336.3, 192.9 335.4 Q 193.4 334.6, 193.4 333.0 Q 193.4 331.4, 192.9 330.6 Q 192.5 329.7, 191.6 329.7 Q 190.7 329.7, 190.2 330.6 Q 189.7 331.4, 189.7 333.0 Q 189.7 334.6, 190.2 335.4 Q 190.7 336.3, 191.6 336.3 " fill="#000000"/>
<path class="legend" d="M 200.0 329.8 L 195.7 329.8 L 195.7 328.9 L 201.2 328.9 L 201.2 329.7 L 197.8 337.1 L 196.7 337.1 L 200.0 329.8 " fill="#000000"/>
<path class="bond-0 atom-0 atom-1" d="M 457.8,219.0 L 483.0,233.6" style="fill:none;fill-rule:evenodd;stroke:#000000;stroke-width:2.0px;stroke-linecap:butt;stroke-linejoin:miter;stroke-opacity:1"/>
<path class="bond-1 atom-1 atom-2" d="M 483.0,233.6 L 482.9,262.6" style="fill:none;fill-rule:evenodd;stroke:#000000;stroke-width:2.0px;stroke-linecap:butt;stroke-linejoin:miter;stroke-opacity:1"/>
<path class="bond-2 atom-2 atom-3" d="M 480.7,263.9 L 490.5,269.6" style="fill:none;fill-rule:evenodd;stroke:#000000;stroke-width:2.0px;stroke-linecap:butt;stroke-linejoin:miter;stroke-opacity:1"/>
<path class="bond-2 atom-2 atom-3" d="M 490.5,269.6 L 500.3,275.3" style="fill:none;fill-rule:evenodd;stroke:#FF0000;stroke-width:2.0px;stroke-linecap:butt;stroke-linejoin:miter;stroke-opacity:1"/>
<path class="bond-2 atom-2 atom-3" d="M 482.9,260.1 L 492.7,265.8" style="fill:none;fill-rule:evenodd;stroke:#000000;stroke-width:2.0px;stroke-linecap:butt;stroke-linejoin:miter;stroke-opacity:1"/>
<path class="bond-2 atom-2 atom-3" d="M 492.7,265.8 L 502.5,271.5" style="fill:none;fill-rule:evenodd;stroke:#FF0000;stroke-width:2.0px;stroke-linecap:butt;stroke-linejoin:miter;stroke-opacity:1"/>
<path class="bond-3 atom-2 atom-4" d="M 482.9,262.6 L 473.6,268.0" style="fill:none;fill-rule:evenodd;stroke:#000000;stroke-width:2.0px;stroke-linecap:butt;stroke-linejoin:miter;stroke-opacity:1"/>
<path class="bond-3 atom-2 atom-4" d="M 473.6,268.0 L 464.3,273.3" style="fill:none;fill-rule:evenodd;stroke:#FF0000;stroke-width:2.0px;stroke-linecap:butt;stroke-linejoin:miter;stroke-opacity:1"/>
<path class="bond-4 atom-1 atom-5" d="M 483.0,233.6 L 508.2,219.1" style="fill:none;fill-rule:evenodd;stroke:#000000;stroke-width:2.0px;stroke-linecap:butt;stroke-linejoin:miter;stroke-opacity:1"/>
<path class="bond-5 atom-5 atom-6" d="M 508.2,219.1 L 533.3,233.7" style="fill:none;fill-rule:evenodd;stroke:#000000;stroke-width:2.0px;stroke-linecap:butt;stroke-linejoin:miter;stroke-opacity:1"/>
<path class="bond-5 atom-5 atom-6" d="M 512.6,216.6 L 533.4,228.6" style="fill:none;fill-rule:evenodd;stroke:#000000;stroke-width:2.0px;stroke-linecap:butt;stroke-linejoin:miter;stroke-opacity:1"/>
<path class="bond-6 atom-6 atom-7" d="M 533.3,233.7 L 558.6,219.2" style="fill:none;fill-rule:evenodd;stroke:#000000;stroke-width:2.0px;stroke-linecap:butt;stroke-linejoin:miter;stroke-opacity:1"/>
<path class="bond-7 atom-7 atom-8" d="M 558.6,219.2 L 558.6,190.1" style="fill:none;fill-rule:evenodd;stroke:#000000;stroke-width:2.0px;stroke-linecap:butt;stroke-linejoin:miter;stroke-opacity:1"/>
<path class="bond-7 atom-7 atom-8" d="M 554.2,216.6 L 554.3,192.6" style="fill:none;fill-rule:evenodd;stroke:#000000;stroke-width:2.0px;stroke-linecap:butt;stroke-linejoin:miter;stroke-opacity:1"/>
<path class="bond-8 atom-8 atom-9" d="M 558.6,190.1 L 533.5,175.5" style="fill:none;fill-rule:evenodd;stroke:#000000;stroke-width:2.0px;stroke-linecap:butt;stroke-linejoin:miter;stroke-opacity:1"/>
<path class="bond-9 atom-9 atom-10" d="M 533.5,175.5 L 533.5,146.4" style="fill:none;fill-rule:evenodd;stroke:#000000;stroke-width:2.0px;stroke-linecap:butt;stroke-linejoin:miter;stroke-opacity:1"/>
<path class="bond-10 atom-10 atom-11" d="M 535.7,145.1 L 525.9,139.5" style="fill:none;fill-rule:evenodd;stroke:#000000;stroke-width:2.0px;stroke-linecap:butt;stroke-linejoin:miter;stroke-opacity:1"/>
<path class="bond-10 atom-10 atom-11" d="M 525.9,139.5 L 516.1,133.8" style="fill:none;fill-rule:evenodd;stroke:#FF0000;stroke-width:2.0px;stroke-linecap:butt;stroke-linejoin:miter;stroke-opacity:1"/>
<path class="bond-10 atom-10 atom-11" d="M 533.5,148.9 L 523.7,143.2" style="fill:none;fill-rule:evenodd;stroke:#000000;stroke-width:2.0px;stroke-linecap:butt;stroke-linejoin:miter;stroke-opacity:1"/>
<path class="bond-10 atom-10 atom-11" d="M 523.7,143.2 L 513.9,137.5" style="fill:none;fill-rule:evenodd;stroke:#FF0000;stroke-width:2.0px;stroke-linecap:butt;stroke-linejoin:miter;stroke-opacity:1"/>
<path class="bond-11 atom-10 atom-12" d="M 533.5,146.4 L 558.7,131.9" style="fill:none;fill-rule:evenodd;stroke:#000000;stroke-width:2.0px;stroke-linecap:butt;stroke-linejoin:miter;stroke-opacity:1"/>
<path class="bond-12 atom-12 atom-13" d="M 558.7,131.9 L 583.9,146.5" style="fill:none;fill-rule:evenodd;stroke:#000000;stroke-width:2.0px;stroke-linecap:butt;stroke-linejoin:miter;stroke-opacity:1"/>
<path class="bond-12 atom-12 atom-13" d="M 563.1,129.4 L 583.9,141.5" style="fill:none;fill-rule:evenodd;stroke:#000000;stroke-width:2.0px;stroke-linecap:butt;stroke-linejoin:miter;stroke-opacity:1"/>
<path class="bond-13 atom-13 atom-14" d="M 583.9,146.5 L 609.1,132.0" style="fill:none;fill-rule:evenodd;stroke:#000000;stroke-width:2.0px;stroke-linecap:butt;stroke-linejoin:miter;stroke-opacity:1"/>
<path class="bond-14 atom-14 atom-15" d="M 609.1,132.0 L 609.2,102.9" style="fill:none;fill-rule:evenodd;stroke:#000000;stroke-width:2.0px;stroke-linecap:butt;stroke-linejoin:miter;stroke-opacity:1"/>
<path class="bond-14 atom-14 atom-15" d="M 604.8,129.5 L 604.8,105.4" style="fill:none;fill-rule:evenodd;stroke:#000000;stroke-width:2.0px;stroke-linecap:butt;stroke-linejoin:miter;stroke-opacity:1"/>
<path class="bond-15 atom-15 atom-16" d="M 609.2,102.9 L 584.0,88.3" style="fill:none;fill-rule:evenodd;stroke:#000000;stroke-width:2.0px;stroke-linecap:butt;stroke-linejoin:miter;stroke-opacity:1"/>
<path class="bond-16 atom-16 atom-17" d="M 584.0,88.3 L 558.8,102.8" style="fill:none;fill-rule:evenodd;stroke:#000000;stroke-width:2.0px;stroke-linecap:butt;stroke-linejoin:miter;stroke-opacity:1"/>
<path class="bond-16 atom-16 atom-17" d="M 584.0,93.4 L 563.2,105.3" style="fill:none;fill-rule:evenodd;stroke:#000000;stroke-width:2.0px;stroke-linecap:butt;stroke-linejoin:miter;stroke-opacity:1"/>
<path class="bond-17 atom-9 atom-18" d="M 533.5,175.5 L 508.2,190.0" style="fill:none;fill-rule:evenodd;stroke:#000000;stroke-width:2.0px;stroke-linecap:butt;stroke-linejoin:miter;stroke-opacity:1"/>
<path class="bond-17 atom-9 atom-18" d="M 533.5,180.5 L 512.6,192.5" style="fill:none;fill-rule:evenodd;stroke:#000000;stroke-width:2.0px;stroke-linecap:butt;stroke-linejoin:miter;stroke-opacity:1"/>
<path class="bond-18 atom-18 atom-5" d="M 508.2,190.0 L 508.2,219.1" style="fill:none;fill-rule:evenodd;stroke:#000000;stroke-width:2.0px;stroke-linecap:butt;stroke-linejoin:miter;stroke-opacity:1"/>
<path class="bond-19 atom-17 atom-12" d="M 558.8,102.8 L 558.7,131.9" style="fill:none;fill-rule:evenodd;stroke:#000000;stroke-width:2.0px;stroke-linecap:butt;stroke-linejoin:miter;stroke-opacity:1"/>
<path d="M 482.9,261.2 L 482.9,262.6 L 482.4,262.9" style="fill:none;stroke:#000000;stroke-width:2.0px;stroke-linecap:butt;stroke-linejoin:miter;stroke-miterlimit:10;stroke-opacity:1;"/>
<path d="M 532.1,232.9 L 533.3,233.7 L 534.6,232.9" style="fill:none;stroke:#000000;stroke-width:2.0px;stroke-linecap:butt;stroke-linejoin:miter;stroke-miterlimit:10;stroke-opacity:1;"/>
<path d="M 557.3,219.9 L 558.6,219.2 L 558.6,217.7" style="fill:none;stroke:#000000;stroke-width:2.0px;stroke-linecap:butt;stroke-linejoin:miter;stroke-miterlimit:10;stroke-opacity:1;"/>
<path d="M 558.6,191.5 L 558.6,190.1 L 557.4,189.4" style="fill:none;stroke:#000000;stroke-width:2.0px;stroke-linecap:butt;stroke-linejoin:miter;stroke-miterlimit:10;stroke-opacity:1;"/>
<path d="M 533.5,147.9 L 533.5,146.4 L 534.8,145.7" style="fill:none;stroke:#000000;stroke-width:2.0px;stroke-linecap:butt;stroke-linejoin:miter;stroke-miterlimit:10;stroke-opacity:1;"/>
<path d="M 582.6,145.8 L 583.9,146.5 L 585.2,145.8" style="fill:none;stroke:#000000;stroke-width:2.0px;stroke-linecap:butt;stroke-linejoin:miter;stroke-miterlimit:10;stroke-opacity:1;"/>
<path d="M 607.9,132.7 L 609.1,132.0 L 609.1,130.6" style="fill:none;stroke:#000000;stroke-width:2.0px;stroke-linecap:butt;stroke-linejoin:miter;stroke-miterlimit:10;stroke-opacity:1;"/>
<path d="M 609.2,104.4 L 609.2,102.9 L 607.9,102.2" style="fill:none;stroke:#000000;stroke-width:2.0px;stroke-linecap:butt;stroke-linejoin:miter;stroke-miterlimit:10;stroke-opacity:1;"/>
<path d="M 585.3,89.1 L 584.0,88.3 L 582.8,89.0" style="fill:none;stroke:#000000;stroke-width:2.0px;stroke-linecap:butt;stroke-linejoin:miter;stroke-miterlimit:10;stroke-opacity:1;"/>
<path d="M 560.1,102.1 L 558.8,102.8 L 558.8,104.3" style="fill:none;stroke:#000000;stroke-width:2.0px;stroke-linecap:butt;stroke-linejoin:miter;stroke-miterlimit:10;stroke-opacity:1;"/>
<path d="M 509.5,189.3 L 508.2,190.0 L 508.2,191.4" style="fill:none;stroke:#000000;stroke-width:2.0px;stroke-linecap:butt;stroke-linejoin:miter;stroke-miterlimit:10;stroke-opacity:1;"/>
<path class="atom-3" d="M 502.4 277.3 Q 502.4 274.3, 503.9 272.6 Q 505.3 271.0, 508.1 271.0 Q 510.8 271.0, 512.3 272.6 Q 513.7 274.3, 513.7 277.3 Q 513.7 280.3, 512.3 282.0 Q 510.8 283.7, 508.1 283.7 Q 505.3 283.7, 503.9 282.0 Q 502.4 280.3, 502.4 277.3 M 508.1 282.3 Q 510.0 282.3, 511.0 281.0 Q 512.0 279.7, 512.0 277.3 Q 512.0 274.8, 511.0 273.6 Q 510.0 272.4, 508.1 272.4 Q 506.2 272.4, 505.2 273.6 Q 504.1 274.8, 504.1 277.3 Q 504.1 279.8, 505.2 281.0 Q 506.2 282.3, 508.1 282.3 " fill="#FF0000"/>
<path class="atom-4" d="M 439.8 271.0 L 441.5 271.0 L 441.5 276.3 L 447.8 276.3 L 447.8 271.0 L 449.5 271.0 L 449.5 283.4 L 447.8 283.4 L 447.8 277.7 L 441.5 277.7 L 441.5 283.4 L 439.8 283.4 L 439.8 271.0 " fill="#FF0000"/>
<path class="atom-4" d="M 452.0 277.2 Q 452.0 274.2, 453.5 272.5 Q 455.0 270.9, 457.7 270.9 Q 460.4 270.9, 461.9 272.5 Q 463.4 274.2, 463.4 277.2 Q 463.4 280.2, 461.9 281.9 Q 460.4 283.6, 457.7 283.6 Q 455.0 283.6, 453.5 281.9 Q 452.0 280.2, 452.0 277.2 M 457.7 282.2 Q 459.6 282.2, 460.6 280.9 Q 461.6 279.6, 461.6 277.2 Q 461.6 274.7, 460.6 273.5 Q 459.6 272.3, 457.7 272.3 Q 455.8 272.3, 454.8 273.5 Q 453.8 274.7, 453.8 277.2 Q 453.8 279.7, 454.8 280.9 Q 455.8 282.2, 457.7 282.2 " fill="#FF0000"/>
<path class="atom-11" d="M 502.7 131.8 Q 502.7 128.9, 504.2 127.2 Q 505.6 125.6, 508.4 125.6 Q 511.1 125.6, 512.6 127.2 Q 514.0 128.9, 514.0 131.8 Q 514.0 134.8, 512.6 136.5 Q 511.1 138.2, 508.4 138.2 Q 505.6 138.2, 504.2 136.5 Q 502.7 134.9, 502.7 131.8 M 508.4 136.8 Q 510.3 136.8, 511.3 135.6 Q 512.3 134.3, 512.3 131.8 Q 512.3 129.4, 511.3 128.2 Q 510.3 127.0, 508.4 127.0 Q 506.5 127.0, 505.5 128.2 Q 504.4 129.4, 504.4 131.8 Q 504.4 134.3, 505.5 135.6 Q 506.5 136.8, 508.4 136.8 " fill="#FF0000"/>
<path class="legend" d="M 499.7 316.2 Q 499.7 314.1, 500.7 313.1 Q 501.7 312.0, 503.5 312.0 Q 505.2 312.0, 506.1 313.2 L 505.3 313.8 Q 504.6 312.9, 503.5 312.9 Q 502.2 312.9, 501.6 313.8 Q 500.9 314.6, 500.9 316.2 Q 500.9 317.8, 501.6 318.6 Q 502.3 319.5, 503.6 319.5 Q 504.5 319.5, 505.6 318.9 L 505.9 319.8 Q 505.5 320.1, 504.8 320.2 Q 504.2 320.4, 503.4 320.4 Q 501.7 320.4, 500.7 319.3 Q 499.7 318.2, 499.7 316.2 " fill="#000000"/>
<path class="legend" d="M 506.9 312.1 L 508.0 312.1 L 508.0 320.3 L 506.9 320.3 L 506.9 312.1 " fill="#000000"/>
<path class="legend" d="M 512.1 312.1 Q 513.9 312.1, 514.9 313.2 Q 515.9 314.2, 515.9 316.2 Q 515.9 318.1, 514.9 319.2 Q 513.9 320.3, 512.1 320.3 L 509.5 320.3 L 509.5 312.1 L 512.1 312.1 M 512.1 319.4 Q 513.4 319.4, 514.0 318.6 Q 514.7 317.8, 514.7 316.2 Q 514.7 314.6, 514.0 313.8 Q 513.4 313.0, 512.1 313.0 L 510.6 313.0 L 510.6 319.4 L 512.1 319.4 " fill="#000000"/>
<path class="legend" d="M 516.8 318.9 L 518.0 318.9 L 518.0 320.1 L 516.8 320.1 L 516.8 318.9 M 516.8 315.0 L 518.0 315.0 L 518.0 316.1 L 516.8 316.1 L 516.8 315.0 " fill="#000000"/>
<path class="legend" d="" fill="#000000"/>
<path class="legend" d="M 527.5 316.0 Q 528.3 316.2, 528.7 316.7 Q 529.0 317.2, 529.0 318.0 Q 529.0 318.7, 528.7 319.3 Q 528.4 319.8, 527.7 320.1 Q 527.1 320.4, 526.2 320.4 Q 525.4 320.4, 524.7 320.1 Q 524.1 319.8, 523.5 319.2 L 524.2 318.5 Q 524.7 319.0, 525.1 319.3 Q 525.6 319.5, 526.2 319.5 Q 527.0 319.5, 527.4 319.1 Q 527.9 318.7, 527.9 318.0 Q 527.9 317.2, 527.4 316.8 Q 527.0 316.4, 525.9 316.4 L 525.4 316.4 L 525.4 315.6 L 525.9 315.6 Q 526.8 315.6, 527.2 315.2 Q 527.7 314.8, 527.7 314.1 Q 527.7 313.6, 527.3 313.3 Q 526.9 312.9, 526.3 312.9 Q 525.6 312.9, 525.1 313.2 Q 524.7 313.4, 524.4 314.0 L 523.6 313.6 Q 523.9 312.9, 524.6 312.5 Q 525.3 312.0, 526.3 312.0 Q 527.5 312.0, 528.2 312.6 Q 528.9 313.1, 528.9 314.1 Q 528.9 314.8, 528.5 315.2 Q 528.2 315.7, 527.5 316.0 " fill="#000000"/>
<path class="legend" d="M 534.3 315.9 Q 535.1 316.3, 535.5 316.8 Q 535.9 317.2, 535.9 318.0 Q 535.9 318.7, 535.6 319.3 Q 535.2 319.8, 534.6 320.1 Q 533.9 320.4, 533.1 320.4 Q 531.7 320.4, 530.9 319.8 Q 530.1 319.1, 530.1 318.0 Q 530.1 317.4, 530.5 316.9 Q 530.8 316.4, 531.6 316.0 Q 531.0 315.7, 530.7 315.2 Q 530.4 314.8, 530.4 314.1 Q 530.4 313.1, 531.1 312.6 Q 531.8 312.0, 533.0 312.0 Q 534.2 312.0, 534.9 312.6 Q 535.6 313.1, 535.6 314.1 Q 535.6 314.7, 535.3 315.1 Q 535.0 315.6, 534.3 315.9 M 533.0 312.9 Q 532.4 312.9, 532.0 313.2 Q 531.6 313.5, 531.6 314.1 Q 531.6 314.5, 531.9 314.8 Q 532.1 315.1, 532.5 315.3 Q 532.8 315.4, 533.6 315.7 Q 534.0 315.3, 534.3 314.9 Q 534.5 314.6, 534.5 314.1 Q 534.5 313.5, 534.1 313.2 Q 533.7 312.9, 533.0 312.9 M 533.1 319.5 Q 533.9 319.5, 534.3 319.1 Q 534.8 318.7, 534.8 318.0 Q 534.8 317.6, 534.5 317.3 Q 534.3 317.0, 533.9 316.9 Q 533.6 316.7, 532.9 316.5 L 532.4 316.3 Q 531.8 316.7, 531.6 317.1 Q 531.3 317.5, 531.3 318.0 Q 531.3 318.7, 531.8 319.1 Q 532.3 319.5, 533.1 319.5 " fill="#000000"/>
<path class="legend" d="M 537.1 313.6 Q 537.4 312.9, 538.1 312.4 Q 538.8 312.0, 539.8 312.0 Q 541.1 312.0, 541.8 312.7 Q 542.5 313.3, 542.5 314.5 Q 542.5 315.8, 541.6 316.9 Q 540.7 318.0, 538.8 319.4 L 542.6 319.4 L 542.6 320.3 L 537.1 320.3 L 537.1 319.5 Q 538.6 318.4, 539.5 317.6 Q 540.4 316.8, 540.9 316.1 Q 541.3 315.3, 541.3 314.6 Q 541.3 313.8, 540.9 313.4 Q 540.5 312.9, 539.8 312.9 Q 539.2 312.9, 538.7 313.2 Q 538.3 313.5, 538.0 314.0 L 537.1 313.6 " fill="#000000"/>
<path class="legend" d="M 546.7 315.2 Q 547.4 315.2, 548.0 315.5 Q 548.6 315.8, 548.9 316.4 Q 549.3 316.9, 549.3 317.7 Q 549.3 318.5, 548.8 319.2 Q 548.4 319.8, 547.8 320.1 Q 547.1 320.4, 546.3 320.4 Q 545.6 320.4, 544.9 320.1 Q 544.2 319.8, 543.7 319.3 L 544.4 318.6 Q 544.8 319.0, 545.3 319.2 Q 545.8 319.4, 546.4 319.4 Q 547.1 319.4, 547.6 319.0 Q 548.1 318.5, 548.1 317.7 Q 548.1 316.8, 547.6 316.4 Q 547.1 316.0, 546.3 316.0 Q 545.6 316.0, 544.8 316.3 L 544.1 316.0 L 544.5 312.1 L 548.7 312.1 L 548.6 313.0 L 545.5 313.0 L 545.2 315.4 Q 546.0 315.2, 546.7 315.2 " fill="#000000"/>
<path class="legend" d="M 501.2 328.7 L 500.1 328.7 L 499.3 322.0 L 497.0 328.7 L 495.9 328.7 L 493.7 322.0 L 492.9 328.7 L 491.8 328.7 L 492.8 320.5 L 494.2 320.5 L 496.5 327.1 L 498.8 320.5 L 500.1 320.5 L 501.2 328.7 " fill="#000000"/>
<path class="legend" d="M 512.6 320.5 L 513.7 320.5 L 511.6 328.7 L 509.9 328.7 L 508.1 321.9 L 506.3 328.7 L 504.6 328.7 L 502.4 320.5 L 503.6 320.5 L 505.5 327.7 L 507.4 320.5 L 508.8 320.5 L 510.7 327.7 L 512.6 320.5 " fill="#000000"/>
<path class="legend" d="M 514.6 327.3 L 515.7 327.3 L 515.7 328.5 L 514.6 328.5 L 514.6 327.3 M 514.6 323.4 L 515.7 323.4 L 515.7 324.5 L 514.6 324.5 L 514.6 323.4 " fill="#000000"/>
<path class="legend" d="" fill="#000000"/>
<path class="legend" d="M 521.5 322.0 Q 521.8 321.3, 522.5 320.8 Q 523.3 320.4, 524.3 320.4 Q 525.5 320.4, 526.2 321.1 Q 526.9 321.7, 526.9 322.9 Q 526.9 324.2, 526.0 325.3 Q 525.1 326.4, 523.2 327.8 L 527.0 327.8 L 527.0 328.7 L 521.5 328.7 L 521.5 327.9 Q 523.0 326.8, 523.9 326.0 Q 524.9 325.2, 525.3 324.5 Q 525.7 323.7, 525.7 323.0 Q 525.7 322.2, 525.3 321.8 Q 524.9 321.3, 524.3 321.3 Q 523.6 321.3, 523.2 321.6 Q 522.7 321.9, 522.4 322.5 L 521.5 322.0 " fill="#000000"/>
<path class="legend" d="M 531.2 323.6 Q 531.9 323.6, 532.5 323.9 Q 533.1 324.2, 533.4 324.8 Q 533.8 325.3, 533.8 326.1 Q 533.8 326.9, 533.4 327.6 Q 533.0 328.2, 532.3 328.5 Q 531.6 328.8, 530.9 328.8 Q 530.1 328.8, 529.4 328.5 Q 528.7 328.2, 528.2 327.7 L 528.9 327.0 Q 529.3 327.4, 529.8 327.6 Q 530.4 327.8, 530.9 327.8 Q 531.6 327.8, 532.1 327.4 Q 532.6 326.9, 532.6 326.1 Q 532.6 325.3, 532.1 324.8 Q 531.6 324.4, 530.8 324.4 Q 530.1 324.4, 529.3 324.7 L 528.7 324.4 L 529.1 320.5 L 533.3 320.5 L 533.2 321.4 L 530.0 321.4 L 529.8 323.9 Q 530.5 323.6, 531.2 323.6 " fill="#000000"/>
<path class="legend" d="M 540.2 325.9 L 541.2 325.9 L 541.2 326.8 L 540.2 326.8 L 540.2 328.7 L 539.1 328.7 L 539.1 326.8 L 534.9 326.8 L 534.9 326.1 L 538.4 320.5 L 540.2 320.5 L 540.2 325.9 M 536.2 325.9 L 539.1 325.9 L 539.1 321.2 L 536.2 325.9 " fill="#000000"/>
<path class="legend" d="M 542.2 327.5 L 543.4 327.5 L 543.4 328.7 L 542.2 328.7 L 542.2 327.5 " fill="#000000"/>
<path class="legend" d="M 544.7 322.0 Q 545.0 321.3, 545.7 320.8 Q 546.4 320.4, 547.4 320.4 Q 548.7 320.4, 549.4 321.1 Q 550.1 321.7, 550.1 322.9 Q 550.1 324.2, 549.2 325.3 Q 548.3 326.4, 546.4 327.8 L 550.2 327.8 L 550.2 328.7 L 544.7 328.7 L 544.7 327.9 Q 546.2 326.8, 547.1 326.0 Q 548.0 325.2, 548.5 324.5 Q 548.9 323.7, 548.9 323.0 Q 548.9 322.2, 548.5 321.8 Q 548.1 321.3, 547.4 321.3 Q 546.8 321.3, 546.3 321.6 Q 545.9 321.9, 545.6 322.5 L 544.7 322.0 " fill="#000000"/>
<path class="legend" d="M 555.6 324.4 Q 556.3 324.7, 556.8 325.2 Q 557.2 325.6, 557.2 326.4 Q 557.2 327.1, 556.8 327.7 Q 556.5 328.2, 555.8 328.5 Q 555.2 328.8, 554.3 328.8 Q 553.0 328.8, 552.2 328.2 Q 551.4 327.5, 551.4 326.4 Q 551.4 325.8, 551.8 325.3 Q 552.1 324.8, 552.8 324.4 Q 552.3 324.1, 552.0 323.6 Q 551.7 323.2, 551.7 322.5 Q 551.7 321.5, 552.4 321.0 Q 553.1 320.4, 554.3 320.4 Q 555.5 320.4, 556.2 321.0 Q 556.9 321.5, 556.9 322.5 Q 556.9 323.1, 556.6 323.6 Q 556.2 324.0, 555.6 324.4 M 554.3 321.3 Q 553.6 321.3, 553.2 321.6 Q 552.9 321.9, 552.9 322.5 Q 552.9 322.9, 553.1 323.2 Q 553.4 323.5, 553.7 323.7 Q 554.1 323.8, 554.8 324.1 Q 555.3 323.7, 555.5 323.3 Q 555.7 323.0, 555.7 322.5 Q 555.7 321.9, 555.4 321.6 Q 555.0 321.3, 554.3 321.3 M 554.3 327.9 Q 555.1 327.9, 555.6 327.5 Q 556.0 327.1, 556.0 326.4 Q 556.0 326.0, 555.8 325.7 Q 555.6 325.4, 555.2 325.3 Q 554.8 325.1, 554.2 324.9 L 553.7 324.7 Q 553.1 325.1, 552.8 325.5 Q 552.6 325.9, 552.6 326.4 Q 552.6 327.1, 553.1 327.5 Q 553.5 327.9, 554.3 327.9 " fill="#000000"/>
<path class="legend" d="M 498.8 328.9 L 499.9 328.9 L 499.9 336.1 L 503.7 336.1 L 503.7 337.1 L 498.8 337.1 L 498.8 328.9 " fill="#000000"/>
<path class="legend" d="M 504.4 334.1 Q 504.4 332.7, 505.1 331.9 Q 505.9 331.0, 507.2 331.0 Q 508.6 331.0, 509.3 331.9 Q 510.0 332.7, 510.0 334.1 Q 510.0 335.6, 509.3 336.4 Q 508.6 337.2, 507.2 337.2 Q 505.9 337.2, 505.1 336.4 Q 504.4 335.6, 504.4 334.1 M 505.5 334.1 Q 505.5 335.2, 505.9 335.8 Q 506.4 336.3, 507.2 336.3 Q 508.0 336.3, 508.5 335.8 Q 508.9 335.2, 508.9 334.1 Q 508.9 333.0, 508.5 332.5 Q 508.0 331.9, 507.2 331.9 Q 506.4 331.9, 505.9 332.5 Q 505.5 333.0, 505.5 334.1 " fill="#000000"/>
<path class="legend" d="M 516.4 331.1 L 516.4 337.4 Q 516.4 340.0, 513.7 340.0 Q 512.3 340.0, 511.2 339.4 L 511.5 338.6 Q 512.2 338.9, 512.6 339.0 Q 513.1 339.1, 513.7 339.1 Q 514.5 339.1, 514.9 338.7 Q 515.3 338.4, 515.3 337.5 L 515.3 336.4 Q 514.6 337.2, 513.6 337.2 Q 512.3 337.2, 511.6 336.4 Q 511.0 335.6, 511.0 334.2 Q 511.0 332.7, 511.8 331.9 Q 512.6 331.0, 514.0 331.0 Q 514.8 331.0, 515.5 331.3 L 515.5 331.1 L 516.4 331.1 M 513.6 336.3 Q 514.2 336.3, 514.7 336.0 Q 515.1 335.7, 515.3 335.1 L 515.3 332.1 Q 514.7 331.9, 514.0 331.9 Q 513.1 331.9, 512.6 332.5 Q 512.1 333.1, 512.1 334.2 Q 512.1 335.2, 512.5 335.8 Q 512.9 336.3, 513.6 336.3 " fill="#000000"/>
<path class="legend" d="M 520.1 328.9 Q 521.5 328.9, 522.2 329.5 Q 522.9 330.2, 522.9 331.3 Q 522.9 332.4, 522.2 333.1 Q 521.5 333.7, 520.1 333.7 L 518.8 333.7 L 518.8 337.1 L 517.7 337.1 L 517.7 328.9 L 520.1 328.9 M 520.1 332.8 Q 520.9 332.8, 521.4 332.4 Q 521.8 332.0, 521.8 331.3 Q 521.8 330.6, 521.4 330.2 Q 520.9 329.8, 520.1 329.8 L 518.8 329.8 L 518.8 332.8 L 520.1 332.8 " fill="#000000"/>
<path class="legend" d="M 523.9 335.7 L 525.0 335.7 L 525.0 336.9 L 523.9 336.9 L 523.9 335.7 M 523.9 331.8 L 525.0 331.8 L 525.0 332.9 L 523.9 332.9 L 523.9 331.8 " fill="#000000"/>
<path class="legend" d="" fill="#000000"/>
<path class="legend" d="M 534.5 332.8 Q 535.3 333.0, 535.7 333.5 Q 536.0 334.0, 536.0 334.8 Q 536.0 335.5, 535.7 336.1 Q 535.4 336.6, 534.7 336.9 Q 534.1 337.2, 533.2 337.2 Q 532.4 337.2, 531.7 336.9 Q 531.1 336.6, 530.5 336.0 L 531.2 335.3 Q 531.7 335.9, 532.1 336.1 Q 532.6 336.3, 533.2 336.3 Q 534.0 336.3, 534.4 335.9 Q 534.9 335.5, 534.9 334.8 Q 534.9 334.0, 534.4 333.6 Q 534.0 333.3, 532.9 333.3 L 532.4 333.3 L 532.4 332.4 L 532.9 332.4 Q 533.8 332.4, 534.2 332.0 Q 534.7 331.6, 534.7 330.9 Q 534.7 330.4, 534.3 330.1 Q 533.9 329.7, 533.3 329.7 Q 532.6 329.7, 532.1 330.0 Q 531.7 330.2, 531.4 330.8 L 530.6 330.4 Q 530.9 329.7, 531.6 329.3 Q 532.3 328.8, 533.3 328.8 Q 534.5 328.8, 535.2 329.4 Q 535.9 329.9, 535.9 330.9 Q 535.9 331.6, 535.5 332.0 Q 535.2 332.5, 534.5 332.8 " fill="#000000"/>
<path class="legend" d="M 537.1 335.9 L 538.3 335.9 L 538.3 337.1 L 537.1 337.1 L 537.1 335.9 " fill="#000000"/>
<path class="legend" d="M 539.9 336.2 L 541.7 336.2 L 541.7 330.0 L 539.7 330.7 L 539.4 330.0 L 541.9 328.9 L 542.7 329.0 L 542.7 336.2 L 544.4 336.2 L 544.4 337.1 L 539.9 337.1 L 539.9 336.2 " fill="#000000"/>
<path class="legend" d="M 545.7 336.2 L 547.5 336.2 L 547.5 330.0 L 545.5 330.7 L 545.2 330.0 L 547.7 328.9 L 548.6 329.0 L 548.6 336.2 L 550.2 336.2 L 550.2 337.1 L 545.7 337.1 L 545.7 336.2 " fill="#000000"/>
<path class="bond-0 atom-0 atom-1" d="M 52.5,560.1 L 61.8,554.8" style="fill:none;fill-rule:evenodd;stroke:#000000;stroke-width:2.0px;stroke-linecap:butt;stroke-linejoin:miter;stroke-opacity:1"/>
<path class="bond-0 atom-0 atom-1" d="M 61.8,554.8 L 71.0,549.4" style="fill:none;fill-rule:evenodd;stroke:#FF0000;stroke-width:2.0px;stroke-linecap:butt;stroke-linejoin:miter;stroke-opacity:1"/>
<path class="bond-1 atom-1 atom-2" d="M 84.3,549.4 L 93.6,554.7" style="fill:none;fill-rule:evenodd;stroke:#FF0000;stroke-width:2.0px;stroke-linecap:butt;stroke-linejoin:miter;stroke-opacity:1"/>
<path class="bond-1 atom-1 atom-2" d="M 93.6,554.7 L 102.9,560.1" style="fill:none;fill-rule:evenodd;stroke:#000000;stroke-width:2.0px;stroke-linecap:butt;stroke-linejoin:miter;stroke-opacity:1"/>
<path class="bond-2 atom-2 atom-3" d="M 102.9,560.1 L 102.9,589.2" style="fill:none;fill-rule:evenodd;stroke:#000000;stroke-width:2.0px;stroke-linecap:butt;stroke-linejoin:miter;stroke-opacity:1"/>
<path class="bond-2 atom-2 atom-3" d="M 107.2,562.6 L 107.3,586.6" style="fill:none;fill-rule:evenodd;stroke:#000000;stroke-width:2.0px;stroke-linecap:butt;stroke-linejoin:miter;stroke-opacity:1"/>
<path class="bond-3 atom-3 atom-4" d="M 102.9,589.2 L 128.1,603.7" style="fill:none;fill-rule:evenodd;stroke:#000000;stroke-width:2.0px;stroke-linecap:butt;stroke-linejoin:miter;stroke-opacity:1"/>
<path class="bond-4 atom-4 atom-5" d="M 128.1,603.7 L 153.3,589.1" style="fill:none;fill-rule:evenodd;stroke:#000000;stroke-width:2.0px;stroke-linecap:butt;stroke-linejoin:miter;stroke-opacity:1"/>
<path class="bond-4 atom-4 atom-5" d="M 128.1,598.7 L 148.9,586.6" style="fill:none;fill-rule:evenodd;stroke:#000000;stroke-width:2.0px;stroke-linecap:butt;stroke-linejoin:miter;stroke-opacity:1"/>
<path class="bond-5 atom-5 atom-6" d="M 153.3,589.1 L 178.5,603.6" style="fill:none;fill-rule:evenodd;stroke:#000000;stroke-width:2.0px;stroke-linecap:butt;stroke-linejoin:miter;stroke-opacity:1"/>
<path class="bond-6 atom-6 atom-7" d="M 178.5,603.6 L 203.7,589.1" style="fill:none;fill-rule:evenodd;stroke:#000000;stroke-width:2.0px;stroke-linecap:butt;stroke-linejoin:miter;stroke-opacity:1"/>
<path class="bond-6 atom-6 atom-7" d="M 178.5,598.6 L 199.3,586.6" style="fill:none;fill-rule:evenodd;stroke:#000000;stroke-width:2.0px;stroke-linecap:butt;stroke-linejoin:miter;stroke-opacity:1"/>
<path class="bond-7 atom-7 atom-8" d="M 203.7,589.1 L 228.9,603.6" style="fill:none;fill-rule:evenodd;stroke:#000000;stroke-width:2.0px;stroke-linecap:butt;stroke-linejoin:miter;stroke-opacity:1"/>
<path class="bond-8 atom-8 atom-9" d="M 228.9,603.6 L 228.9,632.7" style="fill:none;fill-rule:evenodd;stroke:#000000;stroke-width:2.0px;stroke-linecap:butt;stroke-linejoin:miter;stroke-opacity:1"/>
<path class="bond-9 atom-8 atom-10" d="M 228.9,603.6 L 254.0,589.0" style="fill:none;fill-rule:evenodd;stroke:#000000;stroke-width:2.0px;stroke-linecap:butt;stroke-linejoin:miter;stroke-opacity:1"/>
<path class="bond-10 atom-10 atom-11" d="M 256.2,590.3 L 256.2,578.8" style="fill:none;fill-rule:evenodd;stroke:#000000;stroke-width:2.0px;stroke-linecap:butt;stroke-linejoin:miter;stroke-opacity:1"/>
<path class="bond-10 atom-10 atom-11" d="M 256.2,578.8 L 256.2,567.4" style="fill:none;fill-rule:evenodd;stroke:#FF0000;stroke-width:2.0px;stroke-linecap:butt;stroke-linejoin:miter;stroke-opacity:1"/>
<path class="bond-10 atom-10 atom-11" d="M 251.9,590.3 L 251.8,578.8" style="fill:none;fill-rule:evenodd;stroke:#000000;stroke-width:2.0px;stroke-linecap:butt;stroke-linejoin:miter;stroke-opacity:1"/>
<path class="bond-10 atom-10 atom-11" d="M 251.8,578.8 L 251.8,567.4" style="fill:none;fill-rule:evenodd;stroke:#FF0000;stroke-width:2.0px;stroke-linecap:butt;stroke-linejoin:miter;stroke-opacity:1"/>
<path class="bond-11 atom-10 atom-12" d="M 254.0,589.0 L 263.3,594.4" style="fill:none;fill-rule:evenodd;stroke:#000000;stroke-width:2.0px;stroke-linecap:butt;stroke-linejoin:miter;stroke-opacity:1"/>
<path class="bond-11 atom-10 atom-12" d="M 263.3,594.4 L 272.6,599.7" style="fill:none;fill-rule:evenodd;stroke:#FF0000;stroke-width:2.0px;stroke-linecap:butt;stroke-linejoin:miter;stroke-opacity:1"/>
<path class="bond-12 atom-7 atom-13" d="M 203.7,589.1 L 203.6,560.0" style="fill:none;fill-rule:evenodd;stroke:#000000;stroke-width:2.0px;stroke-linecap:butt;stroke-linejoin:miter;stroke-opacity:1"/>
<path class="bond-13 atom-13 atom-14" d="M 203.6,560.0 L 178.4,545.5" style="fill:none;fill-rule:evenodd;stroke:#000000;stroke-width:2.0px;stroke-linecap:butt;stroke-linejoin:miter;stroke-opacity:1"/>
<path class="bond-13 atom-13 atom-14" d="M 199.3,562.5 L 178.4,550.5" style="fill:none;fill-rule:evenodd;stroke:#000000;stroke-width:2.0px;stroke-linecap:butt;stroke-linejoin:miter;stroke-opacity:1"/>
<path class="bond-14 atom-14 atom-15" d="M 178.4,545.5 L 153.3,560.0" style="fill:none;fill-rule:evenodd;stroke:#000000;stroke-width:2.0px;stroke-linecap:butt;stroke-linejoin:miter;stroke-opacity:1"/>
<path class="bond-15 atom-15 atom-16" d="M 153.3,560.0 L 128.1,545.5" style="fill:none;fill-rule:evenodd;stroke:#000000;stroke-width:2.0px;stroke-linecap:butt;stroke-linejoin:miter;stroke-opacity:1"/>
<path class="bond-15 atom-15 atom-16" d="M 148.9,562.6 L 128.1,550.6" style="fill:none;fill-rule:evenodd;stroke:#000000;stroke-width:2.0px;stroke-linecap:butt;stroke-linejoin:miter;stroke-opacity:1"/>
<path class="bond-16 atom-16 atom-2" d="M 128.1,545.5 L 102.9,560.1" style="fill:none;fill-rule:evenodd;stroke:#000000;stroke-width:2.0px;stroke-linecap:butt;stroke-linejoin:miter;stroke-opacity:1"/>
<path class="bond-17 atom-15 atom-5" d="M 153.3,560.0 L 153.3,589.1" style="fill:none;fill-rule:evenodd;stroke:#000000;stroke-width:2.0px;stroke-linecap:butt;stroke-linejoin:miter;stroke-opacity:1"/>
<path d="M 102.9,587.7 L 102.9,589.2 L 104.2,589.9" style="fill:none;stroke:#000000;stroke-width:2.0px;stroke-linecap:butt;stroke-linejoin:miter;stroke-miterlimit:10;stroke-opacity:1;"/>
<path d="M 126.8,603.0 L 128.1,603.7 L 129.4,603.0" style="fill:none;stroke:#000000;stroke-width:2.0px;stroke-linecap:butt;stroke-linejoin:miter;stroke-miterlimit:10;stroke-opacity:1;"/>
<path d="M 177.2,602.9 L 178.5,603.6 L 179.7,602.9" style="fill:none;stroke:#000000;stroke-width:2.0px;stroke-linecap:butt;stroke-linejoin:miter;stroke-miterlimit:10;stroke-opacity:1;"/>
<path d="M 252.8,589.8 L 254.0,589.0 L 254.5,589.3" style="fill:none;stroke:#000000;stroke-width:2.0px;stroke-linecap:butt;stroke-linejoin:miter;stroke-miterlimit:10;stroke-opacity:1;"/>
<path d="M 203.6,561.5 L 203.6,560.0 L 202.4,559.3" style="fill:none;stroke:#000000;stroke-width:2.0px;stroke-linecap:butt;stroke-linejoin:miter;stroke-miterlimit:10;stroke-opacity:1;"/>
<path d="M 179.7,546.2 L 178.4,545.5 L 177.2,546.2" style="fill:none;stroke:#000000;stroke-width:2.0px;stroke-linecap:butt;stroke-linejoin:miter;stroke-miterlimit:10;stroke-opacity:1;"/>
<path d="M 129.3,546.2 L 128.1,545.5 L 126.8,546.2" style="fill:none;stroke:#000000;stroke-width:2.0px;stroke-linecap:butt;stroke-linejoin:miter;stroke-miterlimit:10;stroke-opacity:1;"/>
<path class="atom-1" d="M 72.0 545.6 Q 72.0 542.6, 73.5 541.0 Q 74.9 539.3, 77.7 539.3 Q 80.4 539.3, 81.9 541.0 Q 83.3 542.6, 83.3 545.6 Q 83.3 548.6, 81.9 550.3 Q 80.4 552.0, 77.7 552.0 Q 75.0 552.0, 73.5 550.3 Q 72.0 548.6, 72.0 545.6 M 77.7 550.6 Q 79.6 550.6, 80.6 549.3 Q 81.6 548.1, 81.6 545.6 Q 81.6 543.2, 80.6 541.9 Q 79.6 540.7, 77.7 540.7 Q 75.8 540.7, 74.8 541.9 Q 73.8 543.1, 73.8 545.6 Q 73.8 548.1, 74.8 549.3 Q 75.8 550.6, 77.7 550.6 " fill="#FF0000"/>
<path class="atom-11" d="M 248.3 560.0 Q 248.3 557.0, 249.8 555.4 Q 251.3 553.7, 254.0 553.7 Q 256.8 553.7, 258.2 555.4 Q 259.7 557.0, 259.7 560.0 Q 259.7 563.0, 258.2 564.7 Q 256.7 566.4, 254.0 566.4 Q 251.3 566.4, 249.8 564.7 Q 248.3 563.0, 248.3 560.0 M 254.0 565.0 Q 255.9 565.0, 256.9 563.7 Q 257.9 562.5, 257.9 560.0 Q 257.9 557.6, 256.9 556.3 Q 255.9 555.1, 254.0 555.1 Q 252.1 555.1, 251.1 556.3 Q 250.1 557.6, 250.1 560.0 Q 250.1 562.5, 251.1 563.7 Q 252.1 565.0, 254.0 565.0 " fill="#FF0000"/>
<path class="atom-12" d="M 273.6 603.6 Q 273.6 600.6, 275.0 599.0 Q 276.5 597.3, 279.2 597.3 Q 282.0 597.3, 283.4 599.0 Q 284.9 600.6, 284.9 603.6 Q 284.9 606.6, 283.4 608.3 Q 281.9 610.0, 279.2 610.0 Q 276.5 610.0, 275.0 608.3 Q 273.6 606.6, 273.6 603.6 M 279.2 608.6 Q 281.1 608.6, 282.1 607.4 Q 283.2 606.1, 283.2 603.6 Q 283.2 601.2, 282.1 600.0 Q 281.1 598.7, 279.2 598.7 Q 277.4 598.7, 276.3 599.9 Q 275.3 601.2, 275.3 603.6 Q 275.3 606.1, 276.3 607.4 Q 277.4 608.6, 279.2 608.6 " fill="#FF0000"/>
<path class="atom-12" d="M 286.8 597.5 L 288.5 597.5 L 288.5 602.7 L 294.8 602.7 L 294.8 597.5 L 296.5 597.5 L 296.5 609.8 L 294.8 609.8 L 294.8 604.1 L 288.5 604.1 L 288.5 609.8 L 286.8 609.8 L 286.8 597.5 " fill="#FF0000"/>
<path class="legend" d="M 143.8 716.2 Q 143.8 714.1, 144.7 713.1 Q 145.7 712.0, 147.5 712.0 Q 149.2 712.0, 150.1 713.2 L 149.3 713.8 Q 148.7 712.9, 147.5 712.9 Q 146.3 712.9, 145.6 713.8 Q 144.9 714.6, 144.9 716.2 Q 144.9 717.8, 145.6 718.6 Q 146.3 719.5, 147.6 719.5 Q 148.5 719.5, 149.6 718.9 L 149.9 719.8 Q 149.5 720.1, 148.8 720.2 Q 148.2 720.4, 147.5 720.4 Q 145.7 720.4, 144.7 719.3 Q 143.8 718.2, 143.8 716.2 " fill="#000000"/>
<path class="legend" d="M 151.0 712.1 L 152.1 712.1 L 152.1 720.3 L 151.0 720.3 L 151.0 712.1 " fill="#000000"/>
<path class="legend" d="M 156.2 712.1 Q 158.0 712.1, 159.0 713.2 Q 159.9 714.2, 159.9 716.2 Q 159.9 718.1, 159.0 719.2 Q 158.0 720.3, 156.2 720.3 L 153.5 720.3 L 153.5 712.1 L 156.2 712.1 M 156.2 719.4 Q 157.4 719.4, 158.1 718.6 Q 158.8 717.8, 158.8 716.2 Q 158.8 714.6, 158.1 713.8 Q 157.4 713.0, 156.2 713.0 L 154.6 713.0 L 154.6 719.4 L 156.2 719.4 " fill="#000000"/>
<path class="legend" d="M 160.9 718.9 L 162.0 718.9 L 162.0 720.1 L 160.9 720.1 L 160.9 718.9 M 160.9 715.0 L 162.0 715.0 L 162.0 716.1 L 160.9 716.1 L 160.9 715.0 " fill="#000000"/>
<path class="legend" d="" fill="#000000"/>
<path class="legend" d="M 168.1 719.4 L 169.9 719.4 L 169.9 713.2 L 167.9 713.9 L 167.6 713.2 L 170.1 712.0 L 171.0 712.2 L 171.0 719.4 L 172.6 719.4 L 172.6 720.3 L 168.1 720.3 L 168.1 719.4 " fill="#000000"/>
<path class="legend" d="M 176.5 715.2 Q 177.2 715.2, 177.8 715.5 Q 178.4 715.8, 178.7 716.4 Q 179.0 716.9, 179.0 717.7 Q 179.0 718.5, 178.6 719.2 Q 178.2 719.8, 177.5 720.1 Q 176.9 720.4, 176.1 720.4 Q 175.4 720.4, 174.7 720.1 Q 174.0 719.8, 173.5 719.3 L 174.2 718.6 Q 174.6 719.0, 175.1 719.2 Q 175.6 719.4, 176.1 719.4 Q 176.9 719.4, 177.4 719.0 Q 177.9 718.5, 177.9 717.7 Q 177.9 716.8, 177.4 716.4 Q 176.9 716.0, 176.1 716.0 Q 175.4 716.0, 174.6 716.3 L 173.9 716.0 L 174.3 712.1 L 178.5 712.1 L 178.4 713.0 L 175.3 713.0 L 175.0 715.4 Q 175.7 715.2, 176.5 715.2 " fill="#000000"/>
<path class="legend" d="M 183.2 715.2 Q 183.9 715.2, 184.5 715.5 Q 185.1 715.8, 185.4 716.4 Q 185.7 716.9, 185.7 717.6 Q 185.7 718.4, 185.3 719.1 Q 185.0 719.7, 184.4 720.0 Q 183.7 720.4, 182.9 720.4 Q 181.5 720.4, 180.8 719.4 Q 180.0 718.4, 180.0 716.4 Q 180.0 714.3, 180.9 713.1 Q 181.8 712.0, 183.6 712.0 Q 184.1 712.0, 184.5 712.1 Q 185.0 712.2, 185.4 712.5 L 184.9 713.3 Q 184.3 712.9, 183.6 712.9 Q 182.4 712.9, 181.8 713.7 Q 181.3 714.4, 181.2 716.0 Q 181.6 715.6, 182.1 715.4 Q 182.7 715.2, 183.2 715.2 M 183.0 719.4 Q 183.4 719.4, 183.8 719.2 Q 184.1 719.0, 184.3 718.6 Q 184.5 718.2, 184.5 717.7 Q 184.5 716.9, 184.1 716.5 Q 183.7 716.1, 183.0 716.1 Q 182.5 716.1, 182.0 716.3 Q 181.5 716.5, 181.2 716.8 Q 181.2 718.2, 181.7 718.8 Q 182.1 719.4, 183.0 719.4 " fill="#000000"/>
<path class="legend" d="M 190.7 716.0 Q 191.5 716.2, 191.9 716.7 Q 192.3 717.2, 192.3 718.0 Q 192.3 718.7, 191.9 719.3 Q 191.6 719.8, 190.9 720.1 Q 190.3 720.4, 189.5 720.4 Q 188.6 720.4, 187.9 720.1 Q 187.3 719.8, 186.8 719.2 L 187.4 718.5 Q 187.9 719.0, 188.4 719.3 Q 188.8 719.5, 189.5 719.5 Q 190.2 719.5, 190.7 719.1 Q 191.1 718.7, 191.1 718.0 Q 191.1 717.2, 190.6 716.8 Q 190.2 716.4, 189.2 716.4 L 188.6 716.4 L 188.6 715.6 L 189.1 715.6 Q 190.0 715.6, 190.5 715.2 Q 190.9 714.8, 190.9 714.1 Q 190.9 713.6, 190.6 713.3 Q 190.2 712.9, 189.5 712.9 Q 188.8 712.9, 188.4 713.2 Q 188.0 713.4, 187.6 714.0 L 186.8 713.6 Q 187.1 712.9, 187.8 712.5 Q 188.5 712.0, 189.5 712.0 Q 190.7 712.0, 191.4 712.6 Q 192.1 713.1, 192.1 714.1 Q 192.1 714.8, 191.7 715.2 Q 191.4 715.7, 190.7 716.0 " fill="#000000"/>
<path class="legend" d="M 196.1 712.0 Q 197.6 712.0, 198.3 713.0 Q 199.1 714.0, 199.1 715.9 Q 199.1 718.1, 198.2 719.3 Q 197.3 720.4, 195.5 720.4 Q 195.0 720.4, 194.6 720.3 Q 194.1 720.1, 193.7 719.9 L 194.2 719.1 Q 194.8 719.5, 195.5 719.5 Q 196.7 719.5, 197.2 718.7 Q 197.8 718.0, 197.9 716.4 Q 197.5 716.8, 197.0 717.0 Q 196.4 717.2, 195.9 717.2 Q 195.2 717.2, 194.6 716.9 Q 194.0 716.6, 193.7 716.0 Q 193.4 715.4, 193.4 714.7 Q 193.4 713.9, 193.7 713.3 Q 194.1 712.7, 194.7 712.3 Q 195.3 712.0, 196.1 712.0 M 194.6 714.7 Q 194.6 715.4, 195.0 715.9 Q 195.4 716.3, 196.1 716.3 Q 196.6 716.3, 197.1 716.1 Q 197.6 715.9, 197.9 715.5 Q 197.9 714.2, 197.4 713.6 Q 197.0 712.9, 196.1 712.9 Q 195.7 712.9, 195.3 713.2 Q 195.0 713.4, 194.8 713.8 Q 194.6 714.2, 194.6 714.7 " fill="#000000"/>
<path class="legend" d="M 200.7 719.4 L 202.5 719.4 L 202.5 713.2 L 200.6 713.9 L 200.3 713.2 L 202.8 712.0 L 203.6 712.2 L 203.6 719.4 L 205.2 719.4 L 205.2 720.3 L 200.7 720.3 L 200.7 719.4 " fill="#000000"/>
<path class="legend" d="M 151.3 728.7 L 150.2 728.7 L 149.3 722.0 L 147.1 728.7 L 146.0 728.7 L 143.8 722.0 L 142.9 728.7 L 141.9 728.7 L 142.9 720.5 L 144.3 720.5 L 146.6 727.1 L 148.8 720.5 L 150.2 720.5 L 151.3 728.7 " fill="#000000"/>
<path class="legend" d="M 162.7 720.5 L 163.8 720.5 L 161.6 728.7 L 160.0 728.7 L 158.2 721.9 L 156.4 728.7 L 154.7 728.7 L 152.5 720.5 L 153.6 720.5 L 155.6 727.7 L 157.5 720.5 L 158.9 720.5 L 160.8 727.7 L 162.7 720.5 " fill="#000000"/>
<path class="legend" d="M 164.7 727.3 L 165.8 727.3 L 165.8 728.5 L 164.7 728.5 L 164.7 727.3 M 164.7 723.4 L 165.8 723.4 L 165.8 724.5 L 164.7 724.5 L 164.7 723.4 " fill="#000000"/>
<path class="legend" d="" fill="#000000"/>
<path class="legend" d="M 171.6 722.0 Q 171.9 721.3, 172.6 720.8 Q 173.3 720.4, 174.3 720.4 Q 175.6 720.4, 176.3 721.1 Q 177.0 721.7, 177.0 722.9 Q 177.0 724.2, 176.1 725.3 Q 175.2 726.4, 173.3 727.8 L 177.1 727.8 L 177.1 728.7 L 171.6 728.7 L 171.6 727.9 Q 173.1 726.8, 174.0 726.0 Q 174.9 725.2, 175.4 724.5 Q 175.8 723.7, 175.8 723.0 Q 175.8 722.2, 175.4 721.8 Q 175.0 721.3, 174.3 721.3 Q 173.7 721.3, 173.2 721.6 Q 172.8 721.9, 172.5 722.5 L 171.6 722.0 " fill="#000000"/>
<path class="legend" d="M 182.2 724.4 Q 183.0 724.6, 183.4 725.1 Q 183.8 725.6, 183.8 726.4 Q 183.8 727.1, 183.5 727.7 Q 183.1 728.2, 182.5 728.5 Q 181.8 728.8, 181.0 728.8 Q 180.1 728.8, 179.5 728.5 Q 178.8 728.2, 178.3 727.6 L 179.0 726.9 Q 179.5 727.5, 179.9 727.7 Q 180.3 727.9, 181.0 727.9 Q 181.8 727.9, 182.2 727.5 Q 182.7 727.1, 182.7 726.4 Q 182.7 725.6, 182.2 725.2 Q 181.7 724.8, 180.7 724.8 L 180.1 724.8 L 180.1 724.0 L 180.6 724.0 Q 181.5 724.0, 182.0 723.6 Q 182.5 723.2, 182.5 722.5 Q 182.5 722.0, 182.1 721.7 Q 181.7 721.3, 181.0 721.3 Q 180.3 721.3, 179.9 721.6 Q 179.5 721.8, 179.2 722.4 L 178.4 722.0 Q 178.7 721.3, 179.4 720.9 Q 180.1 720.4, 181.0 720.4 Q 182.2 720.4, 182.9 721.0 Q 183.6 721.5, 183.6 722.5 Q 183.6 723.2, 183.3 723.6 Q 182.9 724.1, 182.2 724.4 " fill="#000000"/>
<path class="legend" d="M 188.0 728.8 Q 186.5 728.8, 185.8 727.7 Q 185.0 726.6, 185.0 724.6 Q 185.0 722.6, 185.8 721.5 Q 186.5 720.4, 188.0 720.4 Q 189.5 720.4, 190.3 721.5 Q 191.0 722.6, 191.0 724.6 Q 191.0 726.6, 190.3 727.7 Q 189.5 728.8, 188.0 728.8 M 188.0 727.9 Q 188.9 727.9, 189.4 727.0 Q 189.8 726.2, 189.8 724.6 Q 189.8 723.0, 189.4 722.2 Q 188.9 721.3, 188.0 721.3 Q 187.1 721.3, 186.6 722.2 Q 186.2 723.0, 186.2 724.6 Q 186.2 726.2, 186.6 727.0 Q 187.1 727.9, 188.0 727.9 " fill="#000000"/>
<path class="legend" d="M 192.3 727.5 L 193.4 727.5 L 193.4 728.7 L 192.3 728.7 L 192.3 727.5 " fill="#000000"/>
<path class="legend" d="M 194.7 722.0 Q 195.0 721.3, 195.7 720.8 Q 196.5 720.4, 197.4 720.4 Q 198.7 720.4, 199.4 721.1 Q 200.1 721.7, 200.1 722.9 Q 200.1 724.2, 199.2 725.3 Q 198.3 726.4, 196.4 727.8 L 200.2 727.8 L 200.2 728.7 L 194.7 728.7 L 194.7 727.9 Q 196.2 726.8, 197.1 726.0 Q 198.0 725.2, 198.5 724.5 Q 198.9 723.7, 198.9 723.0 Q 198.9 722.2, 198.5 721.8 Q 198.1 721.3, 197.4 721.3 Q 196.8 721.3, 196.3 721.6 Q 195.9 721.9, 195.6 722.5 L 194.7 722.0 " fill="#000000"/>
<path class="legend" d="M 204.6 723.6 Q 205.3 723.6, 205.9 723.9 Q 206.5 724.2, 206.8 724.8 Q 207.1 725.3, 207.1 726.1 Q 207.1 726.9, 206.7 727.5 Q 206.4 728.1, 205.8 728.4 Q 205.1 728.8, 204.3 728.8 Q 202.9 728.8, 202.2 727.8 Q 201.4 726.8, 201.4 724.8 Q 201.4 722.7, 202.3 721.5 Q 203.2 720.4, 205.0 720.4 Q 205.5 720.4, 205.9 720.5 Q 206.4 720.6, 206.8 720.9 L 206.3 721.7 Q 205.7 721.3, 205.0 721.3 Q 203.8 721.3, 203.2 722.1 Q 202.7 722.8, 202.6 724.4 Q 203.0 724.0, 203.5 723.8 Q 204.1 723.6, 204.6 723.6 M 204.4 727.8 Q 204.8 727.8, 205.2 727.6 Q 205.5 727.4, 205.7 727.0 Q 205.9 726.6, 205.9 726.1 Q 205.9 725.3, 205.5 724.9 Q 205.1 724.5, 204.4 724.5 Q 203.9 724.5, 203.4 724.7 Q 202.9 724.9, 202.6 725.3 Q 202.6 726.6, 203.1 727.2 Q 203.5 727.8, 204.4 727.8 " fill="#000000"/>
<path class="legend" d="M 147.4 728.9 L 148.5 728.9 L 148.5 736.1 L 152.2 736.1 L 152.2 737.1 L 147.4 737.1 L 147.4 728.9 " fill="#000000"/>
<path class="legend" d="M 153.0 734.1 Q 153.0 732.7, 153.7 731.9 Q 154.4 731.0, 155.8 731.0 Q 157.1 731.0, 157.9 731.9 Q 158.6 732.7, 158.6 734.1 Q 158.6 735.6, 157.9 736.4 Q 157.1 737.2, 155.8 737.2 Q 154.4 737.2, 153.7 736.4 Q 153.0 735.6, 153.0 734.1 M 154.1 734.1 Q 154.1 735.2, 154.5 735.8 Q 155.0 736.3, 155.8 736.3 Q 156.6 736.3, 157.0 735.8 Q 157.5 735.2, 157.5 734.1 Q 157.5 733.0, 157.0 732.5 Q 156.6 731.9, 155.8 731.9 Q 155.0 731.9, 154.5 732.5 Q 154.1 733.0, 154.1 734.1 " fill="#000000"/>
<path class="legend" d="M 165.0 731.1 L 165.0 737.4 Q 165.0 740.0, 162.3 740.0 Q 160.9 740.0, 159.8 739.4 L 160.1 738.6 Q 160.8 738.9, 161.2 739.0 Q 161.7 739.1, 162.3 739.1 Q 163.1 739.1, 163.5 738.7 Q 163.9 738.4, 163.9 737.5 L 163.9 736.4 Q 163.2 737.2, 162.2 737.2 Q 160.9 737.2, 160.2 736.4 Q 159.6 735.6, 159.6 734.2 Q 159.6 732.7, 160.4 731.9 Q 161.2 731.0, 162.6 731.0 Q 163.4 731.0, 164.1 731.3 L 164.1 731.1 L 165.0 731.1 M 162.2 736.3 Q 162.8 736.3, 163.3 736.0 Q 163.7 735.7, 163.9 735.1 L 163.9 732.1 Q 163.3 731.9, 162.6 731.9 Q 161.7 731.9, 161.2 732.5 Q 160.7 733.1, 160.7 734.2 Q 160.7 735.2, 161.1 735.8 Q 161.5 736.3, 162.2 736.3 " fill="#000000"/>
<path class="legend" d="M 168.8 728.9 Q 170.2 728.9, 170.9 729.5 Q 171.6 730.2, 171.6 731.3 Q 171.6 732.4, 170.8 733.1 Q 170.1 733.7, 168.8 733.7 L 167.4 733.7 L 167.4 737.1 L 166.3 737.1 L 166.3 728.9 L 168.8 728.9 M 168.8 732.8 Q 169.6 732.8, 170.0 732.4 Q 170.4 732.0, 170.4 731.3 Q 170.4 730.6, 170.0 730.2 Q 169.6 729.8, 168.8 729.8 L 167.4 729.8 L 167.4 732.8 L 168.8 732.8 " fill="#000000"/>
<path class="legend" d="M 172.5 735.7 L 173.7 735.7 L 173.7 736.9 L 172.5 736.9 L 172.5 735.7 M 172.5 731.8 L 173.7 731.8 L 173.7 732.9 L 172.5 732.9 L 172.5 731.8 " fill="#000000"/>
<path class="legend" d="" fill="#000000"/>
<path class="legend" d="M 183.2 732.8 Q 184.0 733.0, 184.3 733.5 Q 184.7 734.0, 184.7 734.8 Q 184.7 735.5, 184.4 736.1 Q 184.0 736.6, 183.4 736.9 Q 182.8 737.2, 181.9 737.2 Q 181.1 737.2, 180.4 736.9 Q 179.8 736.6, 179.2 736.0 L 179.9 735.3 Q 180.4 735.9, 180.8 736.1 Q 181.3 736.3, 181.9 736.3 Q 182.7 736.3, 183.1 735.9 Q 183.6 735.5, 183.6 734.8 Q 183.6 734.0, 183.1 733.6 Q 182.6 733.3, 181.6 733.3 L 181.0 733.3 L 181.0 732.4 L 181.6 732.4 Q 182.5 732.4, 182.9 732.0 Q 183.4 731.6, 183.4 730.9 Q 183.4 730.4, 183.0 730.1 Q 182.6 729.7, 182.0 729.7 Q 181.3 729.7, 180.8 730.0 Q 180.4 730.2, 180.1 730.8 L 179.3 730.4 Q 179.6 729.7, 180.3 729.3 Q 181.0 728.8, 182.0 728.8 Q 183.2 728.8, 183.9 729.4 Q 184.6 729.9, 184.6 730.9 Q 184.6 731.6, 184.2 732.0 Q 183.8 732.5, 183.2 732.8 " fill="#000000"/>
<path class="legend" d="M 185.8 735.9 L 187.0 735.9 L 187.0 737.1 L 185.8 737.1 L 185.8 735.9 " fill="#000000"/>
<path class="legend" d="M 191.2 737.2 Q 189.7 737.2, 188.9 736.1 Q 188.2 735.0, 188.2 733.0 Q 188.2 731.0, 188.9 729.9 Q 189.6 728.8, 191.2 728.8 Q 192.7 728.8, 193.4 729.9 Q 194.2 731.0, 194.2 733.0 Q 194.2 735.0, 193.4 736.1 Q 192.7 737.2, 191.2 737.2 M 191.2 736.3 Q 192.0 736.3, 192.5 735.4 Q 193.0 734.6, 193.0 733.0 Q 193.0 731.4, 192.5 730.6 Q 192.0 729.7, 191.2 729.7 Q 190.3 729.7, 189.8 730.6 Q 189.3 731.4, 189.3 733.0 Q 189.3 734.6, 189.8 735.4 Q 190.3 736.3, 191.2 736.3 " fill="#000000"/>
<path class="legend" d="M 200.6 734.3 L 201.6 734.3 L 201.6 735.2 L 200.6 735.2 L 200.6 737.1 L 199.6 737.1 L 199.6 735.2 L 195.3 735.2 L 195.3 734.5 L 198.9 728.9 L 200.6 728.9 L 200.6 734.3 M 196.7 734.3 L 199.6 734.3 L 199.6 729.6 L 196.7 734.3 " fill="#000000"/>
<path class="bond-0 atom-0 atom-1" d="M 472.6,531.9 L 472.6,543.4" style="fill:none;fill-rule:evenodd;stroke:#FF0000;stroke-width:2.0px;stroke-linecap:butt;stroke-linejoin:miter;stroke-opacity:1"/>
<path class="bond-0 atom-0 atom-1" d="M 472.6,543.4 L 472.6,554.8" style="fill:none;fill-rule:evenodd;stroke:#000000;stroke-width:2.0px;stroke-linecap:butt;stroke-linejoin:miter;stroke-opacity:1"/>
<path class="bond-0 atom-0 atom-1" d="M 468.2,531.9 L 468.2,543.4" style="fill:none;fill-rule:evenodd;stroke:#FF0000;stroke-width:2.0px;stroke-linecap:butt;stroke-linejoin:miter;stroke-opacity:1"/>
<path class="bond-0 atom-0 atom-1" d="M 468.2,543.4 L 468.2,554.8" style="fill:none;fill-rule:evenodd;stroke:#000000;stroke-width:2.0px;stroke-linecap:butt;stroke-linejoin:miter;stroke-opacity:1"/>
<path class="bond-1 atom-1 atom-2" d="M 470.4,553.6 L 461.2,558.9" style="fill:none;fill-rule:evenodd;stroke:#000000;stroke-width:2.0px;stroke-linecap:butt;stroke-linejoin:miter;stroke-opacity:1"/>
<path class="bond-1 atom-1 atom-2" d="M 461.2,558.9 L 451.9,564.3" style="fill:none;fill-rule:evenodd;stroke:#FF0000;stroke-width:2.0px;stroke-linecap:butt;stroke-linejoin:miter;stroke-opacity:1"/>
<path class="bond-2 atom-1 atom-3" d="M 470.4,553.6 L 495.6,568.1" style="fill:none;fill-rule:evenodd;stroke:#000000;stroke-width:2.0px;stroke-linecap:butt;stroke-linejoin:miter;stroke-opacity:1"/>
<path class="bond-3 atom-3 atom-4" d="M 495.6,568.1 L 520.8,553.5" style="fill:none;fill-rule:evenodd;stroke:#000000;stroke-width:2.0px;stroke-linecap:butt;stroke-linejoin:miter;stroke-opacity:1"/>
<path class="bond-4 atom-4 atom-5" d="M 520.8,553.5 L 520.8,524.5" style="fill:none;fill-rule:evenodd;stroke:#000000;stroke-width:2.0px;stroke-linecap:butt;stroke-linejoin:miter;stroke-opacity:1"/>
<path class="bond-4 atom-4 atom-5" d="M 525.2,551.0 L 525.1,527.0" style="fill:none;fill-rule:evenodd;stroke:#000000;stroke-width:2.0px;stroke-linecap:butt;stroke-linejoin:miter;stroke-opacity:1"/>
<path class="bond-5 atom-5 atom-6" d="M 520.8,524.5 L 546.0,509.9" style="fill:none;fill-rule:evenodd;stroke:#000000;stroke-width:2.0px;stroke-linecap:butt;stroke-linejoin:miter;stroke-opacity:1"/>
<path class="bond-6 atom-6 atom-7" d="M 546.0,509.9 L 571.2,524.4" style="fill:none;fill-rule:evenodd;stroke:#000000;stroke-width:2.0px;stroke-linecap:butt;stroke-linejoin:miter;stroke-opacity:1"/>
<path class="bond-6 atom-6 atom-7" d="M 546.0,514.9 L 566.8,526.9" style="fill:none;fill-rule:evenodd;stroke:#000000;stroke-width:2.0px;stroke-linecap:butt;stroke-linejoin:miter;stroke-opacity:1"/>
<path class="bond-7 atom-7 atom-8" d="M 571.2,524.4 L 571.2,553.5" style="fill:none;fill-rule:evenodd;stroke:#000000;stroke-width:2.0px;stroke-linecap:butt;stroke-linejoin:miter;stroke-opacity:1"/>
<path class="bond-8 atom-8 atom-9" d="M 571.2,553.5 L 546.0,568.1" style="fill:none;fill-rule:evenodd;stroke:#000000;stroke-width:2.0px;stroke-linecap:butt;stroke-linejoin:miter;stroke-opacity:1"/>
<path class="bond-8 atom-8 atom-9" d="M 566.8,551.0 L 546.0,563.0" style="fill:none;fill-rule:evenodd;stroke:#000000;stroke-width:2.0px;stroke-linecap:butt;stroke-linejoin:miter;stroke-opacity:1"/>
<path class="bond-9 atom-9 atom-10" d="M 546.0,568.1 L 546.0,579.0" style="fill:none;fill-rule:evenodd;stroke:#000000;stroke-width:2.0px;stroke-linecap:butt;stroke-linejoin:miter;stroke-opacity:1"/>
<path class="bond-9 atom-9 atom-10" d="M 546.0,579.0 L 546.0,590.0" style="fill:none;fill-rule:evenodd;stroke:#0000FF;stroke-width:2.0px;stroke-linecap:butt;stroke-linejoin:miter;stroke-opacity:1"/>
<path class="bond-10 atom-10 atom-11" d="M 551.7,600.4 L 561.4,606.0" style="fill:none;fill-rule:evenodd;stroke:#0000FF;stroke-width:2.0px;stroke-linecap:butt;stroke-linejoin:miter;stroke-opacity:1"/>
<path class="bond-10 atom-10 atom-11" d="M 561.4,606.0 L 571.2,611.7" style="fill:none;fill-rule:evenodd;stroke:#000000;stroke-width:2.0px;stroke-linecap:butt;stroke-linejoin:miter;stroke-opacity:1"/>
<path class="bond-11 atom-11 atom-12" d="M 571.2,611.7 L 571.2,640.8" style="fill:none;fill-rule:evenodd;stroke:#000000;stroke-width:2.0px;stroke-linecap:butt;stroke-linejoin:miter;stroke-opacity:1"/>
<path class="bond-11 atom-11 atom-12" d="M 575.6,614.2 L 575.6,638.2" style="fill:none;fill-rule:evenodd;stroke:#000000;stroke-width:2.0px;stroke-linecap:butt;stroke-linejoin:miter;stroke-opacity:1"/>
<path class="bond-12 atom-12 atom-13" d="M 571.2,640.8 L 559.5,647.5" style="fill:none;fill-rule:evenodd;stroke:#000000;stroke-width:2.0px;stroke-linecap:butt;stroke-linejoin:miter;stroke-opacity:1"/>
<path class="bond-12 atom-12 atom-13" d="M 559.5,647.5 L 547.8,654.3" style="fill:none;fill-rule:evenodd;stroke:#00CC00;stroke-width:2.0px;stroke-linecap:butt;stroke-linejoin:miter;stroke-opacity:1"/>
<path class="bond-13 atom-12 atom-14" d="M 571.2,640.8 L 596.5,655.3" style="fill:none;fill-rule:evenodd;stroke:#000000;stroke-width:2.0px;stroke-linecap:butt;stroke-linejoin:miter;stroke-opacity:1"/>
<path class="bond-14 atom-14 atom-15" d="M 596.5,655.3 L 621.6,640.7" style="fill:none;fill-rule:evenodd;stroke:#000000;stroke-width:2.0px;stroke-linecap:butt;stroke-linejoin:miter;stroke-opacity:1"/>
<path class="bond-14 atom-14 atom-15" d="M 596.4,650.2 L 617.3,638.2" style="fill:none;fill-rule:evenodd;stroke:#000000;stroke-width:2.0px;stroke-linecap:butt;stroke-linejoin:miter;stroke-opacity:1"/>
<path class="bond-15 atom-15 atom-16" d="M 621.6,640.7 L 621.6,611.6" style="fill:none;fill-rule:evenodd;stroke:#000000;stroke-width:2.0px;stroke-linecap:butt;stroke-linejoin:miter;stroke-opacity:1"/>
<path class="bond-16 atom-16 atom-17" d="M 621.6,611.6 L 596.4,597.1" style="fill:none;fill-rule:evenodd;stroke:#000000;stroke-width:2.0px;stroke-linecap:butt;stroke-linejoin:miter;stroke-opacity:1"/>
<path class="bond-16 atom-16 atom-17" d="M 617.2,614.2 L 596.4,602.2" style="fill:none;fill-rule:evenodd;stroke:#000000;stroke-width:2.0px;stroke-linecap:butt;stroke-linejoin:miter;stroke-opacity:1"/>
<path class="bond-17 atom-17 atom-18" d="M 596.4,597.1 L 596.4,586.4" style="fill:none;fill-rule:evenodd;stroke:#000000;stroke-width:2.0px;stroke-linecap:butt;stroke-linejoin:miter;stroke-opacity:1"/>
<path class="bond-17 atom-17 atom-18" d="M 596.4,586.4 L 596.4,575.8" style="fill:none;fill-rule:evenodd;stroke:#00CC00;stroke-width:2.0px;stroke-linecap:butt;stroke-linejoin:miter;stroke-opacity:1"/>
<path class="bond-18 atom-9 atom-4" d="M 546.0,568.1 L 520.8,553.5" style="fill:none;fill-rule:evenodd;stroke:#000000;stroke-width:2.0px;stroke-linecap:butt;stroke-linejoin:miter;stroke-opacity:1"/>
<path class="bond-19 atom-17 atom-11" d="M 596.4,597.1 L 571.2,611.7" style="fill:none;fill-rule:evenodd;stroke:#000000;stroke-width:2.0px;stroke-linecap:butt;stroke-linejoin:miter;stroke-opacity:1"/>
<path d="M 470.0,553.9 L 470.4,553.6 L 471.7,554.3" style="fill:none;stroke:#000000;stroke-width:2.0px;stroke-linecap:butt;stroke-linejoin:miter;stroke-miterlimit:10;stroke-opacity:1;"/>
<path d="M 494.4,567.4 L 495.6,568.1 L 496.9,567.4" style="fill:none;stroke:#000000;stroke-width:2.0px;stroke-linecap:butt;stroke-linejoin:miter;stroke-miterlimit:10;stroke-opacity:1;"/>
<path d="M 520.8,525.9 L 520.8,524.5 L 522.0,523.7" style="fill:none;stroke:#000000;stroke-width:2.0px;stroke-linecap:butt;stroke-linejoin:miter;stroke-miterlimit:10;stroke-opacity:1;"/>
<path d="M 544.7,510.6 L 546.0,509.9 L 547.2,510.6" style="fill:none;stroke:#000000;stroke-width:2.0px;stroke-linecap:butt;stroke-linejoin:miter;stroke-miterlimit:10;stroke-opacity:1;"/>
<path d="M 569.9,523.7 L 571.2,524.4 L 571.2,525.9" style="fill:none;stroke:#000000;stroke-width:2.0px;stroke-linecap:butt;stroke-linejoin:miter;stroke-miterlimit:10;stroke-opacity:1;"/>
<path d="M 571.2,552.0 L 571.2,553.5 L 569.9,554.2" style="fill:none;stroke:#000000;stroke-width:2.0px;stroke-linecap:butt;stroke-linejoin:miter;stroke-miterlimit:10;stroke-opacity:1;"/>
<path d="M 595.2,654.6 L 596.5,655.3 L 597.7,654.6" style="fill:none;stroke:#000000;stroke-width:2.0px;stroke-linecap:butt;stroke-linejoin:miter;stroke-miterlimit:10;stroke-opacity:1;"/>
<path d="M 620.4,641.5 L 621.6,640.7 L 621.6,639.3" style="fill:none;stroke:#000000;stroke-width:2.0px;stroke-linecap:butt;stroke-linejoin:miter;stroke-miterlimit:10;stroke-opacity:1;"/>
<path d="M 621.6,613.1 L 621.6,611.6 L 620.3,610.9" style="fill:none;stroke:#000000;stroke-width:2.0px;stroke-linecap:butt;stroke-linejoin:miter;stroke-miterlimit:10;stroke-opacity:1;"/>
<path class="atom-0" d="M 464.7 524.5 Q 464.7 521.6, 466.2 519.9 Q 467.7 518.2, 470.4 518.2 Q 473.1 518.2, 474.6 519.9 Q 476.1 521.6, 476.1 524.5 Q 476.1 527.5, 474.6 529.2 Q 473.1 530.9, 470.4 530.9 Q 467.7 530.9, 466.2 529.2 Q 464.7 527.6, 464.7 524.5 M 470.4 529.5 Q 472.3 529.5, 473.3 528.3 Q 474.3 527.0, 474.3 524.5 Q 474.3 522.1, 473.3 520.9 Q 472.3 519.6, 470.4 519.6 Q 468.5 519.6, 467.5 520.9 Q 466.5 522.1, 466.5 524.5 Q 466.5 527.0, 467.5 528.3 Q 468.5 529.5, 470.4 529.5 " fill="#FF0000"/>
<path class="atom-2" d="M 427.4 562.0 L 429.0 562.0 L 429.0 567.3 L 435.4 567.3 L 435.4 562.0 L 437.0 562.0 L 437.0 574.4 L 435.4 574.4 L 435.4 568.7 L 429.0 568.7 L 429.0 574.4 L 427.4 574.4 L 427.4 562.0 " fill="#FF0000"/>
<path class="atom-2" d="M 439.6 568.2 Q 439.6 565.2, 441.0 563.6 Q 442.5 561.9, 445.2 561.9 Q 448.0 561.9, 449.5 563.6 Q 450.9 565.2, 450.9 568.2 Q 450.9 571.2, 449.4 572.9 Q 448.0 574.6, 445.2 574.6 Q 442.5 574.6, 441.0 572.9 Q 439.6 571.2, 439.6 568.2 M 445.2 573.2 Q 447.1 573.2, 448.1 571.9 Q 449.2 570.7, 449.2 568.2 Q 449.2 565.8, 448.1 564.5 Q 447.1 563.3, 445.2 563.3 Q 443.4 563.3, 442.3 564.5 Q 441.3 565.7, 441.3 568.2 Q 441.3 570.7, 442.3 571.9 Q 443.4 573.2, 445.2 573.2 " fill="#FF0000"/>
<path class="atom-10" d="M 529.2 591.0 L 530.9 591.0 L 530.9 596.2 L 537.2 596.2 L 537.2 591.0 L 538.9 591.0 L 538.9 603.3 L 537.2 603.3 L 537.2 597.6 L 530.9 597.6 L 530.9 603.3 L 529.2 603.3 L 529.2 591.0 " fill="#0000FF"/>
<path class="atom-10" d="M 543.3 591.0 L 547.3 597.5 Q 547.7 598.2, 548.4 599.3 Q 549.0 600.5, 549.1 600.6 L 549.1 591.0 L 550.7 591.0 L 550.7 603.3 L 549.0 603.3 L 544.7 596.2 Q 544.2 595.3, 543.6 594.4 Q 543.1 593.4, 542.9 593.1 L 542.9 603.3 L 541.3 603.3 L 541.3 591.0 L 543.3 591.0 " fill="#0000FF"/>
<path class="atom-13" d="M 534.5 655.8 Q 534.5 652.7, 535.9 651.1 Q 537.4 649.5, 540.1 649.5 Q 542.7 649.5, 544.0 651.2 L 542.9 652.2 Q 541.9 650.9, 540.1 650.9 Q 538.2 650.9, 537.2 652.1 Q 536.3 653.4, 536.3 655.8 Q 536.3 658.2, 537.3 659.5 Q 538.3 660.7, 540.3 660.7 Q 541.7 660.7, 543.2 659.9 L 543.7 661.2 Q 543.1 661.6, 542.1 661.9 Q 541.1 662.1, 540.1 662.1 Q 537.4 662.1, 535.9 660.5 Q 534.5 658.8, 534.5 655.8 " fill="#00CC00"/>
<path class="atom-13" d="M 545.3 648.7 L 546.9 648.7 L 546.9 661.9 L 545.3 661.9 L 545.3 648.7 " fill="#00CC00"/>
<path class="atom-18" d="M 591.6 568.5 Q 591.6 565.4, 593.0 563.8 Q 594.5 562.2, 597.2 562.2 Q 599.8 562.2, 601.1 563.9 L 600.0 564.9 Q 599.0 563.6, 597.2 563.6 Q 595.4 563.6, 594.4 564.8 Q 593.4 566.1, 593.4 568.5 Q 593.4 570.9, 594.4 572.2 Q 595.4 573.4, 597.4 573.4 Q 598.8 573.4, 600.4 572.6 L 600.9 573.9 Q 600.2 574.3, 599.2 574.6 Q 598.3 574.8, 597.2 574.8 Q 594.5 574.8, 593.0 573.2 Q 591.6 571.5, 591.6 568.5 " fill="#00CC00"/>
<path class="atom-18" d="M 602.4 561.4 L 604.0 561.4 L 604.0 574.6 L 602.4 574.6 L 602.4 561.4 " fill="#00CC00"/>
<path class="legend" d="M 499.6 716.2 Q 499.6 714.1, 500.6 713.1 Q 501.5 712.0, 503.4 712.0 Q 505.1 712.0, 506.0 713.2 L 505.2 713.8 Q 504.5 712.9, 503.4 712.9 Q 502.1 712.9, 501.5 713.8 Q 500.8 714.6, 500.8 716.2 Q 500.8 717.8, 501.5 718.6 Q 502.2 719.5, 503.5 719.5 Q 504.4 719.5, 505.4 718.9 L 505.8 719.8 Q 505.3 720.1, 504.7 720.2 Q 504.0 720.4, 503.3 720.4 Q 501.5 720.4, 500.6 719.3 Q 499.6 718.2, 499.6 716.2 " fill="#000000"/>
<path class="legend" d="M 506.8 712.1 L 507.9 712.1 L 507.9 720.3 L 506.8 720.3 L 506.8 712.1 " fill="#000000"/>
<path class="legend" d="M 512.0 712.1 Q 513.8 712.1, 514.8 713.2 Q 515.8 714.2, 515.8 716.2 Q 515.8 718.1, 514.8 719.2 Q 513.8 720.3, 512.0 720.3 L 509.4 720.3 L 509.4 712.1 L 512.0 712.1 M 512.0 719.4 Q 513.3 719.4, 514.0 718.6 Q 514.6 717.8, 514.6 716.2 Q 514.6 714.6, 514.0 713.8 Q 513.3 713.0, 512.0 713.0 L 510.5 713.0 L 510.5 719.4 L 512.0 719.4 " fill="#000000"/>
<path class="legend" d="M 516.7 718.9 L 517.9 718.9 L 517.9 720.1 L 516.7 720.1 L 516.7 718.9 M 516.7 715.0 L 517.9 715.0 L 517.9 716.1 L 516.7 716.1 L 516.7 715.0 " fill="#000000"/>
<path class="legend" d="" fill="#000000"/>
<path class="legend" d="M 527.4 716.0 Q 528.2 716.2, 528.6 716.7 Q 529.0 717.2, 529.0 718.0 Q 529.0 718.7, 528.6 719.3 Q 528.3 719.8, 527.6 720.1 Q 527.0 720.4, 526.2 720.4 Q 525.3 720.4, 524.6 720.1 Q 524.0 719.8, 523.5 719.2 L 524.1 718.5 Q 524.6 719.1, 525.1 719.3 Q 525.5 719.5, 526.2 719.5 Q 526.9 719.5, 527.4 719.1 Q 527.8 718.7, 527.8 718.0 Q 527.8 717.2, 527.3 716.8 Q 526.9 716.4, 525.9 716.4 L 525.3 716.4 L 525.3 715.6 L 525.8 715.6 Q 526.7 715.6, 527.2 715.2 Q 527.6 714.8, 527.6 714.1 Q 527.6 713.6, 527.2 713.3 Q 526.8 712.9, 526.2 712.9 Q 525.5 712.9, 525.1 713.2 Q 524.6 713.4, 524.3 714.0 L 523.5 713.6 Q 523.8 712.9, 524.5 712.5 Q 525.2 712.0, 526.2 712.0 Q 527.4 712.0, 528.1 712.6 Q 528.8 713.1, 528.8 714.1 Q 528.8 714.8, 528.4 715.2 Q 528.1 715.7, 527.4 716.0 " fill="#000000"/>
<path class="legend" d="M 533.1 720.4 Q 531.6 720.4, 530.8 719.3 Q 530.1 718.2, 530.1 716.2 Q 530.1 714.2, 530.8 713.1 Q 531.6 712.0, 533.1 712.0 Q 534.6 712.0, 535.3 713.1 Q 536.1 714.2, 536.1 716.2 Q 536.1 718.2, 535.3 719.3 Q 534.6 720.4, 533.1 720.4 M 533.1 719.5 Q 534.0 719.5, 534.4 718.6 Q 534.9 717.8, 534.9 716.2 Q 534.9 714.6, 534.4 713.7 Q 534.0 712.9, 533.1 712.9 Q 532.2 712.9, 531.7 713.7 Q 531.2 714.6, 531.2 716.2 Q 531.2 717.8, 531.7 718.6 Q 532.2 719.5, 533.1 719.5 " fill="#000000"/>
<path class="legend" d="M 541.2 716.0 Q 542.0 716.2, 542.4 716.7 Q 542.8 717.2, 542.8 718.0 Q 542.8 718.7, 542.4 719.3 Q 542.1 719.8, 541.4 720.1 Q 540.8 720.4, 540.0 720.4 Q 539.1 720.4, 538.4 720.1 Q 537.8 719.8, 537.2 719.2 L 537.9 718.5 Q 538.4 719.1, 538.8 719.3 Q 539.3 719.5, 540.0 719.5 Q 540.7 719.5, 541.1 719.1 Q 541.6 718.7, 541.6 718.0 Q 541.6 717.2, 541.1 716.8 Q 540.7 716.4, 539.6 716.4 L 539.1 716.4 L 539.1 715.6 L 539.6 715.6 Q 540.5 715.6, 540.9 715.2 Q 541.4 714.8, 541.4 714.1 Q 541.4 713.6, 541.0 713.3 Q 540.6 712.9, 540.0 712.9 Q 539.3 712.9, 538.8 713.2 Q 538.4 713.4, 538.1 714.0 L 537.3 713.6 Q 537.6 712.9, 538.3 712.5 Q 539.0 712.0, 540.0 712.0 Q 541.2 712.0, 541.9 712.6 Q 542.6 713.1, 542.6 714.1 Q 542.6 714.8, 542.2 715.2 Q 541.9 715.7, 541.2 716.0 " fill="#000000"/>
<path class="legend" d="M 547.8 716.0 Q 548.6 716.2, 549.0 716.7 Q 549.4 717.2, 549.4 718.0 Q 549.4 718.7, 549.0 719.3 Q 548.7 719.8, 548.0 720.1 Q 547.4 720.4, 546.6 720.4 Q 545.7 720.4, 545.0 720.1 Q 544.4 719.8, 543.9 719.2 L 544.5 718.5 Q 545.0 719.1, 545.5 719.3 Q 545.9 719.5, 546.6 719.5 Q 547.3 719.5, 547.8 719.1 Q 548.2 718.7, 548.2 718.0 Q 548.2 717.2, 547.7 716.8 Q 547.3 716.4, 546.3 716.4 L 545.7 716.4 L 545.7 715.6 L 546.2 715.6 Q 547.1 715.6, 547.6 715.2 Q 548.0 714.8, 548.0 714.1 Q 548.0 713.6, 547.6 713.3 Q 547.2 712.9, 546.6 712.9 Q 545.9 712.9, 545.5 713.2 Q 545.0 713.4, 544.7 714.0 L 543.9 713.6 Q 544.2 712.9, 544.9 712.5 Q 545.6 712.0, 546.6 712.0 Q 547.8 712.0, 548.5 712.6 Q 549.2 713.1, 549.2 714.1 Q 549.2 714.8, 548.8 715.2 Q 548.5 715.7, 547.8 716.0 " fill="#000000"/>
<path class="legend" d="M 501.8 728.7 L 500.8 728.7 L 499.9 722.0 L 497.7 728.7 L 496.6 728.7 L 494.4 722.0 L 493.5 728.7 L 492.4 728.7 L 493.5 720.5 L 494.9 720.5 L 497.1 727.1 L 499.4 720.5 L 500.8 720.5 L 501.8 728.7 " fill="#000000"/>
<path class="legend" d="M 513.3 720.5 L 514.4 720.5 L 512.2 728.7 L 510.5 728.7 L 508.7 721.9 L 506.9 728.7 L 505.3 728.7 L 503.1 720.5 L 504.2 720.5 L 506.1 727.7 L 508.0 720.5 L 509.5 720.5 L 511.3 727.7 L 513.3 720.5 " fill="#000000"/>
<path class="legend" d="M 515.2 727.3 L 516.4 727.3 L 516.4 728.5 L 515.2 728.5 L 515.2 727.3 M 515.2 723.4 L 516.4 723.4 L 516.4 724.5 L 515.2 724.5 L 515.2 723.4 " fill="#000000"/>
<path class="legend" d="" fill="#000000"/>
<path class="legend" d="M 522.1 722.1 Q 522.4 721.3, 523.2 720.9 Q 523.9 720.4, 524.9 720.4 Q 526.1 720.4, 526.8 721.1 Q 527.5 721.8, 527.5 722.9 Q 527.5 724.2, 526.6 725.3 Q 525.7 726.4, 523.9 727.8 L 527.6 727.8 L 527.6 728.7 L 522.1 728.7 L 522.1 727.9 Q 523.6 726.8, 524.6 726.0 Q 525.5 725.2, 525.9 724.5 Q 526.3 723.8, 526.3 723.0 Q 526.3 722.2, 526.0 721.8 Q 525.6 721.3, 524.9 721.3 Q 524.2 721.3, 523.8 721.6 Q 523.3 721.9, 523.0 722.5 L 522.1 722.1 " fill="#000000"/>
<path class="legend" d="M 531.6 720.4 Q 533.1 720.4, 533.8 721.4 Q 534.5 722.4, 534.5 724.4 Q 534.5 726.5, 533.6 727.7 Q 532.7 728.8, 531.0 728.8 Q 530.5 728.8, 530.0 728.7 Q 529.6 728.6, 529.2 728.3 L 529.6 727.5 Q 530.2 727.9, 531.0 727.9 Q 532.1 727.9, 532.7 727.1 Q 533.3 726.4, 533.4 724.8 Q 532.9 725.2, 532.4 725.4 Q 531.9 725.6, 531.3 725.6 Q 530.6 725.6, 530.0 725.3 Q 529.5 725.0, 529.2 724.4 Q 528.8 723.9, 528.8 723.1 Q 528.8 722.3, 529.2 721.7 Q 529.5 721.1, 530.2 720.8 Q 530.8 720.4, 531.6 720.4 M 530.0 723.1 Q 530.0 723.9, 530.4 724.3 Q 530.8 724.7, 531.5 724.7 Q 532.0 724.7, 532.5 724.5 Q 533.0 724.3, 533.4 723.9 Q 533.3 722.6, 532.9 722.0 Q 532.5 721.4, 531.6 721.4 Q 531.1 721.4, 530.8 721.6 Q 530.4 721.8, 530.2 722.2 Q 530.0 722.6, 530.0 723.1 " fill="#000000"/>
<path class="legend" d="M 539.0 723.6 Q 539.8 723.6, 540.3 723.9 Q 540.9 724.2, 541.2 724.8 Q 541.5 725.3, 541.5 726.1 Q 541.5 726.9, 541.2 727.5 Q 540.8 728.1, 540.2 728.5 Q 539.6 728.8, 538.8 728.8 Q 537.3 728.8, 536.6 727.8 Q 535.8 726.8, 535.8 724.8 Q 535.8 722.7, 536.7 721.5 Q 537.6 720.4, 539.4 720.4 Q 539.9 720.4, 540.3 720.5 Q 540.8 720.6, 541.2 720.9 L 540.7 721.7 Q 540.1 721.3, 539.4 721.3 Q 538.2 721.3, 537.7 722.1 Q 537.1 722.8, 537.0 724.4 Q 537.4 724.0, 537.9 723.8 Q 538.5 723.6, 539.0 723.6 M 538.8 727.8 Q 539.2 727.8, 539.6 727.6 Q 539.9 727.4, 540.1 727.0 Q 540.4 726.6, 540.4 726.1 Q 540.4 725.3, 539.9 724.9 Q 539.5 724.5, 538.8 724.5 Q 538.3 724.5, 537.8 724.7 Q 537.3 724.9, 537.0 725.3 Q 537.0 726.6, 537.5 727.2 Q 537.9 727.8, 538.8 727.8 " fill="#000000"/>
<path class="legend" d="M 542.7 727.5 L 543.8 727.5 L 543.8 728.7 L 542.7 728.7 L 542.7 727.5 " fill="#000000"/>
<path class="legend" d="M 545.5 727.8 L 547.3 727.8 L 547.3 721.6 L 545.3 722.3 L 545.1 721.6 L 547.6 720.5 L 548.4 720.6 L 548.4 727.8 L 550.0 727.8 L 550.0 728.7 L 545.5 728.7 L 545.5 727.8 " fill="#000000"/>
<path class="legend" d="M 554.0 723.6 Q 554.7 723.6, 555.3 723.9 Q 555.9 724.2, 556.2 724.8 Q 556.6 725.3, 556.6 726.1 Q 556.6 727.0, 556.1 727.6 Q 555.7 728.2, 555.1 728.5 Q 554.4 728.8, 553.6 728.8 Q 552.9 728.8, 552.2 728.5 Q 551.5 728.2, 551.0 727.7 L 551.7 727.0 Q 552.1 727.4, 552.6 727.6 Q 553.1 727.9, 553.7 727.9 Q 554.4 727.9, 554.9 727.4 Q 555.4 727.0, 555.4 726.1 Q 555.4 725.3, 554.9 724.9 Q 554.4 724.4, 553.6 724.4 Q 552.9 724.4, 552.1 724.8 L 551.4 724.5 L 551.8 720.5 L 556.0 720.5 L 555.9 721.4 L 552.8 721.4 L 552.5 723.9 Q 553.3 723.6, 554.0 723.6 " fill="#000000"/>
<path class="legend" d="M 497.6 728.9 L 498.7 728.9 L 498.7 736.1 L 502.5 736.1 L 502.5 737.1 L 497.6 737.1 L 497.6 728.9 " fill="#000000"/>
<path class="legend" d="M 503.2 734.1 Q 503.2 732.7, 503.9 731.8 Q 504.7 731.0, 506.0 731.0 Q 507.4 731.0, 508.1 731.8 Q 508.9 732.7, 508.9 734.1 Q 508.9 735.6, 508.1 736.4 Q 507.4 737.2, 506.0 737.2 Q 504.7 737.2, 503.9 736.4 Q 503.2 735.6, 503.2 734.1 M 504.3 734.1 Q 504.3 735.2, 504.8 735.8 Q 505.2 736.3, 506.0 736.3 Q 506.9 736.3, 507.3 735.8 Q 507.7 735.2, 507.7 734.1 Q 507.7 733.0, 507.3 732.5 Q 506.9 731.9, 506.0 731.9 Q 505.2 731.9, 504.8 732.5 Q 504.3 733.0, 504.3 734.1 " fill="#000000"/>
<path class="legend" d="M 515.2 731.1 L 515.2 737.4 Q 515.2 740.0, 512.5 740.0 Q 511.2 740.0, 510.0 739.4 L 510.4 738.6 Q 511.0 738.9, 511.5 739.0 Q 511.9 739.1, 512.5 739.1 Q 513.4 739.1, 513.7 738.7 Q 514.1 738.4, 514.1 737.5 L 514.1 736.4 Q 513.5 737.2, 512.4 737.2 Q 511.2 737.2, 510.5 736.4 Q 509.8 735.6, 509.8 734.2 Q 509.8 732.7, 510.6 731.9 Q 511.4 731.0, 512.9 731.0 Q 513.6 731.0, 514.3 731.3 L 514.3 731.1 L 515.2 731.1 M 512.5 736.3 Q 513.1 736.3, 513.5 736.0 Q 514.0 735.7, 514.1 735.1 L 514.1 732.1 Q 513.5 731.9, 512.9 731.9 Q 512.0 731.9, 511.4 732.5 Q 510.9 733.1, 510.9 734.2 Q 510.9 735.2, 511.3 735.8 Q 511.7 736.3, 512.5 736.3 " fill="#000000"/>
<path class="legend" d="M 519.0 728.9 Q 520.4 728.9, 521.1 729.5 Q 521.8 730.2, 521.8 731.3 Q 521.8 732.4, 521.1 733.1 Q 520.4 733.7, 519.0 733.7 L 517.7 733.7 L 517.7 737.1 L 516.6 737.1 L 516.6 728.9 L 519.0 728.9 M 519.0 732.8 Q 519.8 732.8, 520.2 732.4 Q 520.7 732.0, 520.7 731.3 Q 520.7 730.6, 520.2 730.2 Q 519.8 729.8, 519.0 729.8 L 517.7 729.8 L 517.7 732.8 L 519.0 732.8 " fill="#000000"/>
<path class="legend" d="M 522.8 735.7 L 523.9 735.7 L 523.9 736.9 L 522.8 736.9 L 522.8 735.7 M 522.8 731.8 L 523.9 731.8 L 523.9 732.9 L 522.8 732.9 L 522.8 731.8 " fill="#000000"/>
<path class="legend" d="" fill="#000000"/>
<path class="legend" d="M 534.8 734.3 L 535.8 734.3 L 535.8 735.2 L 534.8 735.2 L 534.8 737.1 L 533.7 737.1 L 533.7 735.2 L 529.5 735.2 L 529.5 734.5 L 533.1 728.9 L 534.8 728.9 L 534.8 734.3 M 530.8 734.3 L 533.7 734.3 L 533.7 729.6 L 530.8 734.3 " fill="#000000"/>
<path class="legend" d="M 536.8 735.9 L 537.9 735.9 L 537.9 737.1 L 536.8 737.1 L 536.8 735.9 " fill="#000000"/>
<path class="legend" d="M 543.0 732.8 Q 543.8 733.0, 544.2 733.5 Q 544.6 734.0, 544.6 734.8 Q 544.6 735.5, 544.3 736.1 Q 543.9 736.6, 543.3 736.9 Q 542.6 737.2, 541.8 737.2 Q 540.9 737.2, 540.3 736.9 Q 539.6 736.6, 539.1 736.0 L 539.8 735.3 Q 540.3 735.9, 540.7 736.1 Q 541.1 736.3, 541.8 736.3 Q 542.5 736.3, 543.0 735.9 Q 543.4 735.5, 543.4 734.8 Q 543.4 734.0, 543.0 733.6 Q 542.5 733.2, 541.5 733.2 L 540.9 733.2 L 540.9 732.4 L 541.4 732.4 Q 542.3 732.4, 542.8 732.0 Q 543.3 731.6, 543.3 730.9 Q 543.3 730.4, 542.9 730.0 Q 542.5 729.7, 541.8 729.7 Q 541.1 729.7, 540.7 730.0 Q 540.3 730.2, 540.0 730.8 L 539.2 730.4 Q 539.4 729.7, 540.1 729.3 Q 540.8 728.8, 541.8 728.8 Q 543.0 728.8, 543.7 729.4 Q 544.4 729.9, 544.4 730.9 Q 544.4 731.6, 544.1 732.0 Q 543.7 732.5, 543.0 732.8 " fill="#000000"/>
<path class="legend" d="M 548.9 732.0 Q 549.6 732.0, 550.2 732.3 Q 550.8 732.6, 551.1 733.2 Q 551.4 733.7, 551.4 734.5 Q 551.4 735.3, 551.0 735.9 Q 550.7 736.5, 550.1 736.8 Q 549.4 737.2, 548.6 737.2 Q 547.2 737.2, 546.4 736.2 Q 545.7 735.2, 545.7 733.2 Q 545.7 731.1, 546.6 729.9 Q 547.5 728.8, 549.3 728.8 Q 549.8 728.8, 550.2 728.9 Q 550.6 729.0, 551.1 729.3 L 550.6 730.0 Q 550.0 729.7, 549.3 729.7 Q 548.1 729.7, 547.5 730.5 Q 546.9 731.2, 546.9 732.8 Q 547.3 732.4, 547.8 732.2 Q 548.3 732.0, 548.9 732.0 M 548.6 736.2 Q 549.1 736.2, 549.4 736.0 Q 549.8 735.8, 550.0 735.4 Q 550.2 735.0, 550.2 734.5 Q 550.2 733.7, 549.8 733.3 Q 549.4 732.9, 548.7 732.9 Q 548.2 732.9, 547.7 733.1 Q 547.2 733.3, 546.9 733.7 Q 546.9 735.0, 547.3 735.6 Q 547.8 736.2, 548.6 736.2 " fill="#000000"/>
</svg>