<svg xmlns="http://www.w3.org/2000/svg" xmlns:rdkit="http://www.rdkit.org/xml" xmlns:xlink="http://www.w3.org/1999/xlink" version="1.1" baseProfile="full" xml:space="preserve" width="600px" height="300px" viewBox="0 0 600 300">
<!-- END OF HEADER -->
<rect style="opacity:1.0;fill:#FFFFFF;stroke:none" width="300.0" height="300.0" x="0.0" y="0.0"> </rect>
<path class="bond-0 atom-0 atom-1" d="M 255.0,118.1 L 185.0,158.4" style="fill:none;fill-rule:evenodd;stroke:#000000;stroke-width:2.0px;stroke-linecap:butt;stroke-linejoin:miter;stroke-opacity:1"/>
<path class="bond-1 atom-1 atom-2" d="M 185.0,158.4 L 115.0,118.0" style="fill:none;fill-rule:evenodd;stroke:#000000;stroke-width:2.0px;stroke-linecap:butt;stroke-linejoin:miter;stroke-opacity:1"/>
<path class="bond-1 atom-1 atom-2" d="M 185.0,144.4 L 121.1,107.5" style="fill:none;fill-rule:evenodd;stroke:#000000;stroke-width:2.0px;stroke-linecap:butt;stroke-linejoin:miter;stroke-opacity:1"/>
<path class="bond-2 atom-2 atom-3" d="M 115.0,118.0 L 45.0,158.3" style="fill:none;fill-rule:evenodd;stroke:#000000;stroke-width:2.0px;stroke-linecap:butt;stroke-linejoin:miter;stroke-opacity:1"/>
<path d="M 188.5,156.4 L 185.0,158.4 L 181.5,156.4" style="fill:none;stroke:#000000;stroke-width:2.0px;stroke-linecap:butt;stroke-linejoin:miter;stroke-miterlimit:10;stroke-opacity:1;"/>
<path d="M 118.5,120.0 L 115.0,118.0 L 111.5,120.0" style="fill:none;stroke:#000000;stroke-width:2.0px;stroke-linecap:butt;stroke-linejoin:miter;stroke-miterlimit:10;stroke-opacity:1;"/>
<path class="CIP_Code" d="M 127.8 161.4 Q 127.8 158.5, 128.6 156.2 Q 129.5 153.8, 131.1 151.3 L 132.2 152.0 Q 130.9 154.4, 130.3 156.5 Q 129.6 158.7, 129.6 161.4 Q 129.6 164.1, 130.3 166.2 Q 130.9 168.4, 132.2 170.8 L 131.1 171.5 Q 129.5 169.0, 128.6 166.7 Q 127.8 164.3, 127.8 161.4 " fill="#7F7FFF"/>
<path class="CIP_Code" d="M 133.3 152.9 L 141.7 152.9 L 141.7 154.6 L 135.2 154.6 L 135.2 158.9 L 141.1 158.9 L 141.1 160.5 L 135.2 160.5 L 135.2 165.4 L 141.9 165.4 L 141.9 167.1 L 133.3 167.1 L 133.3 152.9 " fill="#7F7FFF"/>
<path class="CIP_Code" d="M 147.9 161.4 Q 147.9 164.3, 147.1 166.7 Q 146.2 169.0, 144.6 171.5 L 143.5 170.8 Q 144.8 168.4, 145.4 166.2 Q 146.1 164.1, 146.1 161.4 Q 146.1 158.7, 145.4 156.5 Q 144.8 154.4, 143.5 152.0 L 144.6 151.3 Q 146.2 153.8, 147.1 156.2 Q 147.9 158.5, 147.9 161.4 " fill="#7F7FFF"/>
<path class="legend" d="M 113.8 244.9 L 115.2 244.9 L 115.2 254.9 L 113.8 254.9 L 113.8 244.9 " fill="#000000"/>
<path class="legend" d="M 117.3 253.4 Q 117.9 253.7, 118.4 253.8 Q 118.8 253.9, 119.3 253.9 Q 119.9 253.9, 120.3 253.6 Q 120.7 253.4, 120.7 252.9 Q 120.7 252.5, 120.5 252.3 Q 120.3 252.1, 120.0 252.0 Q 119.8 251.9, 119.2 251.7 Q 119.1 251.7, 118.5 251.5 Q 117.8 251.2, 117.5 250.8 Q 117.1 250.3, 117.1 249.6 Q 117.1 248.7, 117.8 248.1 Q 118.5 247.6, 119.8 247.6 Q 120.3 247.6, 120.8 247.7 Q 121.3 247.8, 121.8 248.0 L 121.5 249.1 Q 121.0 248.9, 120.6 248.8 Q 120.2 248.6, 119.8 248.6 Q 119.1 248.6, 118.8 248.9 Q 118.4 249.2, 118.4 249.6 Q 118.4 250.0, 118.7 250.2 Q 119.0 250.4, 119.6 250.6 Q 119.7 250.6, 119.8 250.7 L 120.2 250.8 Q 120.8 251.0, 121.1 251.2 Q 121.5 251.4, 121.7 251.8 Q 122.0 252.2, 122.0 252.8 Q 122.0 253.9, 121.2 254.4 Q 120.5 255.0, 119.3 255.0 Q 118.6 255.0, 118.1 254.9 Q 117.5 254.7, 116.9 254.5 L 117.3 253.4 " fill="#000000"/>
<path class="legend" d="M 123.2 251.3 Q 123.2 249.5, 124.1 248.5 Q 125.0 247.6, 126.6 247.6 Q 128.3 247.6, 129.1 248.5 Q 130.0 249.5, 130.0 251.3 Q 130.0 253.0, 129.1 254.0 Q 128.3 255.0, 126.6 255.0 Q 125.0 255.0, 124.1 254.0 Q 123.2 253.0, 123.2 251.3 M 124.5 251.3 Q 124.5 252.6, 125.1 253.3 Q 125.6 254.0, 126.6 254.0 Q 127.6 254.0, 128.1 253.3 Q 128.7 252.6, 128.7 251.3 Q 128.7 249.9, 128.1 249.3 Q 127.6 248.6, 126.6 248.6 Q 125.6 248.6, 125.1 249.3 Q 124.5 249.9, 124.5 251.3 " fill="#000000"/>
<path class="legend" d="M 139.5 247.6 Q 140.7 247.6, 141.3 248.2 Q 141.9 248.9, 141.9 250.1 L 141.9 254.9 L 140.6 254.9 L 140.6 250.2 Q 140.6 249.4, 140.3 249.0 Q 139.9 248.6, 139.2 248.6 Q 138.6 248.6, 138.0 248.9 Q 137.5 249.2, 137.2 249.7 Q 137.2 249.8, 137.2 250.1 L 137.2 254.9 L 135.9 254.9 L 135.9 250.2 Q 135.9 249.4, 135.5 249.0 Q 135.2 248.6, 134.5 248.6 Q 133.9 248.6, 133.3 248.9 Q 132.8 249.2, 132.5 249.7 L 132.5 254.9 L 131.2 254.9 L 131.2 247.7 L 132.2 247.7 L 132.4 248.7 Q 133.3 247.6, 134.7 247.6 Q 136.4 247.6, 137.0 248.8 Q 137.9 247.6, 139.5 247.6 " fill="#000000"/>
<path class="legend" d="M 143.5 251.3 Q 143.5 249.5, 144.4 248.5 Q 145.2 247.6, 146.8 247.6 Q 148.4 247.6, 149.1 248.5 Q 149.8 249.4, 149.8 251.2 L 149.8 251.4 L 144.8 251.4 Q 144.8 252.7, 145.4 253.3 Q 145.9 254.0, 147.0 254.0 Q 147.5 254.0, 148.0 253.8 Q 148.6 253.7, 149.2 253.4 L 149.6 254.3 Q 148.8 254.7, 148.2 254.8 Q 147.6 255.0, 146.9 255.0 Q 145.3 255.0, 144.4 254.0 Q 143.5 253.0, 143.5 251.3 M 146.8 248.6 Q 146.0 248.6, 145.5 249.1 Q 145.0 249.5, 144.9 250.5 L 148.5 250.5 Q 148.4 249.5, 148.0 249.1 Q 147.6 248.6, 146.8 248.6 " fill="#000000"/>
<path class="legend" d="M 151.9 247.7 L 152.1 248.7 Q 152.8 247.6, 154.1 247.6 Q 154.4 247.6, 155.0 247.7 L 154.8 248.9 Q 154.2 248.7, 153.8 248.7 Q 153.2 248.7, 152.9 249.0 Q 152.5 249.2, 152.2 249.7 L 152.2 254.9 L 150.8 254.9 L 150.8 247.7 L 151.9 247.7 " fill="#000000"/>
<path class="legend" d="" fill="#000000"/>
<path class="legend" d="M 169.9 248.7 L 167.9 248.7 L 167.5 251.2 L 169.4 251.2 L 169.3 252.3 L 167.3 252.3 L 166.9 254.9 L 165.8 254.9 L 166.2 252.3 L 163.9 252.3 L 163.4 254.9 L 162.3 254.9 L 162.8 252.3 L 160.8 252.3 L 161.0 251.2 L 162.9 251.2 L 163.4 248.7 L 161.4 248.7 L 161.6 247.7 L 163.6 247.7 L 164.0 245.0 L 165.1 245.0 L 164.6 247.7 L 167.0 247.7 L 167.5 245.0 L 168.6 245.0 L 168.1 247.7 L 170.0 247.7 L 169.9 248.7 M 166.4 251.2 L 166.8 248.7 L 164.5 248.7 L 164.0 251.2 L 166.4 251.2 " fill="#000000"/>
<path class="legend" d="M 170.8 253.2 L 172.2 253.2 L 172.2 254.6 L 170.8 254.6 L 170.8 253.2 M 170.8 248.4 L 172.2 248.4 L 172.2 249.8 L 170.8 249.8 L 170.8 248.4 " fill="#000000"/>
<path class="legend" d="" fill="#000000"/>
<path class="legend" d="M 182.5 255.0 Q 180.7 255.0, 179.8 253.6 Q 178.9 252.3, 178.9 249.9 Q 178.9 247.5, 179.8 246.2 Q 180.7 244.9, 182.5 244.9 Q 184.4 244.9, 185.3 246.2 Q 186.2 247.5, 186.2 249.9 Q 186.2 252.3, 185.2 253.6 Q 184.3 255.0, 182.5 255.0 M 182.5 253.9 Q 183.6 253.9, 184.2 252.9 Q 184.8 251.9, 184.8 249.9 Q 184.8 248.0, 184.2 247.0 Q 183.6 246.0, 182.5 246.0 Q 181.5 246.0, 180.9 247.0 Q 180.3 248.0, 180.3 249.9 Q 180.3 251.9, 180.9 252.9 Q 181.5 253.9, 182.5 253.9 " fill="#000000"/>
<path class="bond-0 atom-0 atom-1" d="M 519.9,72.3 L 520.0,153.1" style="fill:none;fill-rule:evenodd;stroke:#000000;stroke-width:2.0px;stroke-linecap:butt;stroke-linejoin:miter;stroke-opacity:1"/>
<path class="bond-1 atom-1 atom-2" d="M 520.0,153.1 L 450.0,193.6" style="fill:none;fill-rule:evenodd;stroke:#000000;stroke-width:2.0px;stroke-linecap:butt;stroke-linejoin:miter;stroke-opacity:1"/>
<path class="bond-1 atom-1 atom-2" d="M 507.9,146.1 L 450.0,179.6" style="fill:none;fill-rule:evenodd;stroke:#000000;stroke-width:2.0px;stroke-linecap:butt;stroke-linejoin:miter;stroke-opacity:1"/>
<path class="bond-2 atom-2 atom-3" d="M 450.0,193.6 L 380.0,153.2" style="fill:none;fill-rule:evenodd;stroke:#000000;stroke-width:2.0px;stroke-linecap:butt;stroke-linejoin:miter;stroke-opacity:1"/>
<path d="M 520.0,149.1 L 520.0,153.1 L 516.5,155.1" style="fill:none;stroke:#000000;stroke-width:2.0px;stroke-linecap:butt;stroke-linejoin:miter;stroke-miterlimit:10;stroke-opacity:1;"/>
<path d="M 453.5,191.6 L 450.0,193.6 L 446.5,191.6" style="fill:none;stroke:#000000;stroke-width:2.0px;stroke-linecap:butt;stroke-linejoin:miter;stroke-miterlimit:10;stroke-opacity:1;"/>
<path class="CIP_Code" d="M 486.7 196.6 Q 486.7 193.7, 487.5 191.3 Q 488.3 189.0, 490.0 186.4 L 491.1 187.1 Q 489.8 189.5, 489.1 191.7 Q 488.5 193.8, 488.5 196.6 Q 488.5 199.3, 489.1 201.4 Q 489.8 203.5, 491.1 206.0 L 490.0 206.7 Q 488.3 204.2, 487.5 201.8 Q 486.7 199.5, 486.7 196.6 " fill="#7F7FFF"/>
<path class="CIP_Code" d="M 492.2 200.8 L 499.3 189.7 L 492.4 189.7 L 492.4 188.1 L 501.7 188.1 L 501.7 189.5 L 494.6 200.6 L 501.6 200.6 L 501.6 202.3 L 492.2 202.3 L 492.2 200.8 " fill="#7F7FFF"/>
<path class="CIP_Code" d="M 507.6 196.6 Q 507.6 199.5, 506.8 201.8 Q 506.0 204.2, 504.3 206.7 L 503.2 206.0 Q 504.5 203.5, 505.2 201.4 Q 505.8 199.3, 505.8 196.6 Q 505.8 193.8, 505.2 191.7 Q 504.5 189.5, 503.2 187.1 L 504.3 186.4 Q 506.0 189.0, 506.8 191.3 Q 507.6 193.7, 507.6 196.6 " fill="#7F7FFF"/>
<path class="legend" d="M 414.5 244.9 L 415.9 244.9 L 415.9 254.9 L 414.5 254.9 L 414.5 244.9 " fill="#000000"/>
<path class="legend" d="M 418.0 253.4 Q 418.6 253.7, 419.1 253.8 Q 419.5 253.9, 420.0 253.9 Q 420.6 253.9, 421.0 253.6 Q 421.3 253.4, 421.3 252.9 Q 421.3 252.5, 421.2 252.3 Q 421.0 252.1, 420.7 252.0 Q 420.5 251.9, 419.9 251.7 Q 419.8 251.7, 419.1 251.5 Q 418.5 251.2, 418.1 250.8 Q 417.8 250.3, 417.8 249.6 Q 417.8 248.7, 418.5 248.1 Q 419.1 247.6, 420.5 247.6 Q 421.0 247.6, 421.5 247.7 Q 422.0 247.8, 422.5 248.0 L 422.1 249.0 Q 421.7 248.9, 421.3 248.8 Q 420.9 248.6, 420.5 248.6 Q 419.8 248.6, 419.5 248.9 Q 419.1 249.2, 419.1 249.6 Q 419.1 250.0, 419.4 250.2 Q 419.7 250.4, 420.2 250.6 Q 420.4 250.6, 420.5 250.7 L 420.9 250.8 Q 421.4 251.0, 421.8 251.2 Q 422.2 251.4, 422.4 251.8 Q 422.7 252.2, 422.7 252.8 Q 422.7 253.9, 421.9 254.4 Q 421.2 255.0, 420.0 255.0 Q 419.3 255.0, 418.7 254.9 Q 418.2 254.7, 417.6 254.5 L 418.0 253.4 " fill="#000000"/>
<path class="legend" d="M 423.9 251.3 Q 423.9 249.5, 424.8 248.5 Q 425.6 247.6, 427.3 247.6 Q 428.9 247.6, 429.8 248.5 Q 430.7 249.5, 430.7 251.3 Q 430.7 253.0, 429.8 254.0 Q 428.9 255.0, 427.3 255.0 Q 425.6 255.0, 424.8 254.0 Q 423.9 253.0, 423.9 251.3 M 425.2 251.3 Q 425.2 252.6, 425.7 253.3 Q 426.3 253.9, 427.3 253.9 Q 428.3 253.9, 428.8 253.3 Q 429.4 252.6, 429.4 251.3 Q 429.4 249.9, 428.8 249.3 Q 428.3 248.6, 427.3 248.6 Q 426.3 248.6, 425.7 249.3 Q 425.2 249.9, 425.2 251.3 " fill="#000000"/>
<path class="legend" d="M 440.1 247.6 Q 441.3 247.6, 442.0 248.2 Q 442.6 248.9, 442.6 250.1 L 442.6 254.9 L 441.3 254.9 L 441.3 250.2 Q 441.3 249.4, 440.9 249.0 Q 440.6 248.6, 439.9 248.6 Q 439.2 248.6, 438.7 248.9 Q 438.2 249.2, 437.8 249.7 Q 437.9 249.8, 437.9 250.1 L 437.9 254.9 L 436.5 254.9 L 436.5 250.2 Q 436.5 249.4, 436.2 249.0 Q 435.9 248.6, 435.2 248.6 Q 434.5 248.6, 434.0 248.9 Q 433.5 249.2, 433.1 249.7 L 433.1 254.9 L 431.8 254.9 L 431.8 247.7 L 432.9 247.7 L 433.0 248.7 Q 434.0 247.6, 435.4 247.6 Q 437.1 247.6, 437.6 248.8 Q 438.6 247.6, 440.1 247.6 " fill="#000000"/>
<path class="legend" d="M 444.1 251.3 Q 444.1 249.5, 445.0 248.5 Q 445.9 247.6, 447.5 247.6 Q 449.1 247.6, 449.8 248.5 Q 450.5 249.4, 450.5 251.2 L 450.5 251.4 L 445.5 251.4 Q 445.5 252.7, 446.0 253.3 Q 446.6 253.9, 447.6 253.9 Q 448.2 253.9, 448.7 253.8 Q 449.2 253.7, 449.8 253.4 L 450.2 254.3 Q 449.5 254.7, 448.9 254.8 Q 448.2 255.0, 447.5 255.0 Q 445.9 255.0, 445.0 254.0 Q 444.1 253.0, 444.1 251.3 M 447.5 248.6 Q 446.7 248.6, 446.2 249.1 Q 445.7 249.5, 445.5 250.5 L 449.1 250.5 Q 449.0 249.5, 448.6 249.0 Q 448.2 248.6, 447.5 248.6 " fill="#000000"/>
<path class="legend" d="M 452.6 247.7 L 452.7 248.7 Q 453.5 247.6, 454.7 247.6 Q 455.1 247.6, 455.6 247.7 L 455.4 248.9 Q 454.8 248.7, 454.5 248.7 Q 453.9 248.7, 453.5 249.0 Q 453.1 249.2, 452.8 249.7 L 452.8 254.9 L 451.5 254.9 L 451.5 247.7 L 452.6 247.7 " fill="#000000"/>
<path class="legend" d="" fill="#000000"/>
<path class="legend" d="M 470.5 248.7 L 468.6 248.7 L 468.1 251.2 L 470.0 251.2 L 469.9 252.3 L 468.0 252.3 L 467.5 254.9 L 466.4 254.9 L 466.8 252.3 L 464.5 252.3 L 464.0 254.9 L 462.9 254.9 L 463.4 252.3 L 461.4 252.3 L 461.6 251.2 L 463.6 251.2 L 464.0 248.7 L 462.0 248.7 L 462.2 247.7 L 464.2 247.7 L 464.6 245.0 L 465.7 245.0 L 465.3 247.7 L 467.6 247.7 L 468.1 245.0 L 469.2 245.0 L 468.7 247.7 L 470.7 247.7 L 470.5 248.7 M 467.0 251.2 L 467.4 248.7 L 465.1 248.7 L 464.7 251.2 L 467.0 251.2 " fill="#000000"/>
<path class="legend" d="M 471.4 253.2 L 472.8 253.2 L 472.8 254.6 L 471.4 254.6 L 471.4 253.2 M 471.4 248.4 L 472.8 248.4 L 472.8 249.8 L 471.4 249.8 L 471.4 248.4 " fill="#000000"/>
<path class="legend" d="" fill="#000000"/>
<path class="legend" d="M 480.0 253.8 L 482.2 253.8 L 482.2 246.3 L 479.8 247.1 L 479.5 246.3 L 482.5 244.9 L 483.5 245.1 L 483.5 253.8 L 485.5 253.8 L 485.5 254.9 L 480.0 254.9 L 480.0 253.8 " fill="#000000"/>
</svg>