<svg xmlns="http://www.w3.org/2000/svg" xmlns:rdkit="http://www.rdkit.org/xml" xmlns:xlink="http://www.w3.org/1999/xlink" version="1.1" baseProfile="full" xml:space="preserve" width="700px" height="800px" viewBox="0 0 700 800">
<!-- END OF HEADER -->
<rect style="opacity:1.0;fill:#FFFFFF;stroke:none" width="350.0" height="400.0" x="0.0" y="0.0"> </rect>
<path class="bond-0 atom-0 atom-1" d="M 77.7,239.9 L 102.9,225.4" style="fill:none;fill-rule:evenodd;stroke:#000000;stroke-width:2.0px;stroke-linecap:butt;stroke-linejoin:miter;stroke-opacity:1"/>
<path class="bond-1 atom-1 atom-2" d="M 102.9,225.4 L 102.9,196.3" style="fill:none;fill-rule:evenodd;stroke:#000000;stroke-width:2.0px;stroke-linecap:butt;stroke-linejoin:miter;stroke-opacity:1"/>
<path class="bond-2 atom-1 atom-3" d="M 102.9,225.4 L 128.0,240.0" style="fill:none;fill-rule:evenodd;stroke:#000000;stroke-width:2.0px;stroke-linecap:butt;stroke-linejoin:miter;stroke-opacity:1"/>
<path class="bond-3 atom-3 atom-4" d="M 128.0,240.0 L 153.2,225.5" style="fill:none;fill-rule:evenodd;stroke:#000000;stroke-width:2.0px;stroke-linecap:butt;stroke-linejoin:miter;stroke-opacity:1"/>
<path class="bond-4 atom-4 atom-5" d="M 153.2,225.5 L 178.4,240.0" style="fill:none;fill-rule:evenodd;stroke:#000000;stroke-width:2.0px;stroke-linecap:butt;stroke-linejoin:miter;stroke-opacity:1"/>
<path class="bond-4 atom-4 atom-5" d="M 157.6,222.9 L 178.4,235.0" style="fill:none;fill-rule:evenodd;stroke:#000000;stroke-width:2.0px;stroke-linecap:butt;stroke-linejoin:miter;stroke-opacity:1"/>
<path class="bond-5 atom-5 atom-6" d="M 178.4,240.0 L 203.6,225.5" style="fill:none;fill-rule:evenodd;stroke:#000000;stroke-width:2.0px;stroke-linecap:butt;stroke-linejoin:miter;stroke-opacity:1"/>
<path class="bond-6 atom-6 atom-7" d="M 203.6,225.5 L 203.6,196.4" style="fill:none;fill-rule:evenodd;stroke:#000000;stroke-width:2.0px;stroke-linecap:butt;stroke-linejoin:miter;stroke-opacity:1"/>
<path class="bond-6 atom-6 atom-7" d="M 199.3,223.0 L 199.3,198.9" style="fill:none;fill-rule:evenodd;stroke:#000000;stroke-width:2.0px;stroke-linecap:butt;stroke-linejoin:miter;stroke-opacity:1"/>
<path class="bond-7 atom-7 atom-8" d="M 203.6,196.4 L 228.8,181.9" style="fill:none;fill-rule:evenodd;stroke:#000000;stroke-width:2.0px;stroke-linecap:butt;stroke-linejoin:miter;stroke-opacity:1"/>
<path class="bond-8 atom-8 atom-9" d="M 228.8,181.9 L 254.0,196.4" style="fill:none;fill-rule:evenodd;stroke:#000000;stroke-width:2.0px;stroke-linecap:butt;stroke-linejoin:miter;stroke-opacity:1"/>
<path class="bond-9 atom-8 atom-10" d="M 228.8,181.9 L 228.9,152.8" style="fill:none;fill-rule:evenodd;stroke:#000000;stroke-width:2.0px;stroke-linecap:butt;stroke-linejoin:miter;stroke-opacity:1"/>
<path class="bond-10 atom-10 atom-11" d="M 231.1,151.5 L 221.2,145.9" style="fill:none;fill-rule:evenodd;stroke:#000000;stroke-width:2.0px;stroke-linecap:butt;stroke-linejoin:miter;stroke-opacity:1"/>
<path class="bond-10 atom-10 atom-11" d="M 221.2,145.9 L 211.4,140.2" style="fill:none;fill-rule:evenodd;stroke:#FF0000;stroke-width:2.0px;stroke-linecap:butt;stroke-linejoin:miter;stroke-opacity:1"/>
<path class="bond-10 atom-10 atom-11" d="M 228.9,155.3 L 219.1,149.6" style="fill:none;fill-rule:evenodd;stroke:#000000;stroke-width:2.0px;stroke-linecap:butt;stroke-linejoin:miter;stroke-opacity:1"/>
<path class="bond-10 atom-10 atom-11" d="M 219.1,149.6 L 209.2,144.0" style="fill:none;fill-rule:evenodd;stroke:#FF0000;stroke-width:2.0px;stroke-linecap:butt;stroke-linejoin:miter;stroke-opacity:1"/>
<path class="bond-11 atom-10 atom-12" d="M 228.9,152.8 L 238.2,147.4" style="fill:none;fill-rule:evenodd;stroke:#000000;stroke-width:2.0px;stroke-linecap:butt;stroke-linejoin:miter;stroke-opacity:1"/>
<path class="bond-11 atom-10 atom-12" d="M 238.2,147.4 L 247.4,142.1" style="fill:none;fill-rule:evenodd;stroke:#FF0000;stroke-width:2.0px;stroke-linecap:butt;stroke-linejoin:miter;stroke-opacity:1"/>
<path class="bond-12 atom-7 atom-13" d="M 203.6,196.4 L 178.5,181.8" style="fill:none;fill-rule:evenodd;stroke:#000000;stroke-width:2.0px;stroke-linecap:butt;stroke-linejoin:miter;stroke-opacity:1"/>
<path class="bond-13 atom-13 atom-14" d="M 178.5,181.8 L 153.3,196.4" style="fill:none;fill-rule:evenodd;stroke:#000000;stroke-width:2.0px;stroke-linecap:butt;stroke-linejoin:miter;stroke-opacity:1"/>
<path class="bond-13 atom-13 atom-14" d="M 178.5,186.9 L 157.6,198.9" style="fill:none;fill-rule:evenodd;stroke:#000000;stroke-width:2.0px;stroke-linecap:butt;stroke-linejoin:miter;stroke-opacity:1"/>
<path class="bond-14 atom-14 atom-4" d="M 153.3,196.4 L 153.2,225.5" style="fill:none;fill-rule:evenodd;stroke:#000000;stroke-width:2.0px;stroke-linecap:butt;stroke-linejoin:miter;stroke-opacity:1"/>
<path d="M 126.8,239.2 L 128.0,240.0 L 129.3,239.2" style="fill:none;stroke:#000000;stroke-width:2.0px;stroke-linecap:butt;stroke-linejoin:miter;stroke-miterlimit:10;stroke-opacity:1;"/>
<path d="M 177.2,239.3 L 178.4,240.0 L 179.7,239.3" style="fill:none;stroke:#000000;stroke-width:2.0px;stroke-linecap:butt;stroke-linejoin:miter;stroke-miterlimit:10;stroke-opacity:1;"/>
<path d="M 202.4,226.2 L 203.6,225.5 L 203.6,224.0" style="fill:none;stroke:#000000;stroke-width:2.0px;stroke-linecap:butt;stroke-linejoin:miter;stroke-miterlimit:10;stroke-opacity:1;"/>
<path d="M 228.9,154.2 L 228.9,152.8 L 229.3,152.5" style="fill:none;stroke:#000000;stroke-width:2.0px;stroke-linecap:butt;stroke-linejoin:miter;stroke-miterlimit:10;stroke-opacity:1;"/>
<path d="M 179.7,182.6 L 178.5,181.8 L 177.2,182.6" style="fill:none;stroke:#000000;stroke-width:2.0px;stroke-linecap:butt;stroke-linejoin:miter;stroke-miterlimit:10;stroke-opacity:1;"/>
<path d="M 154.5,195.6 L 153.3,196.4 L 153.3,197.8" style="fill:none;stroke:#000000;stroke-width:2.0px;stroke-linecap:butt;stroke-linejoin:miter;stroke-miterlimit:10;stroke-opacity:1;"/>
<path class="atom-11" d="M 198.0 138.3 Q 198.0 135.3, 199.5 133.6 Q 201.0 132.0, 203.7 132.0 Q 206.4 132.0, 207.9 133.6 Q 209.4 135.3, 209.4 138.3 Q 209.4 141.3, 207.9 143.0 Q 206.4 144.7, 203.7 144.7 Q 201.0 144.7, 199.5 143.0 Q 198.0 141.3, 198.0 138.3 M 203.7 143.3 Q 205.6 143.3, 206.6 142.0 Q 207.6 140.7, 207.6 138.3 Q 207.6 135.8, 206.6 134.6 Q 205.6 133.4, 203.7 133.4 Q 201.8 133.4, 200.8 134.6 Q 199.8 135.8, 199.8 138.3 Q 199.8 140.8, 200.8 142.0 Q 201.8 143.3, 203.7 143.3 " fill="#FF0000"/>
<path class="atom-12" d="M 248.4 138.3 Q 248.4 135.3, 249.9 133.7 Q 251.3 132.0, 254.1 132.0 Q 256.8 132.0, 258.3 133.7 Q 259.7 135.3, 259.7 138.3 Q 259.7 141.3, 258.3 143.0 Q 256.8 144.7, 254.1 144.7 Q 251.3 144.7, 249.9 143.0 Q 248.4 141.3, 248.4 138.3 M 254.1 143.3 Q 256.0 143.3, 257.0 142.1 Q 258.0 140.8, 258.0 138.3 Q 258.0 135.9, 257.0 134.7 Q 256.0 133.4, 254.1 133.4 Q 252.2 133.4, 251.2 134.6 Q 250.1 135.9, 250.1 138.3 Q 250.1 140.8, 251.2 142.1 Q 252.2 143.3, 254.1 143.3 " fill="#FF0000"/>
<path class="atom-12" d="M 261.7 132.2 L 263.3 132.2 L 263.3 137.4 L 269.7 137.4 L 269.7 132.2 L 271.3 132.2 L 271.3 144.5 L 269.7 144.5 L 269.7 138.8 L 263.3 138.8 L 263.3 144.5 L 261.7 144.5 L 261.7 132.2 " fill="#FF0000"/>
<path class="legend" d="M 145.0 324.7 Q 145.0 322.3, 146.1 321.0 Q 147.3 319.7, 149.5 319.7 Q 151.5 319.7, 152.6 321.1 L 151.7 321.9 Q 150.9 320.8, 149.5 320.8 Q 148.0 320.8, 147.2 321.8 Q 146.4 322.8, 146.4 324.7 Q 146.4 326.7, 147.2 327.7 Q 148.0 328.7, 149.6 328.7 Q 150.7 328.7, 152.0 328.0 L 152.4 329.1 Q 151.9 329.4, 151.1 329.6 Q 150.3 329.8, 149.4 329.8 Q 147.3 329.8, 146.1 328.5 Q 145.0 327.2, 145.0 324.7 " fill="#000000"/>
<path class="legend" d="M 153.7 319.7 L 155.0 319.7 L 155.0 329.7 L 153.7 329.7 L 153.7 319.7 " fill="#000000"/>
<path class="legend" d="M 159.9 319.8 Q 162.1 319.8, 163.3 321.1 Q 164.5 322.4, 164.5 324.7 Q 164.5 327.1, 163.3 328.4 Q 162.1 329.7, 159.9 329.7 L 156.7 329.7 L 156.7 319.8 L 159.9 319.8 M 159.9 328.6 Q 161.5 328.6, 162.3 327.6 Q 163.1 326.6, 163.1 324.7 Q 163.1 322.8, 162.3 321.9 Q 161.5 320.9, 159.9 320.9 L 158.1 320.9 L 158.1 328.6 L 159.9 328.6 " fill="#000000"/>
<path class="legend" d="M 165.6 328.1 L 167.0 328.1 L 167.0 329.5 L 165.6 329.5 L 165.6 328.1 M 165.6 323.2 L 167.0 323.2 L 167.0 324.6 L 165.6 324.6 L 165.6 323.2 " fill="#000000"/>
<path class="legend" d="" fill="#000000"/>
<path class="legend" d="M 178.5 324.5 Q 179.5 324.8, 179.9 325.4 Q 180.4 326.0, 180.4 327.0 Q 180.4 327.8, 180.0 328.5 Q 179.6 329.1, 178.8 329.5 Q 178.0 329.8, 177.0 329.8 Q 175.9 329.8, 175.1 329.5 Q 174.4 329.1, 173.7 328.3 L 174.5 327.5 Q 175.1 328.2, 175.7 328.5 Q 176.2 328.7, 177.0 328.7 Q 177.9 328.7, 178.5 328.2 Q 179.0 327.8, 179.0 327.0 Q 179.0 326.0, 178.4 325.5 Q 177.9 325.0, 176.6 325.0 L 175.9 325.0 L 175.9 324.0 L 176.6 324.0 Q 177.6 324.0, 178.2 323.6 Q 178.8 323.1, 178.8 322.2 Q 178.8 321.6, 178.3 321.2 Q 177.8 320.8, 177.0 320.8 Q 176.2 320.8, 175.7 321.1 Q 175.2 321.4, 174.8 322.1 L 173.8 321.6 Q 174.2 320.8, 175.0 320.2 Q 175.8 319.7, 177.0 319.7 Q 178.5 319.7, 179.3 320.4 Q 180.2 321.0, 180.2 322.2 Q 180.2 323.0, 179.8 323.6 Q 179.3 324.2, 178.5 324.5 " fill="#000000"/>
<path class="legend" d="M 185.6 323.5 Q 186.5 323.5, 187.2 323.9 Q 187.8 324.3, 188.2 325.0 Q 188.6 325.6, 188.6 326.5 Q 188.6 327.5, 188.2 328.2 Q 187.7 329.0, 187.0 329.4 Q 186.2 329.8, 185.3 329.8 Q 183.5 329.8, 182.6 328.6 Q 181.7 327.4, 181.7 325.0 Q 181.7 322.4, 182.8 321.0 Q 183.9 319.7, 186.0 319.7 Q 186.7 319.7, 187.2 319.8 Q 187.7 320.0, 188.2 320.2 L 187.7 321.2 Q 186.9 320.8, 186.0 320.8 Q 184.6 320.8, 183.9 321.7 Q 183.2 322.6, 183.1 324.5 Q 183.6 324.0, 184.3 323.8 Q 184.9 323.5, 185.6 323.5 M 185.3 328.7 Q 185.8 328.7, 186.2 328.4 Q 186.7 328.1, 186.9 327.6 Q 187.2 327.1, 187.2 326.5 Q 187.2 325.6, 186.7 325.1 Q 186.2 324.6, 185.3 324.6 Q 184.7 324.6, 184.1 324.9 Q 183.6 325.1, 183.1 325.5 Q 183.2 327.2, 183.7 327.9 Q 184.2 328.7, 185.3 328.7 " fill="#000000"/>
<path class="legend" d="M 195.1 320.9 L 189.9 320.9 L 189.9 319.8 L 196.4 319.8 L 196.4 320.8 L 192.4 329.7 L 191.1 329.7 L 195.1 320.9 " fill="#000000"/>
<path class="legend" d="M 197.4 321.7 Q 197.7 320.7, 198.6 320.2 Q 199.5 319.7, 200.7 319.7 Q 202.2 319.7, 203.0 320.5 Q 203.9 321.3, 203.9 322.7 Q 203.9 324.2, 202.8 325.6 Q 201.7 327.0, 199.5 328.6 L 204.0 328.6 L 204.0 329.7 L 197.4 329.7 L 197.4 328.8 Q 199.2 327.4, 200.3 326.5 Q 201.4 325.5, 201.9 324.6 Q 202.5 323.7, 202.5 322.8 Q 202.5 321.9, 202.0 321.3 Q 201.5 320.8, 200.7 320.8 Q 199.9 320.8, 199.4 321.1 Q 198.8 321.4, 198.4 322.2 L 197.4 321.7 " fill="#000000"/>
<path class="legend" d="M 146.2 339.9 L 145.0 339.9 L 143.9 331.8 L 141.3 339.9 L 139.9 339.9 L 137.2 331.8 L 136.2 339.9 L 134.9 339.9 L 136.2 329.9 L 137.8 329.9 L 140.6 337.9 L 143.3 329.9 L 145.0 329.9 L 146.2 339.9 " fill="#000000"/>
<path class="legend" d="M 160.1 330.0 L 161.4 330.0 L 158.8 339.9 L 156.8 339.9 L 154.6 331.6 L 152.4 339.9 L 150.4 339.9 L 147.8 330.0 L 149.1 330.0 L 151.5 338.6 L 153.7 330.0 L 155.5 330.0 L 157.8 338.7 L 160.1 330.0 " fill="#000000"/>
<path class="legend" d="M 162.5 338.2 L 163.9 338.2 L 163.9 339.6 L 162.5 339.6 L 162.5 338.2 M 162.5 333.4 L 163.9 333.4 L 163.9 334.8 L 162.5 334.8 L 162.5 333.4 " fill="#000000"/>
<path class="legend" d="" fill="#000000"/>
<path class="legend" d="M 170.9 331.8 Q 171.2 330.9, 172.1 330.4 Q 173.0 329.8, 174.2 329.8 Q 175.7 329.8, 176.5 330.6 Q 177.3 331.5, 177.3 332.9 Q 177.3 334.4, 176.2 335.7 Q 175.2 337.1, 172.9 338.7 L 177.5 338.7 L 177.5 339.9 L 170.8 339.9 L 170.8 338.9 Q 172.7 337.6, 173.8 336.6 Q 174.9 335.6, 175.4 334.8 Q 175.9 333.9, 175.9 333.0 Q 175.9 332.0, 175.5 331.5 Q 175.0 331.0, 174.2 331.0 Q 173.4 331.0, 172.8 331.3 Q 172.3 331.6, 171.9 332.3 L 170.9 331.8 " fill="#000000"/>
<path class="legend" d="M 182.6 340.0 Q 180.8 340.0, 179.9 338.6 Q 179.0 337.3, 179.0 334.9 Q 179.0 332.5, 179.9 331.2 Q 180.8 329.8, 182.6 329.8 Q 184.4 329.8, 185.3 331.2 Q 186.2 332.5, 186.2 334.9 Q 186.2 337.3, 185.3 338.6 Q 184.4 340.0, 182.6 340.0 M 182.6 338.9 Q 183.7 338.9, 184.2 337.9 Q 184.8 336.9, 184.8 334.9 Q 184.8 332.9, 184.2 331.9 Q 183.7 331.0, 182.6 331.0 Q 181.5 331.0, 180.9 331.9 Q 180.4 332.9, 180.4 334.9 Q 180.4 336.9, 180.9 337.9 Q 181.5 338.9, 182.6 338.9 " fill="#000000"/>
<path class="legend" d="M 191.6 333.7 Q 192.5 333.7, 193.2 334.1 Q 193.9 334.4, 194.2 335.1 Q 194.6 335.8, 194.6 336.7 Q 194.6 337.6, 194.2 338.4 Q 193.8 339.1, 193.0 339.6 Q 192.3 340.0, 191.3 340.0 Q 189.5 340.0, 188.6 338.8 Q 187.7 337.6, 187.7 335.2 Q 187.7 332.6, 188.8 331.2 Q 189.9 329.8, 192.1 329.8 Q 192.7 329.8, 193.2 330.0 Q 193.7 330.1, 194.2 330.4 L 193.7 331.3 Q 193.0 331.0, 192.1 331.0 Q 190.7 331.0, 190.0 331.9 Q 189.2 332.8, 189.2 334.6 Q 189.7 334.2, 190.3 333.9 Q 190.9 333.7, 191.6 333.7 M 191.3 338.8 Q 191.8 338.8, 192.3 338.5 Q 192.7 338.3, 193.0 337.8 Q 193.2 337.3, 193.2 336.7 Q 193.2 335.8, 192.7 335.3 Q 192.2 334.8, 191.4 334.8 Q 190.8 334.8, 190.2 335.0 Q 189.6 335.3, 189.2 335.7 Q 189.2 337.3, 189.7 338.1 Q 190.3 338.8, 191.3 338.8 " fill="#000000"/>
<path class="legend" d="M 196.0 338.5 L 197.4 338.5 L 197.4 339.9 L 196.0 339.9 L 196.0 338.5 " fill="#000000"/>
<path class="legend" d="M 199.0 331.8 Q 199.3 330.9, 200.2 330.4 Q 201.1 329.8, 202.3 329.8 Q 203.8 329.8, 204.6 330.6 Q 205.5 331.5, 205.5 332.9 Q 205.5 334.4, 204.4 335.7 Q 203.3 337.1, 201.0 338.7 L 205.6 338.7 L 205.6 339.9 L 198.9 339.9 L 198.9 338.9 Q 200.8 337.6, 201.9 336.6 Q 203.0 335.6, 203.5 334.8 Q 204.1 333.9, 204.1 333.0 Q 204.1 332.0, 203.6 331.5 Q 203.1 331.0, 202.3 331.0 Q 201.5 331.0, 201.0 331.3 Q 200.4 331.6, 200.0 332.3 L 199.0 331.8 " fill="#000000"/>
<path class="legend" d="M 212.1 334.6 Q 213.1 335.0, 213.6 335.6 Q 214.1 336.2, 214.1 337.1 Q 214.1 338.0, 213.7 338.6 Q 213.2 339.3, 212.4 339.7 Q 211.7 340.0, 210.6 340.0 Q 209.0 340.0, 208.0 339.2 Q 207.1 338.5, 207.1 337.1 Q 207.1 336.3, 207.5 335.7 Q 207.9 335.1, 208.8 334.7 Q 208.2 334.3, 207.8 333.8 Q 207.5 333.2, 207.5 332.4 Q 207.5 331.2, 208.3 330.5 Q 209.1 329.8, 210.6 329.8 Q 212.0 329.8, 212.9 330.5 Q 213.7 331.2, 213.7 332.4 Q 213.7 333.1, 213.3 333.6 Q 212.9 334.2, 212.1 334.6 M 210.6 330.9 Q 209.8 330.9, 209.3 331.3 Q 208.9 331.7, 208.9 332.4 Q 208.9 332.9, 209.2 333.2 Q 209.5 333.6, 209.9 333.8 Q 210.4 334.0, 211.2 334.3 Q 211.8 333.8, 212.1 333.4 Q 212.3 332.9, 212.3 332.4 Q 212.3 331.7, 211.9 331.3 Q 211.4 330.9, 210.6 330.9 M 210.6 338.9 Q 211.6 338.9, 212.1 338.5 Q 212.7 338.0, 212.7 337.1 Q 212.7 336.6, 212.4 336.3 Q 212.1 335.9, 211.7 335.7 Q 211.2 335.5, 210.4 335.3 L 209.8 335.1 Q 209.1 335.5, 208.8 336.0 Q 208.5 336.5, 208.5 337.1 Q 208.5 338.0, 209.1 338.5 Q 209.7 338.9, 210.6 338.9 " fill="#000000"/>
<path class="bond-0 atom-0 atom-1" d="M 457.8,219.0 L 483.0,233.6" style="fill:none;fill-rule:evenodd;stroke:#000000;stroke-width:2.0px;stroke-linecap:butt;stroke-linejoin:miter;stroke-opacity:1"/>
<path class="bond-1 atom-1 atom-2" d="M 483.0,233.6 L 482.9,262.6" style="fill:none;fill-rule:evenodd;stroke:#000000;stroke-width:2.0px;stroke-linecap:butt;stroke-linejoin:miter;stroke-opacity:1"/>
<path class="bond-2 atom-2 atom-3" d="M 480.7,263.9 L 490.5,269.6" style="fill:none;fill-rule:evenodd;stroke:#000000;stroke-width:2.0px;stroke-linecap:butt;stroke-linejoin:miter;stroke-opacity:1"/>
<path class="bond-2 atom-2 atom-3" d="M 490.5,269.6 L 500.3,275.3" style="fill:none;fill-rule:evenodd;stroke:#FF0000;stroke-width:2.0px;stroke-linecap:butt;stroke-linejoin:miter;stroke-opacity:1"/>
<path class="bond-2 atom-2 atom-3" d="M 482.9,260.1 L 492.7,265.8" style="fill:none;fill-rule:evenodd;stroke:#000000;stroke-width:2.0px;stroke-linecap:butt;stroke-linejoin:miter;stroke-opacity:1"/>
<path class="bond-2 atom-2 atom-3" d="M 492.7,265.8 L 502.5,271.5" style="fill:none;fill-rule:evenodd;stroke:#FF0000;stroke-width:2.0px;stroke-linecap:butt;stroke-linejoin:miter;stroke-opacity:1"/>
<path class="bond-3 atom-2 atom-4" d="M 482.9,262.6 L 473.6,268.0" style="fill:none;fill-rule:evenodd;stroke:#000000;stroke-width:2.0px;stroke-linecap:butt;stroke-linejoin:miter;stroke-opacity:1"/>
<path class="bond-3 atom-2 atom-4" d="M 473.6,268.0 L 464.3,273.3" style="fill:none;fill-rule:evenodd;stroke:#FF0000;stroke-width:2.0px;stroke-linecap:butt;stroke-linejoin:miter;stroke-opacity:1"/>
<path class="bond-4 atom-1 atom-5" d="M 483.0,233.6 L 508.2,219.1" style="fill:none;fill-rule:evenodd;stroke:#000000;stroke-width:2.0px;stroke-linecap:butt;stroke-linejoin:miter;stroke-opacity:1"/>
<path class="bond-5 atom-5 atom-6" d="M 508.2,219.1 L 533.3,233.7" style="fill:none;fill-rule:evenodd;stroke:#000000;stroke-width:2.0px;stroke-linecap:butt;stroke-linejoin:miter;stroke-opacity:1"/>
<path class="bond-5 atom-5 atom-6" d="M 512.6,216.6 L 533.4,228.6" style="fill:none;fill-rule:evenodd;stroke:#000000;stroke-width:2.0px;stroke-linecap:butt;stroke-linejoin:miter;stroke-opacity:1"/>
<path class="bond-6 atom-6 atom-7" d="M 533.3,233.7 L 558.6,219.2" style="fill:none;fill-rule:evenodd;stroke:#000000;stroke-width:2.0px;stroke-linecap:butt;stroke-linejoin:miter;stroke-opacity:1"/>
<path class="bond-7 atom-7 atom-8" d="M 558.6,219.2 L 558.6,190.1" style="fill:none;fill-rule:evenodd;stroke:#000000;stroke-width:2.0px;stroke-linecap:butt;stroke-linejoin:miter;stroke-opacity:1"/>
<path class="bond-7 atom-7 atom-8" d="M 554.2,216.6 L 554.3,192.6" style="fill:none;fill-rule:evenodd;stroke:#000000;stroke-width:2.0px;stroke-linecap:butt;stroke-linejoin:miter;stroke-opacity:1"/>
<path class="bond-8 atom-8 atom-9" d="M 558.6,190.1 L 533.5,175.5" style="fill:none;fill-rule:evenodd;stroke:#000000;stroke-width:2.0px;stroke-linecap:butt;stroke-linejoin:miter;stroke-opacity:1"/>
<path class="bond-9 atom-9 atom-10" d="M 533.5,175.5 L 533.5,146.4" style="fill:none;fill-rule:evenodd;stroke:#000000;stroke-width:2.0px;stroke-linecap:butt;stroke-linejoin:miter;stroke-opacity:1"/>
<path class="bond-10 atom-10 atom-11" d="M 535.7,145.1 L 525.9,139.5" style="fill:none;fill-rule:evenodd;stroke:#000000;stroke-width:2.0px;stroke-linecap:butt;stroke-linejoin:miter;stroke-opacity:1"/>
<path class="bond-10 atom-10 atom-11" d="M 525.9,139.5 L 516.1,133.8" style="fill:none;fill-rule:evenodd;stroke:#FF0000;stroke-width:2.0px;stroke-linecap:butt;stroke-linejoin:miter;stroke-opacity:1"/>
<path class="bond-10 atom-10 atom-11" d="M 533.5,148.9 L 523.7,143.2" style="fill:none;fill-rule:evenodd;stroke:#000000;stroke-width:2.0px;stroke-linecap:butt;stroke-linejoin:miter;stroke-opacity:1"/>
<path class="bond-10 atom-10 atom-11" d="M 523.7,143.2 L 513.9,137.5" style="fill:none;fill-rule:evenodd;stroke:#FF0000;stroke-width:2.0px;stroke-linecap:butt;stroke-linejoin:miter;stroke-opacity:1"/>
<path class="bond-11 atom-10 atom-12" d="M 533.5,146.4 L 558.7,131.9" style="fill:none;fill-rule:evenodd;stroke:#000000;stroke-width:2.0px;stroke-linecap:butt;stroke-linejoin:miter;stroke-opacity:1"/>
<path class="bond-12 atom-12 atom-13" d="M 558.7,131.9 L 583.9,146.5" style="fill:none;fill-rule:evenodd;stroke:#000000;stroke-width:2.0px;stroke-linecap:butt;stroke-linejoin:miter;stroke-opacity:1"/>
<path class="bond-12 atom-12 atom-13" d="M 563.1,129.4 L 583.9,141.5" style="fill:none;fill-rule:evenodd;stroke:#000000;stroke-width:2.0px;stroke-linecap:butt;stroke-linejoin:miter;stroke-opacity:1"/>
<path class="bond-13 atom-13 atom-14" d="M 583.9,146.5 L 609.1,132.0" style="fill:none;fill-rule:evenodd;stroke:#000000;stroke-width:2.0px;stroke-linecap:butt;stroke-linejoin:miter;stroke-opacity:1"/>
<path class="bond-14 atom-14 atom-15" d="M 609.1,132.0 L 609.2,102.9" style="fill:none;fill-rule:evenodd;stroke:#000000;stroke-width:2.0px;stroke-linecap:butt;stroke-linejoin:miter;stroke-opacity:1"/>
<path class="bond-14 atom-14 atom-15" d="M 604.8,129.5 L 604.8,105.4" style="fill:none;fill-rule:evenodd;stroke:#000000;stroke-width:2.0px;stroke-linecap:butt;stroke-linejoin:miter;stroke-opacity:1"/>
<path class="bond-15 atom-15 atom-16" d="M 609.2,102.9 L 584.0,88.3" style="fill:none;fill-rule:evenodd;stroke:#000000;stroke-width:2.0px;stroke-linecap:butt;stroke-linejoin:miter;stroke-opacity:1"/>
<path class="bond-16 atom-16 atom-17" d="M 584.0,88.3 L 558.8,102.8" style="fill:none;fill-rule:evenodd;stroke:#000000;stroke-width:2.0px;stroke-linecap:butt;stroke-linejoin:miter;stroke-opacity:1"/>
<path class="bond-16 atom-16 atom-17" d="M 584.0,93.4 L 563.2,105.3" style="fill:none;fill-rule:evenodd;stroke:#000000;stroke-width:2.0px;stroke-linecap:butt;stroke-linejoin:miter;stroke-opacity:1"/>
<path class="bond-17 atom-9 atom-18" d="M 533.5,175.5 L 508.2,190.0" style="fill:none;fill-rule:evenodd;stroke:#000000;stroke-width:2.0px;stroke-linecap:butt;stroke-linejoin:miter;stroke-opacity:1"/>
<path class="bond-17 atom-9 atom-18" d="M 533.5,180.5 L 512.6,192.5" style="fill:none;fill-rule:evenodd;stroke:#000000;stroke-width:2.0px;stroke-linecap:butt;stroke-linejoin:miter;stroke-opacity:1"/>
<path class="bond-18 atom-18 atom-5" d="M 508.2,190.0 L 508.2,219.1" style="fill:none;fill-rule:evenodd;stroke:#000000;stroke-width:2.0px;stroke-linecap:butt;stroke-linejoin:miter;stroke-opacity:1"/>
<path class="bond-19 atom-17 atom-12" d="M 558.8,102.8 L 558.7,131.9" style="fill:none;fill-rule:evenodd;stroke:#000000;stroke-width:2.0px;stroke-linecap:butt;stroke-linejoin:miter;stroke-opacity:1"/>
<path d="M 482.9,261.2 L 482.9,262.6 L 482.4,262.9" style="fill:none;stroke:#000000;stroke-width:2.0px;stroke-linecap:butt;stroke-linejoin:miter;stroke-miterlimit:10;stroke-opacity:1;"/>
<path d="M 532.1,232.9 L 533.3,233.7 L 534.6,232.9" style="fill:none;stroke:#000000;stroke-width:2.0px;stroke-linecap:butt;stroke-linejoin:miter;stroke-miterlimit:10;stroke-opacity:1;"/>
<path d="M 557.3,219.9 L 558.6,219.2 L 558.6,217.7" style="fill:none;stroke:#000000;stroke-width:2.0px;stroke-linecap:butt;stroke-linejoin:miter;stroke-miterlimit:10;stroke-opacity:1;"/>
<path d="M 558.6,191.5 L 558.6,190.1 L 557.4,189.4" style="fill:none;stroke:#000000;stroke-width:2.0px;stroke-linecap:butt;stroke-linejoin:miter;stroke-miterlimit:10;stroke-opacity:1;"/>
<path d="M 533.5,147.9 L 533.5,146.4 L 534.8,145.7" style="fill:none;stroke:#000000;stroke-width:2.0px;stroke-linecap:butt;stroke-linejoin:miter;stroke-miterlimit:10;stroke-opacity:1;"/>
<path d="M 582.6,145.8 L 583.9,146.5 L 585.2,145.8" style="fill:none;stroke:#000000;stroke-width:2.0px;stroke-linecap:butt;stroke-linejoin:miter;stroke-miterlimit:10;stroke-opacity:1;"/>
<path d="M 607.9,132.7 L 609.1,132.0 L 609.1,130.6" style="fill:none;stroke:#000000;stroke-width:2.0px;stroke-linecap:butt;stroke-linejoin:miter;stroke-miterlimit:10;stroke-opacity:1;"/>
<path d="M 609.2,104.4 L 609.2,102.9 L 607.9,102.2" style="fill:none;stroke:#000000;stroke-width:2.0px;stroke-linecap:butt;stroke-linejoin:miter;stroke-miterlimit:10;stroke-opacity:1;"/>
<path d="M 585.3,89.1 L 584.0,88.3 L 582.8,89.0" style="fill:none;stroke:#000000;stroke-width:2.0px;stroke-linecap:butt;stroke-linejoin:miter;stroke-miterlimit:10;stroke-opacity:1;"/>
<path d="M 560.1,102.1 L 558.8,102.8 L 558.8,104.3" style="fill:none;stroke:#000000;stroke-width:2.0px;stroke-linecap:butt;stroke-linejoin:miter;stroke-miterlimit:10;stroke-opacity:1;"/>
<path d="M 509.5,189.3 L 508.2,190.0 L 508.2,191.4" style="fill:none;stroke:#000000;stroke-width:2.0px;stroke-linecap:butt;stroke-linejoin:miter;stroke-miterlimit:10;stroke-opacity:1;"/>
<path class="atom-3" d="M 502.4 277.3 Q 502.4 274.3, 503.9 272.6 Q 505.3 271.0, 508.1 271.0 Q 510.8 271.0, 512.3 272.6 Q 513.7 274.3, 513.7 277.3 Q 513.7 280.3, 512.3 282.0 Q 510.8 283.7, 508.1 283.7 Q 505.3 283.7, 503.9 282.0 Q 502.4 280.3, 502.4 277.3 M 508.1 282.3 Q 510.0 282.3, 511.0 281.0 Q 512.0 279.7, 512.0 277.3 Q 512.0 274.8, 511.0 273.6 Q 510.0 272.4, 508.1 272.4 Q 506.2 272.4, 505.2 273.6 Q 504.1 274.8, 504.1 277.3 Q 504.1 279.8, 505.2 281.0 Q 506.2 282.3, 508.1 282.3 " fill="#FF0000"/>
<path class="atom-4" d="M 439.8 271.0 L 441.5 271.0 L 441.5 276.3 L 447.8 276.3 L 447.8 271.0 L 449.5 271.0 L 449.5 283.4 L 447.8 283.4 L 447.8 277.7 L 441.5 277.7 L 441.5 283.4 L 439.8 283.4 L 439.8 271.0 " fill="#FF0000"/>
<path class="atom-4" d="M 452.0 277.2 Q 452.0 274.2, 453.5 272.5 Q 455.0 270.9, 457.7 270.9 Q 460.4 270.9, 461.9 272.5 Q 463.4 274.2, 463.4 277.2 Q 463.4 280.2, 461.9 281.9 Q 460.4 283.6, 457.7 283.6 Q 455.0 283.6, 453.5 281.9 Q 452.0 280.2, 452.0 277.2 M 457.7 282.2 Q 459.6 282.2, 460.6 280.9 Q 461.6 279.6, 461.6 277.2 Q 461.6 274.7, 460.6 273.5 Q 459.6 272.3, 457.7 272.3 Q 455.8 272.3, 454.8 273.5 Q 453.8 274.7, 453.8 277.2 Q 453.8 279.7, 454.8 280.9 Q 455.8 282.2, 457.7 282.2 " fill="#FF0000"/>
<path class="atom-11" d="M 502.7 131.8 Q 502.7 128.9, 504.2 127.2 Q 505.6 125.6, 508.4 125.6 Q 511.1 125.6, 512.6 127.2 Q 514.0 128.9, 514.0 131.8 Q 514.0 134.8, 512.6 136.5 Q 511.1 138.2, 508.4 138.2 Q 505.6 138.2, 504.2 136.5 Q 502.7 134.9, 502.7 131.8 M 508.4 136.8 Q 510.3 136.8, 511.3 135.6 Q 512.3 134.3, 512.3 131.8 Q 512.3 129.4, 511.3 128.2 Q 510.3 127.0, 508.4 127.0 Q 506.5 127.0, 505.5 128.2 Q 504.4 129.4, 504.4 131.8 Q 504.4 134.3, 505.5 135.6 Q 506.5 136.8, 508.4 136.8 " fill="#FF0000"/>
<path class="legend" d="M 494.6 324.7 Q 494.6 322.3, 495.7 321.0 Q 496.9 319.7, 499.1 319.7 Q 501.1 319.7, 502.2 321.1 L 501.3 321.9 Q 500.5 320.8, 499.1 320.8 Q 497.6 320.8, 496.8 321.8 Q 496.0 322.8, 496.0 324.7 Q 496.0 326.7, 496.8 327.7 Q 497.6 328.7, 499.2 328.7 Q 500.3 328.7, 501.6 328.0 L 502.0 329.1 Q 501.5 329.4, 500.7 329.6 Q 499.9 329.8, 499.0 329.8 Q 496.9 329.8, 495.7 328.5 Q 494.6 327.2, 494.6 324.7 " fill="#000000"/>
<path class="legend" d="M 503.3 319.7 L 504.6 319.7 L 504.6 329.7 L 503.3 329.7 L 503.3 319.7 " fill="#000000"/>
<path class="legend" d="M 509.5 319.8 Q 511.7 319.8, 512.9 321.1 Q 514.1 322.4, 514.1 324.7 Q 514.1 327.1, 512.9 328.4 Q 511.7 329.7, 509.5 329.7 L 506.3 329.7 L 506.3 319.8 L 509.5 319.8 M 509.5 328.6 Q 511.0 328.6, 511.9 327.6 Q 512.7 326.6, 512.7 324.7 Q 512.7 322.8, 511.9 321.9 Q 511.0 320.9, 509.5 320.9 L 507.7 320.9 L 507.7 328.6 L 509.5 328.6 " fill="#000000"/>
<path class="legend" d="M 515.2 328.1 L 516.6 328.1 L 516.6 329.5 L 515.2 329.5 L 515.2 328.1 M 515.2 323.2 L 516.6 323.2 L 516.6 324.6 L 515.2 324.6 L 515.2 323.2 " fill="#000000"/>
<path class="legend" d="" fill="#000000"/>
<path class="legend" d="M 528.1 324.5 Q 529.1 324.8, 529.5 325.4 Q 530.0 326.0, 530.0 327.0 Q 530.0 327.8, 529.6 328.5 Q 529.2 329.1, 528.4 329.5 Q 527.6 329.8, 526.6 329.8 Q 525.6 329.8, 524.8 329.5 Q 524.0 329.1, 523.3 328.3 L 524.1 327.5 Q 524.8 328.2, 525.3 328.5 Q 525.8 328.7, 526.6 328.7 Q 527.5 328.7, 528.1 328.2 Q 528.6 327.8, 528.6 327.0 Q 528.6 326.0, 528.0 325.5 Q 527.5 325.0, 526.3 325.0 L 525.5 325.0 L 525.5 324.0 L 526.2 324.0 Q 527.2 324.0, 527.8 323.6 Q 528.4 323.1, 528.4 322.2 Q 528.4 321.6, 527.9 321.2 Q 527.4 320.8, 526.6 320.8 Q 525.8 320.8, 525.3 321.1 Q 524.8 321.4, 524.4 322.1 L 523.4 321.6 Q 523.8 320.8, 524.6 320.2 Q 525.5 319.7, 526.6 319.7 Q 528.1 319.7, 528.9 320.4 Q 529.8 321.0, 529.8 322.2 Q 529.8 323.0, 529.4 323.6 Q 528.9 324.2, 528.1 324.5 " fill="#000000"/>
<path class="legend" d="M 536.4 324.4 Q 537.3 324.8, 537.8 325.4 Q 538.3 326.0, 538.3 327.0 Q 538.3 327.8, 537.9 328.5 Q 537.5 329.1, 536.7 329.5 Q 535.9 329.8, 534.9 329.8 Q 533.2 329.8, 532.3 329.1 Q 531.3 328.3, 531.3 327.0 Q 531.3 326.2, 531.8 325.6 Q 532.2 325.0, 533.0 324.5 Q 532.4 324.1, 532.0 323.6 Q 531.7 323.0, 531.7 322.2 Q 531.7 321.0, 532.5 320.4 Q 533.4 319.7, 534.8 319.7 Q 536.3 319.7, 537.1 320.4 Q 538.0 321.0, 538.0 322.2 Q 538.0 322.9, 537.6 323.5 Q 537.2 324.0, 536.4 324.4 M 534.8 320.7 Q 534.0 320.7, 533.5 321.1 Q 533.1 321.5, 533.1 322.2 Q 533.1 322.7, 533.4 323.1 Q 533.7 323.4, 534.1 323.6 Q 534.6 323.8, 535.4 324.1 Q 536.0 323.7, 536.3 323.2 Q 536.6 322.8, 536.6 322.2 Q 536.6 321.5, 536.1 321.1 Q 535.7 320.7, 534.8 320.7 M 534.9 328.8 Q 535.8 328.8, 536.4 328.3 Q 536.9 327.8, 536.9 327.0 Q 536.9 326.4, 536.6 326.1 Q 536.3 325.8, 535.9 325.6 Q 535.5 325.4, 534.7 325.1 L 534.0 324.9 Q 533.3 325.3, 533.0 325.8 Q 532.7 326.3, 532.7 327.0 Q 532.7 327.8, 533.3 328.3 Q 533.9 328.8, 534.9 328.8 " fill="#000000"/>
<path class="legend" d="M 539.7 321.7 Q 540.1 320.7, 541.0 320.2 Q 541.8 319.7, 543.0 319.7 Q 544.5 319.7, 545.4 320.5 Q 546.2 321.3, 546.2 322.7 Q 546.2 324.2, 545.1 325.6 Q 544.1 327.0, 541.8 328.6 L 546.4 328.6 L 546.4 329.7 L 539.7 329.7 L 539.7 328.8 Q 541.6 327.4, 542.7 326.5 Q 543.8 325.5, 544.3 324.6 Q 544.8 323.7, 544.8 322.8 Q 544.8 321.9, 544.3 321.3 Q 543.9 320.8, 543.0 320.8 Q 542.2 320.8, 541.7 321.1 Q 541.2 321.4, 540.8 322.2 L 539.7 321.7 " fill="#000000"/>
<path class="legend" d="M 551.3 323.5 Q 552.2 323.5, 552.9 323.9 Q 553.6 324.2, 554.0 324.9 Q 554.4 325.6, 554.4 326.6 Q 554.4 327.6, 553.9 328.3 Q 553.4 329.1, 552.6 329.4 Q 551.8 329.8, 550.9 329.8 Q 550.0 329.8, 549.1 329.5 Q 548.3 329.1, 547.7 328.5 L 548.6 327.6 Q 549.0 328.1, 549.7 328.4 Q 550.3 328.7, 550.9 328.7 Q 551.8 328.7, 552.4 328.1 Q 553.0 327.6, 553.0 326.6 Q 553.0 325.5, 552.4 325.0 Q 551.8 324.5, 550.9 324.5 Q 550.0 324.5, 549.0 324.9 L 548.3 324.6 L 548.7 319.8 L 553.8 319.8 L 553.7 320.9 L 549.9 320.9 L 549.6 323.8 Q 550.5 323.5, 551.3 323.5 " fill="#000000"/>
<path class="legend" d="M 496.3 339.9 L 495.0 339.9 L 494.0 331.8 L 491.3 339.9 L 489.9 339.9 L 487.3 331.8 L 486.2 339.9 L 485.0 339.9 L 486.2 329.9 L 487.9 329.9 L 490.6 337.9 L 493.4 329.9 L 495.0 329.9 L 496.3 339.9 " fill="#000000"/>
<path class="legend" d="M 510.2 330.0 L 511.5 330.0 L 508.8 339.9 L 506.8 339.9 L 504.7 331.6 L 502.5 339.9 L 500.5 339.9 L 497.8 330.0 L 499.2 330.0 L 501.5 338.6 L 503.8 330.0 L 505.5 330.0 L 507.8 338.7 L 510.2 330.0 " fill="#000000"/>
<path class="legend" d="M 512.5 338.2 L 513.9 338.2 L 513.9 339.6 L 512.5 339.6 L 512.5 338.2 M 512.5 333.4 L 513.9 333.4 L 513.9 334.8 L 512.5 334.8 L 512.5 333.4 " fill="#000000"/>
<path class="legend" d="" fill="#000000"/>
<path class="legend" d="M 520.9 331.8 Q 521.3 330.9, 522.1 330.4 Q 523.0 329.8, 524.2 329.8 Q 525.7 329.8, 526.5 330.6 Q 527.4 331.5, 527.4 332.9 Q 527.4 334.4, 526.3 335.7 Q 525.2 337.1, 523.0 338.7 L 527.6 338.7 L 527.6 339.9 L 520.9 339.9 L 520.9 338.9 Q 522.7 337.6, 523.8 336.6 Q 524.9 335.6, 525.5 334.8 Q 526.0 333.9, 526.0 333.0 Q 526.0 332.0, 525.5 331.5 Q 525.0 331.0, 524.2 331.0 Q 523.4 331.0, 522.9 331.3 Q 522.3 331.6, 522.0 332.3 L 520.9 331.8 " fill="#000000"/>
<path class="legend" d="M 532.6 333.7 Q 533.5 333.7, 534.2 334.0 Q 534.9 334.4, 535.3 335.1 Q 535.7 335.8, 535.7 336.7 Q 535.7 337.7, 535.2 338.5 Q 534.7 339.2, 533.9 339.6 Q 533.1 340.0, 532.2 340.0 Q 531.3 340.0, 530.4 339.6 Q 529.6 339.3, 529.0 338.7 L 529.9 337.8 Q 530.3 338.3, 531.0 338.6 Q 531.6 338.8, 532.2 338.8 Q 533.1 338.8, 533.7 338.3 Q 534.3 337.7, 534.3 336.8 Q 534.3 335.7, 533.7 335.2 Q 533.1 334.7, 532.1 334.7 Q 531.3 334.7, 530.3 335.1 L 529.5 334.7 L 530.0 329.9 L 535.1 329.9 L 535.0 331.1 L 531.2 331.1 L 530.9 334.0 Q 531.8 333.7, 532.6 333.7 " fill="#000000"/>
<path class="legend" d="M 543.5 336.5 L 544.7 336.5 L 544.7 337.6 L 543.5 337.6 L 543.5 339.9 L 542.1 339.9 L 542.1 337.6 L 537.0 337.6 L 537.0 336.7 L 541.4 329.9 L 543.5 329.9 L 543.5 336.5 M 538.6 336.5 L 542.1 336.5 L 542.1 330.8 L 538.6 336.5 " fill="#000000"/>
<path class="legend" d="M 546.0 338.5 L 547.4 338.5 L 547.4 339.9 L 546.0 339.9 L 546.0 338.5 " fill="#000000"/>
<path class="legend" d="M 548.9 331.8 Q 549.3 330.9, 550.2 330.4 Q 551.0 329.8, 552.2 329.8 Q 553.7 329.8, 554.6 330.6 Q 555.4 331.5, 555.4 332.9 Q 555.4 334.4, 554.3 335.7 Q 553.2 337.1, 551.0 338.7 L 555.6 338.7 L 555.6 339.9 L 548.9 339.9 L 548.9 338.9 Q 550.7 337.6, 551.8 336.6 Q 552.9 335.6, 553.5 334.8 Q 554.0 333.9, 554.0 333.0 Q 554.0 332.0, 553.5 331.5 Q 553.1 331.0, 552.2 331.0 Q 551.4 331.0, 550.9 331.3 Q 550.4 331.6, 550.0 332.3 L 548.9 331.8 " fill="#000000"/>
<path class="legend" d="M 562.1 334.6 Q 563.0 335.0, 563.5 335.6 Q 564.0 336.2, 564.0 337.1 Q 564.0 338.0, 563.6 338.6 Q 563.2 339.3, 562.4 339.7 Q 561.6 340.0, 560.6 340.0 Q 558.9 340.0, 558.0 339.2 Q 557.0 338.5, 557.0 337.1 Q 557.0 336.3, 557.5 335.7 Q 557.9 335.1, 558.8 334.7 Q 558.1 334.3, 557.8 333.8 Q 557.4 333.2, 557.4 332.4 Q 557.4 331.2, 558.2 330.5 Q 559.1 329.8, 560.5 329.8 Q 562.0 329.8, 562.8 330.5 Q 563.7 331.2, 563.7 332.4 Q 563.7 333.1, 563.3 333.6 Q 562.9 334.2, 562.1 334.6 M 560.5 330.9 Q 559.7 330.9, 559.3 331.3 Q 558.8 331.7, 558.8 332.4 Q 558.8 332.9, 559.1 333.2 Q 559.4 333.6, 559.9 333.8 Q 560.3 334.0, 561.2 334.3 Q 561.8 333.8, 562.0 333.4 Q 562.3 332.9, 562.3 332.4 Q 562.3 331.7, 561.8 331.3 Q 561.4 330.9, 560.5 330.9 M 560.6 338.9 Q 561.5 338.9, 562.1 338.5 Q 562.6 338.0, 562.6 337.1 Q 562.6 336.6, 562.3 336.3 Q 562.1 335.9, 561.6 335.7 Q 561.2 335.5, 560.4 335.3 L 559.8 335.1 Q 559.1 335.5, 558.8 336.0 Q 558.4 336.5, 558.4 337.1 Q 558.4 338.0, 559.0 338.5 Q 559.6 338.9, 560.6 338.9 " fill="#000000"/>
<path class="bond-0 atom-0 atom-1" d="M 52.5,560.1 L 61.8,554.8" style="fill:none;fill-rule:evenodd;stroke:#000000;stroke-width:2.0px;stroke-linecap:butt;stroke-linejoin:miter;stroke-opacity:1"/>
<path class="bond-0 atom-0 atom-1" d="M 61.8,554.8 L 71.0,549.4" style="fill:none;fill-rule:evenodd;stroke:#FF0000;stroke-width:2.0px;stroke-linecap:butt;stroke-linejoin:miter;stroke-opacity:1"/>
<path class="bond-1 atom-1 atom-2" d="M 84.3,549.4 L 93.6,554.7" style="fill:none;fill-rule:evenodd;stroke:#FF0000;stroke-width:2.0px;stroke-linecap:butt;stroke-linejoin:miter;stroke-opacity:1"/>
<path class="bond-1 atom-1 atom-2" d="M 93.6,554.7 L 102.9,560.1" style="fill:none;fill-rule:evenodd;stroke:#000000;stroke-width:2.0px;stroke-linecap:butt;stroke-linejoin:miter;stroke-opacity:1"/>
<path class="bond-2 atom-2 atom-3" d="M 102.9,560.1 L 102.9,589.2" style="fill:none;fill-rule:evenodd;stroke:#000000;stroke-width:2.0px;stroke-linecap:butt;stroke-linejoin:miter;stroke-opacity:1"/>
<path class="bond-2 atom-2 atom-3" d="M 107.2,562.6 L 107.3,586.6" style="fill:none;fill-rule:evenodd;stroke:#000000;stroke-width:2.0px;stroke-linecap:butt;stroke-linejoin:miter;stroke-opacity:1"/>
<path class="bond-3 atom-3 atom-4" d="M 102.9,589.2 L 128.1,603.7" style="fill:none;fill-rule:evenodd;stroke:#000000;stroke-width:2.0px;stroke-linecap:butt;stroke-linejoin:miter;stroke-opacity:1"/>
<path class="bond-4 atom-4 atom-5" d="M 128.1,603.7 L 153.3,589.1" style="fill:none;fill-rule:evenodd;stroke:#000000;stroke-width:2.0px;stroke-linecap:butt;stroke-linejoin:miter;stroke-opacity:1"/>
<path class="bond-4 atom-4 atom-5" d="M 128.1,598.7 L 148.9,586.6" style="fill:none;fill-rule:evenodd;stroke:#000000;stroke-width:2.0px;stroke-linecap:butt;stroke-linejoin:miter;stroke-opacity:1"/>
<path class="bond-5 atom-5 atom-6" d="M 153.3,589.1 L 178.5,603.6" style="fill:none;fill-rule:evenodd;stroke:#000000;stroke-width:2.0px;stroke-linecap:butt;stroke-linejoin:miter;stroke-opacity:1"/>
<path class="bond-6 atom-6 atom-7" d="M 178.5,603.6 L 203.7,589.1" style="fill:none;fill-rule:evenodd;stroke:#000000;stroke-width:2.0px;stroke-linecap:butt;stroke-linejoin:miter;stroke-opacity:1"/>
<path class="bond-6 atom-6 atom-7" d="M 178.5,598.6 L 199.3,586.6" style="fill:none;fill-rule:evenodd;stroke:#000000;stroke-width:2.0px;stroke-linecap:butt;stroke-linejoin:miter;stroke-opacity:1"/>
<path class="bond-7 atom-7 atom-8" d="M 203.7,589.1 L 228.9,603.6" style="fill:none;fill-rule:evenodd;stroke:#000000;stroke-width:2.0px;stroke-linecap:butt;stroke-linejoin:miter;stroke-opacity:1"/>
<path class="bond-8 atom-8 atom-9" d="M 228.9,603.6 L 228.9,632.7" style="fill:none;fill-rule:evenodd;stroke:#000000;stroke-width:2.0px;stroke-linecap:butt;stroke-linejoin:miter;stroke-opacity:1"/>
<path class="bond-9 atom-8 atom-10" d="M 228.9,603.6 L 254.0,589.0" style="fill:none;fill-rule:evenodd;stroke:#000000;stroke-width:2.0px;stroke-linecap:butt;stroke-linejoin:miter;stroke-opacity:1"/>
<path class="bond-10 atom-10 atom-11" d="M 256.2,590.3 L 256.2,578.8" style="fill:none;fill-rule:evenodd;stroke:#000000;stroke-width:2.0px;stroke-linecap:butt;stroke-linejoin:miter;stroke-opacity:1"/>
<path class="bond-10 atom-10 atom-11" d="M 256.2,578.8 L 256.2,567.4" style="fill:none;fill-rule:evenodd;stroke:#FF0000;stroke-width:2.0px;stroke-linecap:butt;stroke-linejoin:miter;stroke-opacity:1"/>
<path class="bond-10 atom-10 atom-11" d="M 251.9,590.3 L 251.8,578.8" style="fill:none;fill-rule:evenodd;stroke:#000000;stroke-width:2.0px;stroke-linecap:butt;stroke-linejoin:miter;stroke-opacity:1"/>
<path class="bond-10 atom-10 atom-11" d="M 251.8,578.8 L 251.8,567.4" style="fill:none;fill-rule:evenodd;stroke:#FF0000;stroke-width:2.0px;stroke-linecap:butt;stroke-linejoin:miter;stroke-opacity:1"/>
<path class="bond-11 atom-10 atom-12" d="M 254.0,589.0 L 263.3,594.4" style="fill:none;fill-rule:evenodd;stroke:#000000;stroke-width:2.0px;stroke-linecap:butt;stroke-linejoin:miter;stroke-opacity:1"/>
<path class="bond-11 atom-10 atom-12" d="M 263.3,594.4 L 272.6,599.7" style="fill:none;fill-rule:evenodd;stroke:#FF0000;stroke-width:2.0px;stroke-linecap:butt;stroke-linejoin:miter;stroke-opacity:1"/>
<path class="bond-12 atom-7 atom-13" d="M 203.7,589.1 L 203.6,560.0" style="fill:none;fill-rule:evenodd;stroke:#000000;stroke-width:2.0px;stroke-linecap:butt;stroke-linejoin:miter;stroke-opacity:1"/>
<path class="bond-13 atom-13 atom-14" d="M 203.6,560.0 L 178.4,545.5" style="fill:none;fill-rule:evenodd;stroke:#000000;stroke-width:2.0px;stroke-linecap:butt;stroke-linejoin:miter;stroke-opacity:1"/>
<path class="bond-13 atom-13 atom-14" d="M 199.3,562.5 L 178.4,550.5" style="fill:none;fill-rule:evenodd;stroke:#000000;stroke-width:2.0px;stroke-linecap:butt;stroke-linejoin:miter;stroke-opacity:1"/>
<path class="bond-14 atom-14 atom-15" d="M 178.4,545.5 L 153.3,560.0" style="fill:none;fill-rule:evenodd;stroke:#000000;stroke-width:2.0px;stroke-linecap:butt;stroke-linejoin:miter;stroke-opacity:1"/>
<path class="bond-15 atom-15 atom-16" d="M 153.3,560.0 L 128.1,545.5" style="fill:none;fill-rule:evenodd;stroke:#000000;stroke-width:2.0px;stroke-linecap:butt;stroke-linejoin:miter;stroke-opacity:1"/>
<path class="bond-15 atom-15 atom-16" d="M 148.9,562.6 L 128.1,550.6" style="fill:none;fill-rule:evenodd;stroke:#000000;stroke-width:2.0px;stroke-linecap:butt;stroke-linejoin:miter;stroke-opacity:1"/>
<path class="bond-16 atom-16 atom-2" d="M 128.1,545.5 L 102.9,560.1" style="fill:none;fill-rule:evenodd;stroke:#000000;stroke-width:2.0px;stroke-linecap:butt;stroke-linejoin:miter;stroke-opacity:1"/>
<path class="bond-17 atom-15 atom-5" d="M 153.3,560.0 L 153.3,589.1" style="fill:none;fill-rule:evenodd;stroke:#000000;stroke-width:2.0px;stroke-linecap:butt;stroke-linejoin:miter;stroke-opacity:1"/>
<path d="M 102.9,587.7 L 102.9,589.2 L 104.2,589.9" style="fill:none;stroke:#000000;stroke-width:2.0px;stroke-linecap:butt;stroke-linejoin:miter;stroke-miterlimit:10;stroke-opacity:1;"/>
<path d="M 126.8,603.0 L 128.1,603.7 L 129.4,603.0" style="fill:none;stroke:#000000;stroke-width:2.0px;stroke-linecap:butt;stroke-linejoin:miter;stroke-miterlimit:10;stroke-opacity:1;"/>
<path d="M 177.2,602.9 L 178.5,603.6 L 179.7,602.9" style="fill:none;stroke:#000000;stroke-width:2.0px;stroke-linecap:butt;stroke-linejoin:miter;stroke-miterlimit:10;stroke-opacity:1;"/>
<path d="M 252.8,589.8 L 254.0,589.0 L 254.5,589.3" style="fill:none;stroke:#000000;stroke-width:2.0px;stroke-linecap:butt;stroke-linejoin:miter;stroke-miterlimit:10;stroke-opacity:1;"/>
<path d="M 203.6,561.5 L 203.6,560.0 L 202.4,559.3" style="fill:none;stroke:#000000;stroke-width:2.0px;stroke-linecap:butt;stroke-linejoin:miter;stroke-miterlimit:10;stroke-opacity:1;"/>
<path d="M 179.7,546.2 L 178.4,545.5 L 177.2,546.2" style="fill:none;stroke:#000000;stroke-width:2.0px;stroke-linecap:butt;stroke-linejoin:miter;stroke-miterlimit:10;stroke-opacity:1;"/>
<path d="M 129.3,546.2 L 128.1,545.5 L 126.8,546.2" style="fill:none;stroke:#000000;stroke-width:2.0px;stroke-linecap:butt;stroke-linejoin:miter;stroke-miterlimit:10;stroke-opacity:1;"/>
<path class="atom-1" d="M 72.0 545.6 Q 72.0 542.6, 73.5 541.0 Q 74.9 539.3, 77.7 539.3 Q 80.4 539.3, 81.9 541.0 Q 83.3 542.6, 83.3 545.6 Q 83.3 548.6, 81.9 550.3 Q 80.4 552.0, 77.7 552.0 Q 75.0 552.0, 73.5 550.3 Q 72.0 548.6, 72.0 545.6 M 77.7 550.6 Q 79.6 550.6, 80.6 549.3 Q 81.6 548.1, 81.6 545.6 Q 81.6 543.2, 80.6 541.9 Q 79.6 540.7, 77.7 540.7 Q 75.8 540.7, 74.8 541.9 Q 73.8 543.1, 73.8 545.6 Q 73.8 548.1, 74.8 549.3 Q 75.8 550.6, 77.7 550.6 " fill="#FF0000"/>
<path class="atom-11" d="M 248.3 560.0 Q 248.3 557.0, 249.8 555.4 Q 251.3 553.7, 254.0 553.7 Q 256.8 553.7, 258.2 555.4 Q 259.7 557.0, 259.7 560.0 Q 259.7 563.0, 258.2 564.7 Q 256.7 566.4, 254.0 566.4 Q 251.3 566.4, 249.8 564.7 Q 248.3 563.0, 248.3 560.0 M 254.0 565.0 Q 255.9 565.0, 256.9 563.7 Q 257.9 562.5, 257.9 560.0 Q 257.9 557.6, 256.9 556.3 Q 255.9 555.1, 254.0 555.1 Q 252.1 555.1, 251.1 556.3 Q 250.1 557.6, 250.1 560.0 Q 250.1 562.5, 251.1 563.7 Q 252.1 565.0, 254.0 565.0 " fill="#FF0000"/>
<path class="atom-12" d="M 273.6 603.6 Q 273.6 600.6, 275.0 599.0 Q 276.5 597.3, 279.2 597.3 Q 282.0 597.3, 283.4 599.0 Q 284.9 600.6, 284.9 603.6 Q 284.9 606.6, 283.4 608.3 Q 281.9 610.0, 279.2 610.0 Q 276.5 610.0, 275.0 608.3 Q 273.6 606.6, 273.6 603.6 M 279.2 608.6 Q 281.1 608.6, 282.1 607.4 Q 283.2 606.1, 283.2 603.6 Q 283.2 601.2, 282.1 600.0 Q 281.1 598.7, 279.2 598.7 Q 277.4 598.7, 276.3 599.9 Q 275.3 601.2, 275.3 603.6 Q 275.3 606.1, 276.3 607.4 Q 277.4 608.6, 279.2 608.6 " fill="#FF0000"/>
<path class="atom-12" d="M 286.8 597.5 L 288.5 597.5 L 288.5 602.7 L 294.8 602.7 L 294.8 597.5 L 296.5 597.5 L 296.5 609.8 L 294.8 609.8 L 294.8 604.1 L 288.5 604.1 L 288.5 609.8 L 286.8 609.8 L 286.8 597.5 " fill="#FF0000"/>
<path class="legend" d="M 137.3 724.7 Q 137.3 722.3, 138.5 721.0 Q 139.6 719.7, 141.8 719.7 Q 143.9 719.7, 145.0 721.1 L 144.0 721.9 Q 143.2 720.8, 141.8 720.8 Q 140.3 720.8, 139.5 721.8 Q 138.8 722.8, 138.8 724.7 Q 138.8 726.7, 139.6 727.7 Q 140.4 728.7, 142.0 728.7 Q 143.1 728.7, 144.4 728.0 L 144.7 729.1 Q 144.2 729.4, 143.4 729.6 Q 142.7 729.8, 141.8 729.8 Q 139.6 729.8, 138.5 728.5 Q 137.3 727.2, 137.3 724.7 " fill="#000000"/>
<path class="legend" d="M 146.0 719.7 L 147.4 719.7 L 147.4 729.7 L 146.0 729.7 L 146.0 719.7 " fill="#000000"/>
<path class="legend" d="M 152.3 719.8 Q 154.5 719.8, 155.7 721.1 Q 156.9 722.4, 156.9 724.7 Q 156.9 727.1, 155.7 728.4 Q 154.5 729.7, 152.3 729.7 L 149.1 729.7 L 149.1 719.8 L 152.3 719.8 M 152.3 728.6 Q 153.8 728.6, 154.7 727.6 Q 155.5 726.6, 155.5 724.7 Q 155.5 722.8, 154.7 721.9 Q 153.8 720.9, 152.3 720.9 L 150.5 720.9 L 150.5 728.6 L 152.3 728.6 " fill="#000000"/>
<path class="legend" d="M 158.0 728.1 L 159.4 728.1 L 159.4 729.5 L 158.0 729.5 L 158.0 728.1 M 158.0 723.2 L 159.4 723.2 L 159.4 724.6 L 158.0 724.6 L 158.0 723.2 " fill="#000000"/>
<path class="legend" d="" fill="#000000"/>
<path class="legend" d="M 166.7 728.6 L 168.9 728.6 L 168.9 721.2 L 166.5 721.9 L 166.2 721.1 L 169.2 719.7 L 170.2 719.9 L 170.2 728.6 L 172.2 728.6 L 172.2 729.7 L 166.7 729.7 L 166.7 728.6 " fill="#000000"/>
<path class="legend" d="M 176.9 723.5 Q 177.7 723.5, 178.5 723.9 Q 179.2 724.2, 179.6 724.9 Q 180.0 725.6, 180.0 726.6 Q 180.0 727.6, 179.5 728.3 Q 179.0 729.1, 178.2 729.4 Q 177.4 729.8, 176.4 729.8 Q 175.5 729.8, 174.7 729.5 Q 173.9 729.1, 173.3 728.5 L 174.1 727.6 Q 174.6 728.1, 175.2 728.4 Q 175.8 728.7, 176.5 728.7 Q 177.4 728.7, 178.0 728.1 Q 178.6 727.6, 178.6 726.6 Q 178.6 725.5, 178.0 725.0 Q 177.4 724.5, 176.4 724.5 Q 175.5 724.5, 174.6 724.9 L 173.8 724.6 L 174.3 719.8 L 179.4 719.8 L 179.2 720.9 L 175.4 720.9 L 175.1 723.8 Q 176.0 723.5, 176.9 723.5 " fill="#000000"/>
<path class="legend" d="M 185.1 723.5 Q 185.9 723.5, 186.6 723.9 Q 187.3 724.3, 187.7 724.9 Q 188.1 725.6, 188.1 726.5 Q 188.1 727.5, 187.6 728.2 Q 187.2 729.0, 186.4 729.4 Q 185.7 729.8, 184.7 729.8 Q 183.0 729.8, 182.1 728.6 Q 181.2 727.4, 181.2 725.0 Q 181.2 722.4, 182.3 721.0 Q 183.4 719.7, 185.5 719.7 Q 186.1 719.7, 186.6 719.8 Q 187.2 720.0, 187.7 720.2 L 187.1 721.2 Q 186.4 720.8, 185.5 720.8 Q 184.1 720.8, 183.4 721.7 Q 182.7 722.6, 182.6 724.5 Q 183.1 724.0, 183.7 723.8 Q 184.4 723.5, 185.1 723.5 M 184.7 728.7 Q 185.3 728.7, 185.7 728.4 Q 186.1 728.1, 186.4 727.6 Q 186.7 727.1, 186.7 726.5 Q 186.7 725.6, 186.2 725.1 Q 185.7 724.6, 184.8 724.6 Q 184.2 724.6, 183.6 724.9 Q 183.0 725.1, 182.6 725.5 Q 182.6 727.2, 183.2 727.9 Q 183.7 728.7, 184.7 728.7 " fill="#000000"/>
<path class="legend" d="M 194.1 724.5 Q 195.1 724.8, 195.5 725.4 Q 196.0 726.0, 196.0 727.0 Q 196.0 727.8, 195.6 728.5 Q 195.2 729.1, 194.4 729.5 Q 193.6 729.8, 192.6 729.8 Q 191.6 729.8, 190.8 729.5 Q 190.0 729.1, 189.3 728.3 L 190.1 727.5 Q 190.8 728.2, 191.3 728.5 Q 191.8 728.7, 192.6 728.7 Q 193.5 728.7, 194.1 728.2 Q 194.6 727.7, 194.6 727.0 Q 194.6 726.0, 194.0 725.5 Q 193.5 725.0, 192.3 725.0 L 191.5 725.0 L 191.5 724.0 L 192.2 724.0 Q 193.2 724.0, 193.8 723.6 Q 194.4 723.1, 194.4 722.2 Q 194.4 721.6, 193.9 721.2 Q 193.4 720.8, 192.6 720.8 Q 191.8 720.8, 191.3 721.1 Q 190.8 721.4, 190.4 722.1 L 189.4 721.6 Q 189.8 720.8, 190.6 720.2 Q 191.5 719.7, 192.6 719.7 Q 194.1 719.7, 194.9 720.4 Q 195.8 721.0, 195.8 722.2 Q 195.8 723.0, 195.4 723.6 Q 194.9 724.2, 194.1 724.5 " fill="#000000"/>
<path class="legend" d="M 200.7 719.7 Q 202.4 719.7, 203.3 720.9 Q 204.2 722.1, 204.2 724.4 Q 204.2 727.1, 203.1 728.4 Q 202.0 729.8, 199.9 729.8 Q 199.3 729.8, 198.8 729.7 Q 198.2 729.5, 197.7 729.2 L 198.3 728.3 Q 199.0 728.7, 199.9 728.7 Q 201.3 728.7, 202.0 727.8 Q 202.7 726.9, 202.8 725.0 Q 202.3 725.5, 201.7 725.7 Q 201.0 726.0, 200.3 726.0 Q 199.5 726.0, 198.8 725.6 Q 198.1 725.2, 197.7 724.5 Q 197.4 723.8, 197.4 723.0 Q 197.4 722.0, 197.8 721.3 Q 198.2 720.5, 199.0 720.1 Q 199.7 719.7, 200.7 719.7 M 198.8 723.0 Q 198.8 723.8, 199.2 724.3 Q 199.7 724.9, 200.6 724.9 Q 201.2 724.9, 201.8 724.6 Q 202.4 724.4, 202.8 723.9 Q 202.8 722.3, 202.2 721.6 Q 201.7 720.8, 200.7 720.8 Q 200.1 720.8, 199.7 721.1 Q 199.3 721.4, 199.0 721.9 Q 198.8 722.4, 198.8 723.0 " fill="#000000"/>
<path class="legend" d="M 206.2 728.6 L 208.4 728.6 L 208.4 721.2 L 206.0 721.9 L 205.7 721.1 L 208.7 719.7 L 209.7 719.9 L 209.7 728.6 L 211.7 728.6 L 211.7 729.7 L 206.2 729.7 L 206.2 728.6 " fill="#000000"/>
<path class="legend" d="M 146.4 739.9 L 145.1 739.9 L 144.1 731.8 L 141.4 739.9 L 140.0 739.9 L 137.4 731.8 L 136.3 739.9 L 135.1 739.9 L 136.3 729.9 L 138.0 729.9 L 140.7 737.9 L 143.5 729.9 L 145.1 729.9 L 146.4 739.9 " fill="#000000"/>
<path class="legend" d="M 160.3 730.0 L 161.6 730.0 L 159.0 739.9 L 156.9 739.9 L 154.8 731.6 L 152.6 739.9 L 150.6 739.9 L 147.9 730.0 L 149.3 730.0 L 151.6 738.6 L 153.9 730.0 L 155.6 730.0 L 157.9 738.7 L 160.3 730.0 " fill="#000000"/>
<path class="legend" d="M 162.6 738.2 L 164.0 738.2 L 164.0 739.6 L 162.6 739.6 L 162.6 738.2 M 162.6 733.4 L 164.0 733.4 L 164.0 734.8 L 162.6 734.8 L 162.6 733.4 " fill="#000000"/>
<path class="legend" d="" fill="#000000"/>
<path class="legend" d="M 171.0 731.8 Q 171.4 730.9, 172.2 730.4 Q 173.1 729.8, 174.3 729.8 Q 175.8 729.8, 176.6 730.6 Q 177.5 731.5, 177.5 732.9 Q 177.5 734.4, 176.4 735.7 Q 175.3 737.1, 173.1 738.7 L 177.6 738.7 L 177.6 739.9 L 171.0 739.9 L 171.0 738.9 Q 172.8 737.6, 173.9 736.6 Q 175.0 735.6, 175.5 734.8 Q 176.1 733.9, 176.1 733.0 Q 176.1 732.0, 175.6 731.5 Q 175.1 731.0, 174.3 731.0 Q 173.5 731.0, 173.0 731.3 Q 172.4 731.6, 172.1 732.3 L 171.0 731.8 " fill="#000000"/>
<path class="legend" d="M 183.9 734.6 Q 184.8 734.9, 185.3 735.5 Q 185.8 736.2, 185.8 737.1 Q 185.8 738.0, 185.3 738.6 Q 184.9 739.3, 184.2 739.6 Q 183.4 740.0, 182.4 740.0 Q 181.3 740.0, 180.5 739.6 Q 179.7 739.3, 179.1 738.5 L 179.9 737.7 Q 180.5 738.4, 181.0 738.6 Q 181.6 738.9, 182.4 738.9 Q 183.3 738.9, 183.8 738.4 Q 184.4 737.9, 184.4 737.1 Q 184.4 736.1, 183.8 735.7 Q 183.2 735.2, 182.0 735.2 L 181.3 735.2 L 181.3 734.2 L 181.9 734.2 Q 183.0 734.2, 183.6 733.7 Q 184.2 733.3, 184.2 732.4 Q 184.2 731.7, 183.7 731.3 Q 183.2 731.0, 182.4 731.0 Q 181.6 731.0, 181.0 731.2 Q 180.5 731.5, 180.2 732.3 L 179.2 731.8 Q 179.5 730.9, 180.4 730.4 Q 181.2 729.8, 182.4 729.8 Q 183.8 729.8, 184.7 730.5 Q 185.6 731.2, 185.6 732.4 Q 185.6 733.2, 185.1 733.7 Q 184.7 734.3, 183.9 734.6 " fill="#000000"/>
<path class="legend" d="M 190.8 740.0 Q 189.0 740.0, 188.1 738.6 Q 187.2 737.3, 187.2 734.9 Q 187.2 732.5, 188.1 731.2 Q 189.0 729.8, 190.8 729.8 Q 192.7 729.8, 193.6 731.2 Q 194.5 732.5, 194.5 734.9 Q 194.5 737.3, 193.6 738.6 Q 192.7 740.0, 190.8 740.0 M 190.8 738.9 Q 191.9 738.9, 192.5 737.9 Q 193.1 736.8, 193.1 734.9 Q 193.1 732.9, 192.5 731.9 Q 191.9 731.0, 190.8 731.0 Q 189.8 731.0, 189.2 731.9 Q 188.6 732.9, 188.6 734.9 Q 188.6 736.8, 189.2 737.9 Q 189.8 738.9, 190.8 738.9 " fill="#000000"/>
<path class="legend" d="M 196.0 738.5 L 197.4 738.5 L 197.4 739.9 L 196.0 739.9 L 196.0 738.5 " fill="#000000"/>
<path class="legend" d="M 199.0 731.8 Q 199.3 730.9, 200.2 730.4 Q 201.1 729.8, 202.3 729.8 Q 203.8 729.8, 204.6 730.6 Q 205.4 731.5, 205.4 732.9 Q 205.4 734.4, 204.3 735.7 Q 203.3 737.1, 201.0 738.7 L 205.6 738.7 L 205.6 739.9 L 198.9 739.9 L 198.9 738.9 Q 200.8 737.6, 201.9 736.6 Q 203.0 735.6, 203.5 734.8 Q 204.0 733.9, 204.0 733.0 Q 204.0 732.0, 203.6 731.5 Q 203.1 731.0, 202.3 731.0 Q 201.5 731.0, 200.9 731.3 Q 200.4 731.6, 200.0 732.3 L 199.0 731.8 " fill="#000000"/>
<path class="legend" d="M 210.9 733.7 Q 211.8 733.7, 212.5 734.0 Q 213.2 734.4, 213.6 735.1 Q 213.9 735.8, 213.9 736.7 Q 213.9 737.6, 213.5 738.4 Q 213.1 739.1, 212.3 739.6 Q 211.6 740.0, 210.6 740.0 Q 208.8 740.0, 207.9 738.8 Q 207.1 737.6, 207.1 735.2 Q 207.1 732.6, 208.2 731.2 Q 209.3 729.8, 211.4 729.8 Q 212.0 729.8, 212.5 730.0 Q 213.0 730.1, 213.5 730.4 L 213.0 731.3 Q 212.3 731.0, 211.4 731.0 Q 210.0 731.0, 209.3 731.9 Q 208.6 732.8, 208.5 734.6 Q 209.0 734.2, 209.6 733.9 Q 210.3 733.7, 210.9 733.7 M 210.6 738.8 Q 211.1 738.8, 211.6 738.5 Q 212.0 738.3, 212.3 737.8 Q 212.5 737.3, 212.5 736.7 Q 212.5 735.8, 212.0 735.3 Q 211.6 734.8, 210.7 734.8 Q 210.1 734.8, 209.5 735.0 Q 208.9 735.3, 208.5 735.7 Q 208.5 737.3, 209.0 738.1 Q 209.6 738.8, 210.6 738.8 " fill="#000000"/>
<path class="bond-0 atom-0 atom-1" d="M 472.6,531.9 L 472.6,543.4" style="fill:none;fill-rule:evenodd;stroke:#FF0000;stroke-width:2.0px;stroke-linecap:butt;stroke-linejoin:miter;stroke-opacity:1"/>
<path class="bond-0 atom-0 atom-1" d="M 472.6,543.4 L 472.6,554.8" style="fill:none;fill-rule:evenodd;stroke:#000000;stroke-width:2.0px;stroke-linecap:butt;stroke-linejoin:miter;stroke-opacity:1"/>
<path class="bond-0 atom-0 atom-1" d="M 468.2,531.9 L 468.2,543.4" style="fill:none;fill-rule:evenodd;stroke:#FF0000;stroke-width:2.0px;stroke-linecap:butt;stroke-linejoin:miter;stroke-opacity:1"/>
<path class="bond-0 atom-0 atom-1" d="M 468.2,543.4 L 468.2,554.8" style="fill:none;fill-rule:evenodd;stroke:#000000;stroke-width:2.0px;stroke-linecap:butt;stroke-linejoin:miter;stroke-opacity:1"/>
<path class="bond-1 atom-1 atom-2" d="M 470.4,553.6 L 461.2,558.9" style="fill:none;fill-rule:evenodd;stroke:#000000;stroke-width:2.0px;stroke-linecap:butt;stroke-linejoin:miter;stroke-opacity:1"/>
<path class="bond-1 atom-1 atom-2" d="M 461.2,558.9 L 451.9,564.3" style="fill:none;fill-rule:evenodd;stroke:#FF0000;stroke-width:2.0px;stroke-linecap:butt;stroke-linejoin:miter;stroke-opacity:1"/>
<path class="bond-2 atom-1 atom-3" d="M 470.4,553.6 L 495.6,568.1" style="fill:none;fill-rule:evenodd;stroke:#000000;stroke-width:2.0px;stroke-linecap:butt;stroke-linejoin:miter;stroke-opacity:1"/>
<path class="bond-3 atom-3 atom-4" d="M 495.6,568.1 L 520.8,553.5" style="fill:none;fill-rule:evenodd;stroke:#000000;stroke-width:2.0px;stroke-linecap:butt;stroke-linejoin:miter;stroke-opacity:1"/>
<path class="bond-4 atom-4 atom-5" d="M 520.8,553.5 L 520.8,524.5" style="fill:none;fill-rule:evenodd;stroke:#000000;stroke-width:2.0px;stroke-linecap:butt;stroke-linejoin:miter;stroke-opacity:1"/>
<path class="bond-4 atom-4 atom-5" d="M 525.2,551.0 L 525.1,527.0" style="fill:none;fill-rule:evenodd;stroke:#000000;stroke-width:2.0px;stroke-linecap:butt;stroke-linejoin:miter;stroke-opacity:1"/>
<path class="bond-5 atom-5 atom-6" d="M 520.8,524.5 L 546.0,509.9" style="fill:none;fill-rule:evenodd;stroke:#000000;stroke-width:2.0px;stroke-linecap:butt;stroke-linejoin:miter;stroke-opacity:1"/>
<path class="bond-6 atom-6 atom-7" d="M 546.0,509.9 L 571.2,524.4" style="fill:none;fill-rule:evenodd;stroke:#000000;stroke-width:2.0px;stroke-linecap:butt;stroke-linejoin:miter;stroke-opacity:1"/>
<path class="bond-6 atom-6 atom-7" d="M 546.0,514.9 L 566.8,526.9" style="fill:none;fill-rule:evenodd;stroke:#000000;stroke-width:2.0px;stroke-linecap:butt;stroke-linejoin:miter;stroke-opacity:1"/>
<path class="bond-7 atom-7 atom-8" d="M 571.2,524.4 L 571.2,553.5" style="fill:none;fill-rule:evenodd;stroke:#000000;stroke-width:2.0px;stroke-linecap:butt;stroke-linejoin:miter;stroke-opacity:1"/>
<path class="bond-8 atom-8 atom-9" d="M 571.2,553.5 L 546.0,568.1" style="fill:none;fill-rule:evenodd;stroke:#000000;stroke-width:2.0px;stroke-linecap:butt;stroke-linejoin:miter;stroke-opacity:1"/>
<path class="bond-8 atom-8 atom-9" d="M 566.8,551.0 L 546.0,563.0" style="fill:none;fill-rule:evenodd;stroke:#000000;stroke-width:2.0px;stroke-linecap:butt;stroke-linejoin:miter;stroke-opacity:1"/>
<path class="bond-9 atom-9 atom-10" d="M 546.0,568.1 L 546.0,579.0" style="fill:none;fill-rule:evenodd;stroke:#000000;stroke-width:2.0px;stroke-linecap:butt;stroke-linejoin:miter;stroke-opacity:1"/>
<path class="bond-9 atom-9 atom-10" d="M 546.0,579.0 L 546.0,590.0" style="fill:none;fill-rule:evenodd;stroke:#0000FF;stroke-width:2.0px;stroke-linecap:butt;stroke-linejoin:miter;stroke-opacity:1"/>
<path class="bond-10 atom-10 atom-11" d="M 551.7,600.4 L 561.4,606.0" style="fill:none;fill-rule:evenodd;stroke:#0000FF;stroke-width:2.0px;stroke-linecap:butt;stroke-linejoin:miter;stroke-opacity:1"/>
<path class="bond-10 atom-10 atom-11" d="M 561.4,606.0 L 571.2,611.7" style="fill:none;fill-rule:evenodd;stroke:#000000;stroke-width:2.0px;stroke-linecap:butt;stroke-linejoin:miter;stroke-opacity:1"/>
<path class="bond-11 atom-11 atom-12" d="M 571.2,611.7 L 571.2,640.8" style="fill:none;fill-rule:evenodd;stroke:#000000;stroke-width:2.0px;stroke-linecap:butt;stroke-linejoin:miter;stroke-opacity:1"/>
<path class="bond-11 atom-11 atom-12" d="M 575.6,614.2 L 575.6,638.2" style="fill:none;fill-rule:evenodd;stroke:#000000;stroke-width:2.0px;stroke-linecap:butt;stroke-linejoin:miter;stroke-opacity:1"/>
<path class="bond-12 atom-12 atom-13" d="M 571.2,640.8 L 559.5,647.5" style="fill:none;fill-rule:evenodd;stroke:#000000;stroke-width:2.0px;stroke-linecap:butt;stroke-linejoin:miter;stroke-opacity:1"/>
<path class="bond-12 atom-12 atom-13" d="M 559.5,647.5 L 547.8,654.3" style="fill:none;fill-rule:evenodd;stroke:#00CC00;stroke-width:2.0px;stroke-linecap:butt;stroke-linejoin:miter;stroke-opacity:1"/>
<path class="bond-13 atom-12 atom-14" d="M 571.2,640.8 L 596.5,655.3" style="fill:none;fill-rule:evenodd;stroke:#000000;stroke-width:2.0px;stroke-linecap:butt;stroke-linejoin:miter;stroke-opacity:1"/>
<path class="bond-14 atom-14 atom-15" d="M 596.5,655.3 L 621.6,640.7" style="fill:none;fill-rule:evenodd;stroke:#000000;stroke-width:2.0px;stroke-linecap:butt;stroke-linejoin:miter;stroke-opacity:1"/>
<path class="bond-14 atom-14 atom-15" d="M 596.4,650.2 L 617.3,638.2" style="fill:none;fill-rule:evenodd;stroke:#000000;stroke-width:2.0px;stroke-linecap:butt;stroke-linejoin:miter;stroke-opacity:1"/>
<path class="bond-15 atom-15 atom-16" d="M 621.6,640.7 L 621.6,611.6" style="fill:none;fill-rule:evenodd;stroke:#000000;stroke-width:2.0px;stroke-linecap:butt;stroke-linejoin:miter;stroke-opacity:1"/>
<path class="bond-16 atom-16 atom-17" d="M 621.6,611.6 L 596.4,597.1" style="fill:none;fill-rule:evenodd;stroke:#000000;stroke-width:2.0px;stroke-linecap:butt;stroke-linejoin:miter;stroke-opacity:1"/>
<path class="bond-16 atom-16 atom-17" d="M 617.2,614.2 L 596.4,602.2" style="fill:none;fill-rule:evenodd;stroke:#000000;stroke-width:2.0px;stroke-linecap:butt;stroke-linejoin:miter;stroke-opacity:1"/>
<path class="bond-17 atom-17 atom-18" d="M 596.4,597.1 L 596.4,586.4" style="fill:none;fill-rule:evenodd;stroke:#000000;stroke-width:2.0px;stroke-linecap:butt;stroke-linejoin:miter;stroke-opacity:1"/>
<path class="bond-17 atom-17 atom-18" d="M 596.4,586.4 L 596.4,575.8" style="fill:none;fill-rule:evenodd;stroke:#00CC00;stroke-width:2.0px;stroke-linecap:butt;stroke-linejoin:miter;stroke-opacity:1"/>
<path class="bond-18 atom-9 atom-4" d="M 546.0,568.1 L 520.8,553.5" style="fill:none;fill-rule:evenodd;stroke:#000000;stroke-width:2.0px;stroke-linecap:butt;stroke-linejoin:miter;stroke-opacity:1"/>
<path class="bond-19 atom-17 atom-11" d="M 596.4,597.1 L 571.2,611.7" style="fill:none;fill-rule:evenodd;stroke:#000000;stroke-width:2.0px;stroke-linecap:butt;stroke-linejoin:miter;stroke-opacity:1"/>
<path d="M 470.0,553.9 L 470.4,553.6 L 471.7,554.3" style="fill:none;stroke:#000000;stroke-width:2.0px;stroke-linecap:butt;stroke-linejoin:miter;stroke-miterlimit:10;stroke-opacity:1;"/>
<path d="M 494.4,567.4 L 495.6,568.1 L 496.9,567.4" style="fill:none;stroke:#000000;stroke-width:2.0px;stroke-linecap:butt;stroke-linejoin:miter;stroke-miterlimit:10;stroke-opacity:1;"/>
<path d="M 520.8,525.9 L 520.8,524.5 L 522.0,523.7" style="fill:none;stroke:#000000;stroke-width:2.0px;stroke-linecap:butt;stroke-linejoin:miter;stroke-miterlimit:10;stroke-opacity:1;"/>
<path d="M 544.7,510.6 L 546.0,509.9 L 547.2,510.6" style="fill:none;stroke:#000000;stroke-width:2.0px;stroke-linecap:butt;stroke-linejoin:miter;stroke-miterlimit:10;stroke-opacity:1;"/>
<path d="M 569.9,523.7 L 571.2,524.4 L 571.2,525.9" style="fill:none;stroke:#000000;stroke-width:2.0px;stroke-linecap:butt;stroke-linejoin:miter;stroke-miterlimit:10;stroke-opacity:1;"/>
<path d="M 571.2,552.0 L 571.2,553.5 L 569.9,554.2" style="fill:none;stroke:#000000;stroke-width:2.0px;stroke-linecap:butt;stroke-linejoin:miter;stroke-miterlimit:10;stroke-opacity:1;"/>
<path d="M 595.2,654.6 L 596.5,655.3 L 597.7,654.6" style="fill:none;stroke:#000000;stroke-width:2.0px;stroke-linecap:butt;stroke-linejoin:miter;stroke-miterlimit:10;stroke-opacity:1;"/>
<path d="M 620.4,641.5 L 621.6,640.7 L 621.6,639.3" style="fill:none;stroke:#000000;stroke-width:2.0px;stroke-linecap:butt;stroke-linejoin:miter;stroke-miterlimit:10;stroke-opacity:1;"/>
<path d="M 621.6,613.1 L 621.6,611.6 L 620.3,610.9" style="fill:none;stroke:#000000;stroke-width:2.0px;stroke-linecap:butt;stroke-linejoin:miter;stroke-miterlimit:10;stroke-opacity:1;"/>
<path class="atom-0" d="M 464.7 524.5 Q 464.7 521.6, 466.2 519.9 Q 467.7 518.2, 470.4 518.2 Q 473.1 518.2, 474.6 519.9 Q 476.1 521.6, 476.1 524.5 Q 476.1 527.5, 474.6 529.2 Q 473.1 530.9, 470.4 530.9 Q 467.7 530.9, 466.2 529.2 Q 464.7 527.6, 464.7 524.5 M 470.4 529.5 Q 472.3 529.5, 473.3 528.3 Q 474.3 527.0, 474.3 524.5 Q 474.3 522.1, 473.3 520.9 Q 472.3 519.6, 470.4 519.6 Q 468.5 519.6, 467.5 520.9 Q 466.5 522.1, 466.5 524.5 Q 466.5 527.0, 467.5 528.3 Q 468.5 529.5, 470.4 529.5 " fill="#FF0000"/>
<path class="atom-2" d="M 427.4 562.0 L 429.0 562.0 L 429.0 567.3 L 435.4 567.3 L 435.4 562.0 L 437.0 562.0 L 437.0 574.4 L 435.4 574.4 L 435.4 568.7 L 429.0 568.7 L 429.0 574.4 L 427.4 574.4 L 427.4 562.0 " fill="#FF0000"/>
<path class="atom-2" d="M 439.6 568.2 Q 439.6 565.2, 441.0 563.6 Q 442.5 561.9, 445.2 561.9 Q 448.0 561.9, 449.5 563.6 Q 450.9 565.2, 450.9 568.2 Q 450.9 571.2, 449.4 572.9 Q 448.0 574.6, 445.2 574.6 Q 442.5 574.6, 441.0 572.9 Q 439.6 571.2, 439.6 568.2 M 445.2 573.2 Q 447.1 573.2, 448.1 571.9 Q 449.2 570.7, 449.2 568.2 Q 449.2 565.8, 448.1 564.5 Q 447.1 563.3, 445.2 563.3 Q 443.4 563.3, 442.3 564.5 Q 441.3 565.7, 441.3 568.2 Q 441.3 570.7, 442.3 571.9 Q 443.4 573.2, 445.2 573.2 " fill="#FF0000"/>
<path class="atom-10" d="M 529.2 591.0 L 530.9 591.0 L 530.9 596.2 L 537.2 596.2 L 537.2 591.0 L 538.9 591.0 L 538.9 603.3 L 537.2 603.3 L 537.2 597.6 L 530.9 597.6 L 530.9 603.3 L 529.2 603.3 L 529.2 591.0 " fill="#0000FF"/>
<path class="atom-10" d="M 543.3 591.0 L 547.3 597.5 Q 547.7 598.2, 548.4 599.3 Q 549.0 600.5, 549.1 600.6 L 549.1 591.0 L 550.7 591.0 L 550.7 603.3 L 549.0 603.3 L 544.7 596.2 Q 544.2 595.3, 543.6 594.4 Q 543.1 593.4, 542.9 593.1 L 542.9 603.3 L 541.3 603.3 L 541.3 591.0 L 543.3 591.0 " fill="#0000FF"/>
<path class="atom-13" d="M 534.5 655.8 Q 534.5 652.7, 535.9 651.1 Q 537.4 649.5, 540.1 649.5 Q 542.7 649.5, 544.0 651.2 L 542.9 652.2 Q 541.9 650.9, 540.1 650.9 Q 538.2 650.9, 537.2 652.1 Q 536.3 653.4, 536.3 655.8 Q 536.3 658.2, 537.3 659.5 Q 538.3 660.7, 540.3 660.7 Q 541.7 660.7, 543.2 659.9 L 543.7 661.2 Q 543.1 661.6, 542.1 661.9 Q 541.1 662.1, 540.1 662.1 Q 537.4 662.1, 535.9 660.5 Q 534.5 658.8, 534.5 655.8 " fill="#00CC00"/>
<path class="atom-13" d="M 545.3 648.7 L 546.9 648.7 L 546.9 661.9 L 545.3 661.9 L 545.3 648.7 " fill="#00CC00"/>
<path class="atom-18" d="M 591.6 568.5 Q 591.6 565.4, 593.0 563.8 Q 594.5 562.2, 597.2 562.2 Q 599.8 562.2, 601.1 563.9 L 600.0 564.9 Q 599.0 563.6, 597.2 563.6 Q 595.4 563.6, 594.4 564.8 Q 593.4 566.1, 593.4 568.5 Q 593.4 570.9, 594.4 572.2 Q 595.4 573.4, 597.4 573.4 Q 598.8 573.4, 600.4 572.6 L 600.9 573.9 Q 600.2 574.3, 599.2 574.6 Q 598.3 574.8, 597.2 574.8 Q 594.5 574.8, 593.0 573.2 Q 591.6 571.5, 591.6 568.5 " fill="#00CC00"/>
<path class="atom-18" d="M 602.4 561.4 L 604.0 561.4 L 604.0 574.6 L 602.4 574.6 L 602.4 561.4 " fill="#00CC00"/>
<path class="legend" d="M 494.4 724.8 Q 494.4 722.3, 495.6 721.0 Q 496.8 719.7, 499.0 719.7 Q 501.0 719.7, 502.1 721.1 L 501.2 721.9 Q 500.4 720.8, 499.0 720.8 Q 497.5 720.8, 496.7 721.9 Q 495.9 722.8, 495.9 724.8 Q 495.9 726.7, 496.7 727.7 Q 497.5 728.7, 499.1 728.7 Q 500.2 728.7, 501.5 728.1 L 501.9 729.1 Q 501.3 729.5, 500.6 729.7 Q 499.8 729.8, 498.9 729.8 Q 496.8 729.8, 495.6 728.5 Q 494.4 727.2, 494.4 724.8 " fill="#000000"/>
<path class="legend" d="M 503.2 719.8 L 504.5 719.8 L 504.5 729.7 L 503.2 729.7 L 503.2 719.8 " fill="#000000"/>
<path class="legend" d="M 509.4 719.8 Q 511.6 719.8, 512.8 721.1 Q 514.0 722.4, 514.0 724.7 Q 514.0 727.1, 512.8 728.4 Q 511.6 729.7, 509.4 729.7 L 506.2 729.7 L 506.2 719.8 L 509.4 719.8 M 509.4 728.6 Q 510.9 728.6, 511.8 727.6 Q 512.6 726.7, 512.6 724.7 Q 512.6 722.8, 511.8 721.9 Q 510.9 720.9, 509.4 720.9 L 507.6 720.9 L 507.6 728.6 L 509.4 728.6 " fill="#000000"/>
<path class="legend" d="M 515.1 728.1 L 516.5 728.1 L 516.5 729.5 L 515.1 729.5 L 515.1 728.1 M 515.1 723.3 L 516.5 723.3 L 516.5 724.7 L 515.1 724.7 L 515.1 723.3 " fill="#000000"/>
<path class="legend" d="" fill="#000000"/>
<path class="legend" d="M 528.0 724.5 Q 529.0 724.8, 529.4 725.4 Q 529.9 726.0, 529.9 727.0 Q 529.9 727.8, 529.5 728.5 Q 529.1 729.1, 528.3 729.5 Q 527.5 729.9, 526.5 729.9 Q 525.4 729.9, 524.6 729.5 Q 523.9 729.1, 523.2 728.4 L 524.0 727.6 Q 524.6 728.2, 525.2 728.5 Q 525.7 728.7, 526.5 728.7 Q 527.4 728.7, 528.0 728.3 Q 528.5 727.8, 528.5 727.0 Q 528.5 726.0, 527.9 725.5 Q 527.4 725.1, 526.1 725.1 L 525.4 725.1 L 525.4 724.1 L 526.1 724.1 Q 527.1 724.1, 527.7 723.6 Q 528.3 723.1, 528.3 722.2 Q 528.3 721.6, 527.8 721.2 Q 527.3 720.8, 526.5 720.8 Q 525.7 720.8, 525.2 721.1 Q 524.7 721.4, 524.3 722.1 L 523.3 721.6 Q 523.7 720.8, 524.5 720.3 Q 525.3 719.7, 526.5 719.7 Q 528.0 719.7, 528.8 720.4 Q 529.7 721.1, 529.7 722.2 Q 529.7 723.0, 529.3 723.6 Q 528.8 724.2, 528.0 724.5 " fill="#000000"/>
<path class="legend" d="M 534.9 729.8 Q 533.0 729.8, 532.1 728.5 Q 531.2 727.1, 531.2 724.8 Q 531.2 722.4, 532.1 721.0 Q 533.0 719.7, 534.9 719.7 Q 536.7 719.7, 537.6 721.0 Q 538.5 722.4, 538.5 724.8 Q 538.5 727.1, 537.6 728.5 Q 536.7 729.8, 534.9 729.8 M 534.9 728.7 Q 535.9 728.7, 536.5 727.7 Q 537.1 726.7, 537.1 724.8 Q 537.1 722.8, 536.5 721.8 Q 535.9 720.8, 534.9 720.8 Q 533.8 720.8, 533.2 721.8 Q 532.6 722.8, 532.6 724.8 Q 532.6 726.7, 533.2 727.7 Q 533.8 728.7, 534.9 728.7 " fill="#000000"/>
<path class="legend" d="M 544.7 724.5 Q 545.6 724.8, 546.1 725.4 Q 546.6 726.0, 546.6 727.0 Q 546.6 727.8, 546.1 728.5 Q 545.7 729.1, 544.9 729.5 Q 544.2 729.9, 543.2 729.9 Q 542.1 729.9, 541.3 729.5 Q 540.5 729.1, 539.9 728.4 L 540.7 727.6 Q 541.3 728.2, 541.8 728.5 Q 542.3 728.7, 543.2 728.7 Q 544.1 728.7, 544.6 728.3 Q 545.2 727.8, 545.2 727.0 Q 545.2 726.0, 544.6 725.5 Q 544.0 725.1, 542.8 725.1 L 542.1 725.1 L 542.1 724.1 L 542.7 724.1 Q 543.8 724.1, 544.4 723.6 Q 544.9 723.1, 544.9 722.2 Q 544.9 721.6, 544.5 721.2 Q 544.0 720.8, 543.2 720.8 Q 542.4 720.8, 541.8 721.1 Q 541.3 721.4, 540.9 722.1 L 540.0 721.6 Q 540.3 720.8, 541.2 720.3 Q 542.0 719.7, 543.2 719.7 Q 544.6 719.7, 545.5 720.4 Q 546.3 721.1, 546.3 722.2 Q 546.3 723.0, 545.9 723.6 Q 545.5 724.2, 544.7 724.5 " fill="#000000"/>
<path class="legend" d="M 552.6 724.5 Q 553.6 724.8, 554.1 725.4 Q 554.6 726.0, 554.6 727.0 Q 554.6 727.8, 554.1 728.5 Q 553.7 729.1, 552.9 729.5 Q 552.2 729.9, 551.2 729.9 Q 550.1 729.9, 549.3 729.5 Q 548.5 729.1, 547.9 728.4 L 548.7 727.6 Q 549.3 728.2, 549.8 728.5 Q 550.3 728.7, 551.2 728.7 Q 552.1 728.7, 552.6 728.3 Q 553.2 727.8, 553.2 727.0 Q 553.2 726.0, 552.6 725.5 Q 552.0 725.1, 550.8 725.1 L 550.1 725.1 L 550.1 724.1 L 550.7 724.1 Q 551.8 724.1, 552.4 723.6 Q 552.9 723.1, 552.9 722.2 Q 552.9 721.6, 552.5 721.2 Q 552.0 720.8, 551.2 720.8 Q 550.4 720.8, 549.8 721.1 Q 549.3 721.4, 548.9 722.1 L 548.0 721.6 Q 548.3 720.8, 549.2 720.3 Q 550.0 719.7, 551.2 719.7 Q 552.6 719.7, 553.5 720.4 Q 554.3 721.1, 554.3 722.2 Q 554.3 723.0, 553.9 723.6 Q 553.5 724.2, 552.6 724.5 " fill="#000000"/>
<path class="legend" d="M 497.1 739.9 L 495.8 739.9 L 494.8 731.8 L 492.1 739.9 L 490.7 739.9 L 488.1 731.8 L 487.0 739.9 L 485.8 739.9 L 487.0 730.0 L 488.7 730.0 L 491.4 738.0 L 494.2 730.0 L 495.8 730.0 L 497.1 739.9 " fill="#000000"/>
<path class="legend" d="M 510.9 730.0 L 512.3 730.0 L 509.6 739.9 L 507.6 739.9 L 505.5 731.6 L 503.3 739.9 L 501.3 739.9 L 498.6 730.0 L 500.0 730.0 L 502.3 738.7 L 504.6 730.0 L 506.3 730.0 L 508.6 738.7 L 510.9 730.0 " fill="#000000"/>
<path class="legend" d="M 513.3 738.2 L 514.7 738.2 L 514.7 739.6 L 513.3 739.6 L 513.3 738.2 M 513.3 733.4 L 514.7 733.4 L 514.7 734.8 L 513.3 734.8 L 513.3 733.4 " fill="#000000"/>
<path class="legend" d="" fill="#000000"/>
<path class="legend" d="M 521.6 731.9 Q 522.0 730.9, 522.9 730.4 Q 523.7 729.9, 525.0 729.9 Q 526.5 729.9, 527.3 730.7 Q 528.1 731.5, 528.1 732.9 Q 528.1 734.4, 527.0 735.8 Q 526.0 737.1, 523.7 738.8 L 528.3 738.8 L 528.3 739.9 L 521.6 739.9 L 521.6 738.9 Q 523.5 737.6, 524.6 736.7 Q 525.7 735.7, 526.2 734.8 Q 526.7 733.9, 526.7 733.0 Q 526.7 732.0, 526.3 731.5 Q 525.8 731.0, 525.0 731.0 Q 524.2 731.0, 523.6 731.3 Q 523.1 731.6, 522.7 732.3 L 521.6 731.9 " fill="#000000"/>
<path class="legend" d="M 533.1 729.9 Q 534.8 729.9, 535.7 731.1 Q 536.6 732.3, 536.6 734.6 Q 536.6 737.3, 535.5 738.6 Q 534.4 740.0, 532.3 740.0 Q 531.7 740.0, 531.2 739.9 Q 530.6 739.7, 530.1 739.4 L 530.7 738.5 Q 531.4 738.9, 532.3 738.9 Q 533.7 738.9, 534.4 738.0 Q 535.1 737.1, 535.2 735.2 Q 534.7 735.7, 534.1 735.9 Q 533.4 736.2, 532.7 736.2 Q 531.9 736.2, 531.2 735.8 Q 530.5 735.4, 530.1 734.7 Q 529.7 734.0, 529.7 733.2 Q 529.7 732.2, 530.2 731.5 Q 530.6 730.7, 531.4 730.3 Q 532.1 729.9, 533.1 729.9 M 531.1 733.2 Q 531.1 734.0, 531.6 734.5 Q 532.1 735.0, 533.0 735.0 Q 533.6 735.0, 534.2 734.8 Q 534.8 734.6, 535.2 734.1 Q 535.2 732.5, 534.6 731.8 Q 534.1 731.0, 533.1 731.0 Q 532.5 731.0, 532.1 731.3 Q 531.7 731.6, 531.4 732.1 Q 531.1 732.6, 531.1 733.2 " fill="#000000"/>
<path class="legend" d="M 542.1 733.7 Q 542.9 733.7, 543.6 734.1 Q 544.3 734.5, 544.7 735.1 Q 545.1 735.8, 545.1 736.7 Q 545.1 737.7, 544.6 738.4 Q 544.2 739.2, 543.4 739.6 Q 542.7 740.0, 541.7 740.0 Q 540.0 740.0, 539.1 738.8 Q 538.2 737.6, 538.2 735.2 Q 538.2 732.6, 539.3 731.2 Q 540.4 729.9, 542.5 729.9 Q 543.1 729.9, 543.6 730.0 Q 544.2 730.1, 544.7 730.4 L 544.1 731.4 Q 543.4 731.0, 542.5 731.0 Q 541.1 731.0, 540.4 731.9 Q 539.7 732.8, 539.6 734.7 Q 540.1 734.2, 540.7 734.0 Q 541.4 733.7, 542.1 733.7 M 541.7 738.9 Q 542.3 738.9, 542.7 738.6 Q 543.2 738.3, 543.4 737.8 Q 543.7 737.3, 543.7 736.7 Q 543.7 735.8, 543.2 735.3 Q 542.7 734.8, 541.8 734.8 Q 541.2 734.8, 540.6 735.1 Q 540.0 735.3, 539.6 735.7 Q 539.7 737.4, 540.2 738.1 Q 540.7 738.9, 541.7 738.9 " fill="#000000"/>
<path class="legend" d="M 546.4 738.5 L 547.8 738.5 L 547.8 739.9 L 546.4 739.9 L 546.4 738.5 " fill="#000000"/>
<path class="legend" d="M 549.9 738.8 L 552.1 738.8 L 552.1 731.4 L 549.7 732.1 L 549.4 731.3 L 552.4 729.9 L 553.4 730.1 L 553.4 738.8 L 555.3 738.8 L 555.3 739.9 L 549.9 739.9 L 549.9 738.8 " fill="#000000"/>
<path class="legend" d="M 560.1 733.7 Q 561.0 733.7, 561.7 734.1 Q 562.4 734.4, 562.8 735.1 Q 563.2 735.8, 563.2 736.8 Q 563.2 737.8, 562.7 738.5 Q 562.2 739.2, 561.4 739.6 Q 560.6 740.0, 559.7 740.0 Q 558.8 740.0, 557.9 739.7 Q 557.1 739.3, 556.5 738.7 L 557.4 737.8 Q 557.8 738.3, 558.5 738.6 Q 559.1 738.9, 559.7 738.9 Q 560.6 738.9, 561.2 738.3 Q 561.8 737.8, 561.8 736.8 Q 561.8 735.7, 561.2 735.2 Q 560.6 734.7, 559.7 734.7 Q 558.8 734.7, 557.8 735.1 L 557.0 734.7 L 557.5 730.0 L 562.6 730.0 L 562.5 731.1 L 558.7 731.1 L 558.4 734.0 Q 559.3 733.7, 560.1 733.7 " fill="#000000"/>
</svg>